<svg xmlns="http://www.w3.org/2000/svg" xmlns:xlink="http://www.w3.org/1999/xlink" width="600" height="400" viewBox="0 0 2400 1600">
<defs>
  <clipPath id="clip260">
    <rect x="0" y="0" width="2400" height="1600"></rect>
  </clipPath>
</defs>
<path clip-path="url(#clip260)" d="M0 1600 L2400 1600 L2400 0 L0 0  Z" fill="#ffffff" fill-rule="evenodd" fill-opacity="1"></path>
<defs>
  <clipPath id="clip261">
    <rect x="480" y="0" width="1681" height="1600"></rect>
  </clipPath>
</defs>
<path clip-path="url(#clip260)" d="M202.227 1423.18 L2352.76 1423.18 L2352.76 123.472 L202.227 123.472  Z" fill="#ffffff" fill-rule="evenodd" fill-opacity="1"></path>
<defs>
  <clipPath id="clip262">
    <rect x="202" y="123" width="2152" height="1301"></rect>
  </clipPath>
</defs>
<polyline clip-path="url(#clip262)" style="stroke:#000000; stroke-linecap:round; stroke-linejoin:round; stroke-width:2; stroke-opacity:0.1; fill:none" points="202.227,1423.18 202.227,123.472 "></polyline>
<polyline clip-path="url(#clip262)" style="stroke:#000000; stroke-linecap:round; stroke-linejoin:round; stroke-width:2; stroke-opacity:0.1; fill:none" points="632.333,1423.18 632.333,123.472 "></polyline>
<polyline clip-path="url(#clip262)" style="stroke:#000000; stroke-linecap:round; stroke-linejoin:round; stroke-width:2; stroke-opacity:0.1; fill:none" points="1062.44,1423.18 1062.44,123.472 "></polyline>
<polyline clip-path="url(#clip262)" style="stroke:#000000; stroke-linecap:round; stroke-linejoin:round; stroke-width:2; stroke-opacity:0.1; fill:none" points="1492.54,1423.18 1492.54,123.472 "></polyline>
<polyline clip-path="url(#clip262)" style="stroke:#000000; stroke-linecap:round; stroke-linejoin:round; stroke-width:2; stroke-opacity:0.1; fill:none" points="1922.65,1423.18 1922.65,123.472 "></polyline>
<polyline clip-path="url(#clip262)" style="stroke:#000000; stroke-linecap:round; stroke-linejoin:round; stroke-width:2; stroke-opacity:0.1; fill:none" points="2352.76,1423.18 2352.76,123.472 "></polyline>
<polyline clip-path="url(#clip260)" style="stroke:#000000; stroke-linecap:round; stroke-linejoin:round; stroke-width:4; stroke-opacity:1; fill:none" points="202.227,1423.18 2352.76,1423.18 "></polyline>
<polyline clip-path="url(#clip260)" style="stroke:#000000; stroke-linecap:round; stroke-linejoin:round; stroke-width:4; stroke-opacity:1; fill:none" points="202.227,1423.18 202.227,1404.28 "></polyline>
<polyline clip-path="url(#clip260)" style="stroke:#000000; stroke-linecap:round; stroke-linejoin:round; stroke-width:4; stroke-opacity:1; fill:none" points="632.333,1423.18 632.333,1404.28 "></polyline>
<polyline clip-path="url(#clip260)" style="stroke:#000000; stroke-linecap:round; stroke-linejoin:round; stroke-width:4; stroke-opacity:1; fill:none" points="1062.44,1423.18 1062.44,1404.28 "></polyline>
<polyline clip-path="url(#clip260)" style="stroke:#000000; stroke-linecap:round; stroke-linejoin:round; stroke-width:4; stroke-opacity:1; fill:none" points="1492.54,1423.18 1492.54,1404.28 "></polyline>
<polyline clip-path="url(#clip260)" style="stroke:#000000; stroke-linecap:round; stroke-linejoin:round; stroke-width:4; stroke-opacity:1; fill:none" points="1922.65,1423.18 1922.65,1404.28 "></polyline>
<polyline clip-path="url(#clip260)" style="stroke:#000000; stroke-linecap:round; stroke-linejoin:round; stroke-width:4; stroke-opacity:1; fill:none" points="2352.76,1423.18 2352.76,1404.28 "></polyline>
<path clip-path="url(#clip260)" d="M202.227 1454.1 Q198.616 1454.1 196.788 1457.66 Q194.982 1461.2 194.982 1468.33 Q194.982 1475.44 196.788 1479.01 Q198.616 1482.55 202.227 1482.55 Q205.862 1482.55 207.667 1479.01 Q209.496 1475.44 209.496 1468.33 Q209.496 1461.2 207.667 1457.66 Q205.862 1454.1 202.227 1454.1 M202.227 1450.39 Q208.038 1450.39 211.093 1455 Q214.172 1459.58 214.172 1468.33 Q214.172 1477.06 211.093 1481.67 Q208.038 1486.25 202.227 1486.25 Q196.417 1486.25 193.339 1481.67 Q190.283 1477.06 190.283 1468.33 Q190.283 1459.58 193.339 1455 Q196.417 1450.39 202.227 1450.39 Z" fill="#000000" fill-rule="nonzero" fill-opacity="1"></path><path clip-path="url(#clip260)" d="M626.986 1481.64 L643.305 1481.64 L643.305 1485.58 L621.361 1485.58 L621.361 1481.64 Q624.023 1478.89 628.606 1474.26 Q633.213 1469.61 634.393 1468.27 Q636.639 1465.74 637.518 1464.01 Q638.421 1462.25 638.421 1460.56 Q638.421 1457.8 636.477 1456.07 Q634.555 1454.33 631.454 1454.33 Q629.254 1454.33 626.801 1455.09 Q624.37 1455.86 621.592 1457.41 L621.592 1452.69 Q624.417 1451.55 626.87 1450.97 Q629.324 1450.39 631.361 1450.39 Q636.731 1450.39 639.926 1453.08 Q643.12 1455.77 643.12 1460.26 Q643.12 1462.39 642.31 1464.31 Q641.523 1466.2 639.416 1468.8 Q638.838 1469.47 635.736 1472.69 Q632.634 1475.88 626.986 1481.64 Z" fill="#000000" fill-rule="nonzero" fill-opacity="1"></path><path clip-path="url(#clip260)" d="M1065.45 1455.09 L1053.64 1473.54 L1065.45 1473.54 L1065.45 1455.09 M1064.22 1451.02 L1070.1 1451.02 L1070.1 1473.54 L1075.03 1473.54 L1075.03 1477.43 L1070.1 1477.43 L1070.1 1485.58 L1065.45 1485.58 L1065.45 1477.43 L1049.85 1477.43 L1049.85 1472.92 L1064.22 1451.02 Z" fill="#000000" fill-rule="nonzero" fill-opacity="1"></path><path clip-path="url(#clip260)" d="M1492.95 1466.44 Q1489.8 1466.44 1487.95 1468.59 Q1486.12 1470.74 1486.12 1474.49 Q1486.12 1478.22 1487.95 1480.39 Q1489.8 1482.55 1492.95 1482.55 Q1496.1 1482.55 1497.93 1480.39 Q1499.78 1478.22 1499.78 1474.49 Q1499.78 1470.74 1497.93 1468.59 Q1496.1 1466.44 1492.95 1466.44 M1502.23 1451.78 L1502.23 1456.04 Q1500.47 1455.21 1498.67 1454.77 Q1496.88 1454.33 1495.13 1454.33 Q1490.5 1454.33 1488.04 1457.45 Q1485.61 1460.58 1485.26 1466.9 Q1486.63 1464.89 1488.69 1463.82 Q1490.75 1462.73 1493.23 1462.73 Q1498.44 1462.73 1501.44 1465.9 Q1504.48 1469.05 1504.48 1474.49 Q1504.48 1479.82 1501.33 1483.03 Q1498.18 1486.25 1492.95 1486.25 Q1486.95 1486.25 1483.78 1481.67 Q1480.61 1477.06 1480.61 1468.33 Q1480.61 1460.14 1484.5 1455.28 Q1488.39 1450.39 1494.94 1450.39 Q1496.7 1450.39 1498.48 1450.74 Q1500.29 1451.09 1502.23 1451.78 Z" fill="#000000" fill-rule="nonzero" fill-opacity="1"></path><path clip-path="url(#clip260)" d="M1922.65 1469.17 Q1919.32 1469.17 1917.4 1470.95 Q1915.5 1472.73 1915.5 1475.86 Q1915.5 1478.98 1917.4 1480.77 Q1919.32 1482.55 1922.65 1482.55 Q1925.98 1482.55 1927.9 1480.77 Q1929.83 1478.96 1929.83 1475.86 Q1929.83 1472.73 1927.9 1470.95 Q1926.01 1469.17 1922.65 1469.17 M1917.97 1467.18 Q1914.97 1466.44 1913.28 1464.38 Q1911.61 1462.32 1911.61 1459.35 Q1911.61 1455.21 1914.55 1452.8 Q1917.51 1450.39 1922.65 1450.39 Q1927.81 1450.39 1930.75 1452.8 Q1933.69 1455.21 1933.69 1459.35 Q1933.69 1462.32 1932 1464.38 Q1930.34 1466.44 1927.35 1467.18 Q1930.73 1467.96 1932.6 1470.26 Q1934.5 1472.55 1934.5 1475.86 Q1934.5 1480.88 1931.42 1483.57 Q1928.37 1486.25 1922.65 1486.25 Q1916.93 1486.25 1913.85 1483.57 Q1910.8 1480.88 1910.8 1475.86 Q1910.8 1472.55 1912.7 1470.26 Q1914.59 1467.96 1917.97 1467.18 M1916.26 1459.79 Q1916.26 1462.48 1917.93 1463.98 Q1919.62 1465.49 1922.65 1465.49 Q1925.66 1465.49 1927.35 1463.98 Q1929.06 1462.48 1929.06 1459.79 Q1929.06 1457.11 1927.35 1455.6 Q1925.66 1454.1 1922.65 1454.1 Q1919.62 1454.1 1917.93 1455.6 Q1916.26 1457.11 1916.26 1459.79 Z" fill="#000000" fill-rule="nonzero" fill-opacity="1"></path><path clip-path="url(#clip260)" d="M2327.44 1481.64 L2335.08 1481.64 L2335.08 1455.28 L2326.77 1456.95 L2326.77 1452.69 L2335.04 1451.02 L2339.71 1451.02 L2339.71 1481.64 L2347.35 1481.64 L2347.35 1485.58 L2327.44 1485.58 L2327.44 1481.64 Z" fill="#000000" fill-rule="nonzero" fill-opacity="1"></path><path clip-path="url(#clip260)" d="M2366.8 1454.1 Q2363.18 1454.1 2361.36 1457.66 Q2359.55 1461.2 2359.55 1468.33 Q2359.55 1475.44 2361.36 1479.01 Q2363.18 1482.55 2366.8 1482.55 Q2370.43 1482.55 2372.23 1479.01 Q2374.06 1475.44 2374.06 1468.33 Q2374.06 1461.2 2372.23 1457.66 Q2370.43 1454.1 2366.8 1454.1 M2366.8 1450.39 Q2372.61 1450.39 2375.66 1455 Q2378.74 1459.58 2378.74 1468.33 Q2378.74 1477.06 2375.66 1481.67 Q2372.61 1486.25 2366.8 1486.25 Q2360.99 1486.25 2357.91 1481.67 Q2354.85 1477.06 2354.85 1468.33 Q2354.85 1459.58 2357.91 1455 Q2360.99 1450.39 2366.8 1450.39 Z" fill="#000000" fill-rule="nonzero" fill-opacity="1"></path><path clip-path="url(#clip260)" d="M1275.31 1532.4 L1262.42 1549.74 L1275.98 1568.04 L1269.07 1568.04 L1258.7 1554.04 L1248.32 1568.04 L1241.41 1568.04 L1255.26 1549.39 L1242.59 1532.4 L1249.5 1532.4 L1258.95 1545.1 L1268.4 1532.4 L1275.31 1532.4 Z" fill="#000000" fill-rule="nonzero" fill-opacity="1"></path><path clip-path="url(#clip260)" d="M1286.2 1562.63 L1296.7 1562.63 L1296.7 1526.38 L1285.27 1528.67 L1285.27 1522.82 L1296.64 1520.52 L1303.07 1520.52 L1303.07 1562.63 L1313.57 1562.63 L1313.57 1568.04 L1286.2 1568.04 L1286.2 1562.63 Z" fill="#000000" fill-rule="nonzero" fill-opacity="1"></path><polyline clip-path="url(#clip262)" style="stroke:#000000; stroke-linecap:round; stroke-linejoin:round; stroke-width:2; stroke-opacity:0.1; fill:none" points="202.227,1423.18 2352.76,1423.18 "></polyline>
<polyline clip-path="url(#clip262)" style="stroke:#000000; stroke-linecap:round; stroke-linejoin:round; stroke-width:2; stroke-opacity:0.1; fill:none" points="202.227,1163.24 2352.76,1163.24 "></polyline>
<polyline clip-path="url(#clip262)" style="stroke:#000000; stroke-linecap:round; stroke-linejoin:round; stroke-width:2; stroke-opacity:0.1; fill:none" points="202.227,903.297 2352.76,903.297 "></polyline>
<polyline clip-path="url(#clip262)" style="stroke:#000000; stroke-linecap:round; stroke-linejoin:round; stroke-width:2; stroke-opacity:0.1; fill:none" points="202.227,643.355 2352.76,643.355 "></polyline>
<polyline clip-path="url(#clip262)" style="stroke:#000000; stroke-linecap:round; stroke-linejoin:round; stroke-width:2; stroke-opacity:0.1; fill:none" points="202.227,383.414 2352.76,383.414 "></polyline>
<polyline clip-path="url(#clip262)" style="stroke:#000000; stroke-linecap:round; stroke-linejoin:round; stroke-width:2; stroke-opacity:0.1; fill:none" points="202.227,123.472 2352.76,123.472 "></polyline>
<polyline clip-path="url(#clip260)" style="stroke:#000000; stroke-linecap:round; stroke-linejoin:round; stroke-width:4; stroke-opacity:1; fill:none" points="202.227,1423.18 202.227,123.472 "></polyline>
<polyline clip-path="url(#clip260)" style="stroke:#000000; stroke-linecap:round; stroke-linejoin:round; stroke-width:4; stroke-opacity:1; fill:none" points="202.227,1423.18 221.125,1423.18 "></polyline>
<polyline clip-path="url(#clip260)" style="stroke:#000000; stroke-linecap:round; stroke-linejoin:round; stroke-width:4; stroke-opacity:1; fill:none" points="202.227,1163.24 221.125,1163.24 "></polyline>
<polyline clip-path="url(#clip260)" style="stroke:#000000; stroke-linecap:round; stroke-linejoin:round; stroke-width:4; stroke-opacity:1; fill:none" points="202.227,903.297 221.125,903.297 "></polyline>
<polyline clip-path="url(#clip260)" style="stroke:#000000; stroke-linecap:round; stroke-linejoin:round; stroke-width:4; stroke-opacity:1; fill:none" points="202.227,643.355 221.125,643.355 "></polyline>
<polyline clip-path="url(#clip260)" style="stroke:#000000; stroke-linecap:round; stroke-linejoin:round; stroke-width:4; stroke-opacity:1; fill:none" points="202.227,383.414 221.125,383.414 "></polyline>
<polyline clip-path="url(#clip260)" style="stroke:#000000; stroke-linecap:round; stroke-linejoin:round; stroke-width:4; stroke-opacity:1; fill:none" points="202.227,123.472 221.125,123.472 "></polyline>
<path clip-path="url(#clip260)" d="M154.283 1408.98 Q150.672 1408.98 148.843 1412.54 Q147.038 1416.08 147.038 1423.21 Q147.038 1430.32 148.843 1433.89 Q150.672 1437.43 154.283 1437.43 Q157.917 1437.43 159.723 1433.89 Q161.552 1430.32 161.552 1423.21 Q161.552 1416.08 159.723 1412.54 Q157.917 1408.98 154.283 1408.98 M154.283 1405.27 Q160.093 1405.27 163.149 1409.88 Q166.227 1414.46 166.227 1423.21 Q166.227 1431.94 163.149 1436.55 Q160.093 1441.13 154.283 1441.13 Q148.473 1441.13 145.394 1436.55 Q142.339 1431.94 142.339 1423.21 Q142.339 1414.46 145.394 1409.88 Q148.473 1405.27 154.283 1405.27 Z" fill="#000000" fill-rule="nonzero" fill-opacity="1"></path><path clip-path="url(#clip260)" d="M149.908 1176.58 L166.227 1176.58 L166.227 1180.52 L144.283 1180.52 L144.283 1176.58 Q146.945 1173.83 151.528 1169.2 Q156.135 1164.55 157.315 1163.2 Q159.561 1160.68 160.44 1158.94 Q161.343 1157.19 161.343 1155.5 Q161.343 1152.74 159.399 1151 Q157.478 1149.27 154.376 1149.27 Q152.177 1149.27 149.723 1150.03 Q147.292 1150.8 144.515 1152.35 L144.515 1147.62 Q147.339 1146.49 149.792 1145.91 Q152.246 1145.33 154.283 1145.33 Q159.653 1145.33 162.848 1148.02 Q166.042 1150.7 166.042 1155.19 Q166.042 1157.32 165.232 1159.25 Q164.445 1161.14 162.339 1163.74 Q161.76 1164.41 158.658 1167.62 Q155.556 1170.82 149.908 1176.58 Z" fill="#000000" fill-rule="nonzero" fill-opacity="1"></path><path clip-path="url(#clip260)" d="M156.644 890.091 L144.839 908.54 L156.644 908.54 L156.644 890.091 M155.417 886.017 L161.297 886.017 L161.297 908.54 L166.227 908.54 L166.227 912.429 L161.297 912.429 L161.297 920.577 L156.644 920.577 L156.644 912.429 L141.042 912.429 L141.042 907.915 L155.417 886.017 Z" fill="#000000" fill-rule="nonzero" fill-opacity="1"></path><path clip-path="url(#clip260)" d="M154.7 641.492 Q151.552 641.492 149.7 643.645 Q147.871 645.797 147.871 649.547 Q147.871 653.274 149.7 655.45 Q151.552 657.603 154.7 657.603 Q157.848 657.603 159.677 655.45 Q161.528 653.274 161.528 649.547 Q161.528 645.797 159.677 643.645 Q157.848 641.492 154.7 641.492 M163.982 626.839 L163.982 631.098 Q162.223 630.265 160.417 629.825 Q158.635 629.385 156.876 629.385 Q152.246 629.385 149.792 632.51 Q147.362 635.635 147.015 641.955 Q148.38 639.941 150.441 638.876 Q152.501 637.788 154.978 637.788 Q160.186 637.788 163.195 640.959 Q166.227 644.108 166.227 649.547 Q166.227 654.871 163.079 658.089 Q159.931 661.307 154.7 661.307 Q148.704 661.307 145.533 656.723 Q142.362 652.117 142.362 643.39 Q142.362 635.196 146.251 630.334 Q150.14 625.45 156.69 625.45 Q158.45 625.45 160.232 625.797 Q162.038 626.145 163.982 626.839 Z" fill="#000000" fill-rule="nonzero" fill-opacity="1"></path><path clip-path="url(#clip260)" d="M154.376 384.282 Q151.042 384.282 149.121 386.064 Q147.223 387.847 147.223 390.971 Q147.223 394.096 149.121 395.879 Q151.042 397.661 154.376 397.661 Q157.709 397.661 159.63 395.879 Q161.552 394.073 161.552 390.971 Q161.552 387.847 159.63 386.064 Q157.732 384.282 154.376 384.282 M149.7 382.291 Q146.691 381.55 145.001 379.49 Q143.334 377.43 143.334 374.467 Q143.334 370.323 146.274 367.916 Q149.237 365.509 154.376 365.509 Q159.538 365.509 162.477 367.916 Q165.417 370.323 165.417 374.467 Q165.417 377.43 163.727 379.49 Q162.061 381.55 159.075 382.291 Q162.454 383.078 164.329 385.37 Q166.227 387.661 166.227 390.971 Q166.227 395.995 163.149 398.68 Q160.093 401.365 154.376 401.365 Q148.658 401.365 145.579 398.68 Q142.524 395.995 142.524 390.971 Q142.524 387.661 144.422 385.37 Q146.32 383.078 149.7 382.291 M147.987 374.907 Q147.987 377.592 149.653 379.097 Q151.343 380.601 154.376 380.601 Q157.385 380.601 159.075 379.097 Q160.788 377.592 160.788 374.907 Q160.788 372.222 159.075 370.717 Q157.385 369.212 154.376 369.212 Q151.343 369.212 149.653 370.717 Q147.987 372.222 147.987 374.907 Z" fill="#000000" fill-rule="nonzero" fill-opacity="1"></path><path clip-path="url(#clip260)" d="M114.931 136.817 L122.57 136.817 L122.57 110.451 L114.26 112.118 L114.26 107.859 L122.524 106.192 L127.2 106.192 L127.2 136.817 L134.839 136.817 L134.839 140.752 L114.931 140.752 L114.931 136.817 Z" fill="#000000" fill-rule="nonzero" fill-opacity="1"></path><path clip-path="url(#clip260)" d="M154.283 109.271 Q150.672 109.271 148.843 112.836 Q147.038 116.377 147.038 123.507 Q147.038 130.613 148.843 134.178 Q150.672 137.72 154.283 137.72 Q157.917 137.72 159.723 134.178 Q161.552 130.613 161.552 123.507 Q161.552 116.377 159.723 112.836 Q157.917 109.271 154.283 109.271 M154.283 105.567 Q160.093 105.567 163.149 110.174 Q166.227 114.757 166.227 123.507 Q166.227 132.234 163.149 136.84 Q160.093 141.423 154.283 141.423 Q148.473 141.423 145.394 136.84 Q142.339 132.234 142.339 123.507 Q142.339 114.757 145.394 110.174 Q148.473 105.567 154.283 105.567 Z" fill="#000000" fill-rule="nonzero" fill-opacity="1"></path><path clip-path="url(#clip260)" d="M28.3562 775.252 L45.7028 788.142 L64.0042 774.583 L64.0042 781.49 L49.9996 791.866 L64.0042 802.242 L64.0042 809.149 L45.3526 795.304 L28.3562 807.971 L28.3562 801.065 L41.0558 791.611 L28.3562 782.158 L28.3562 775.252 Z" fill="#000000" fill-rule="nonzero" fill-opacity="1"></path><path clip-path="url(#clip260)" d="M58.5933 759.942 L58.5933 737.503 L64.0042 737.503 L64.0042 767.676 L58.5933 767.676 Q54.8057 764.016 48.44 757.714 Q42.0425 751.38 40.1964 749.757 Q36.7271 746.67 34.34 745.46 Q31.921 744.219 29.5975 744.219 Q25.8099 744.219 23.4228 746.892 Q21.0356 749.534 21.0356 753.799 Q21.0356 756.823 22.086 760.197 Q23.1363 763.539 25.2688 767.358 L18.7758 767.358 Q17.2162 763.475 16.4205 760.101 Q15.6248 756.727 15.6248 753.926 Q15.6248 746.542 19.3169 742.15 Q23.009 737.758 29.1837 737.758 Q32.112 737.758 34.7537 738.872 Q37.3637 739.954 40.9285 742.85 Q41.8515 743.646 46.2757 747.911 Q50.668 752.176 58.5933 759.942 Z" fill="#000000" fill-rule="nonzero" fill-opacity="1"></path><path clip-path="url(#clip260)" d="M61.309 12.096 L69.4918 12.096 L69.4918 65.6895 L98.9419 65.6895 L98.9419 72.576 L61.309 72.576 L61.309 12.096 Z" fill="#000000" fill-rule="nonzero" fill-opacity="1"></path><path clip-path="url(#clip260)" d="M107.206 27.2059 L114.659 27.2059 L114.659 72.576 L107.206 72.576 L107.206 27.2059 M107.206 9.54393 L114.659 9.54393 L114.659 18.9825 L107.206 18.9825 L107.206 9.54393 Z" fill="#000000" fill-rule="nonzero" fill-opacity="1"></path><path clip-path="url(#clip260)" d="M167.969 45.1919 L167.969 72.576 L160.516 72.576 L160.516 45.4349 Q160.516 38.994 158.004 35.7938 Q155.492 32.5936 150.469 32.5936 Q144.434 32.5936 140.95 36.4419 Q137.466 40.2903 137.466 46.9338 L137.466 72.576 L129.972 72.576 L129.972 27.2059 L137.466 27.2059 L137.466 34.2544 Q140.14 30.163 143.745 28.1376 Q147.391 26.1121 152.13 26.1121 Q159.948 26.1121 163.959 30.9732 Q167.969 35.7938 167.969 45.1919 Z" fill="#000000" fill-rule="nonzero" fill-opacity="1"></path><path clip-path="url(#clip260)" d="M221.644 48.0275 L221.644 51.6733 L187.373 51.6733 Q187.859 59.3701 191.991 63.421 Q196.164 67.4314 203.577 67.4314 Q207.871 67.4314 211.881 66.3781 Q215.932 65.3249 219.902 63.2184 L219.902 70.267 Q215.891 71.9684 211.679 72.8596 Q207.466 73.7508 203.131 73.7508 Q192.275 73.7508 185.915 67.4314 Q179.595 61.1119 179.595 50.3365 Q179.595 39.1965 185.591 32.6746 Q191.627 26.1121 201.835 26.1121 Q210.99 26.1121 216.297 32.0264 Q221.644 37.9003 221.644 48.0275 M214.19 45.84 Q214.109 39.7232 210.747 36.0774 Q207.425 32.4315 201.916 32.4315 Q195.677 32.4315 191.91 35.9558 Q188.183 39.4801 187.616 45.8805 L214.19 45.84 Z" fill="#000000" fill-rule="nonzero" fill-opacity="1"></path><path clip-path="url(#clip260)" d="M254.497 49.7694 Q245.463 49.7694 241.979 51.8354 Q238.496 53.9013 238.496 58.8839 Q238.496 62.8538 241.088 65.2034 Q243.721 67.5124 248.218 67.5124 Q254.416 67.5124 258.142 63.1374 Q261.91 58.7219 261.91 51.4303 L261.91 49.7694 L254.497 49.7694 M269.363 46.6907 L269.363 72.576 L261.91 72.576 L261.91 65.6895 Q259.358 69.8214 255.55 71.8063 Q251.742 73.7508 246.233 73.7508 Q239.265 73.7508 235.133 69.8619 Q231.042 65.9325 231.042 59.3701 Q231.042 51.7138 236.146 47.825 Q241.291 43.9361 251.458 43.9361 L261.91 43.9361 L261.91 43.2069 Q261.91 38.0623 258.507 35.2672 Q255.145 32.4315 249.028 32.4315 Q245.139 32.4315 241.453 33.3632 Q237.766 34.295 234.364 36.1584 L234.364 29.2718 Q238.455 27.692 242.303 26.9223 Q246.152 26.1121 249.798 26.1121 Q259.641 26.1121 264.502 31.2163 Q269.363 36.3204 269.363 46.6907 Z" fill="#000000" fill-rule="nonzero" fill-opacity="1"></path><path clip-path="url(#clip260)" d="M311.007 34.1734 Q309.751 33.4443 308.252 33.1202 Q306.794 32.7556 305.011 32.7556 Q298.692 32.7556 295.289 36.8875 Q291.927 40.9789 291.927 48.6757 L291.927 72.576 L284.433 72.576 L284.433 27.2059 L291.927 27.2059 L291.927 34.2544 Q294.276 30.1225 298.044 28.1376 Q301.811 26.1121 307.199 26.1121 Q307.969 26.1121 308.9 26.2337 Q309.832 26.3147 310.966 26.5172 L311.007 34.1734 Z" fill="#000000" fill-rule="nonzero" fill-opacity="1"></path><path clip-path="url(#clip260)" d="M353.703 18.8205 L353.703 41.5461 L363.993 41.5461 Q369.704 41.5461 372.824 38.5889 Q375.943 35.6318 375.943 30.163 Q375.943 24.7348 372.824 21.7777 Q369.704 18.8205 363.993 18.8205 L353.703 18.8205 M345.52 12.096 L363.993 12.096 Q374.16 12.096 379.345 16.714 Q384.571 21.2916 384.571 30.163 Q384.571 39.1155 379.345 43.6931 Q374.16 48.2706 363.993 48.2706 L353.703 48.2706 L353.703 72.576 L345.52 72.576 L345.52 12.096 Z" fill="#000000" fill-rule="nonzero" fill-opacity="1"></path><path clip-path="url(#clip260)" d="M420.057 34.1734 Q418.801 33.4443 417.302 33.1202 Q415.844 32.7556 414.062 32.7556 Q407.742 32.7556 404.34 36.8875 Q400.977 40.9789 400.977 48.6757 L400.977 72.576 L393.483 72.576 L393.483 27.2059 L400.977 27.2059 L400.977 34.2544 Q403.327 30.1225 407.094 28.1376 Q410.861 26.1121 416.249 26.1121 Q417.019 26.1121 417.951 26.2337 Q418.882 26.3147 420.017 26.5172 L420.057 34.1734 Z" fill="#000000" fill-rule="nonzero" fill-opacity="1"></path><path clip-path="url(#clip260)" d="M443.633 32.4315 Q437.638 32.4315 434.154 37.1306 Q430.67 41.7891 430.67 49.9314 Q430.67 58.0738 434.114 62.7728 Q437.597 67.4314 443.633 67.4314 Q449.588 67.4314 453.072 62.7323 Q456.556 58.0333 456.556 49.9314 Q456.556 41.8701 453.072 37.1711 Q449.588 32.4315 443.633 32.4315 M443.633 26.1121 Q453.355 26.1121 458.905 32.4315 Q464.455 38.7509 464.455 49.9314 Q464.455 61.0714 458.905 67.4314 Q453.355 73.7508 443.633 73.7508 Q433.871 73.7508 428.321 67.4314 Q422.812 61.0714 422.812 49.9314 Q422.812 38.7509 428.321 32.4315 Q433.871 26.1121 443.633 26.1121 Z" fill="#000000" fill-rule="nonzero" fill-opacity="1"></path><path clip-path="url(#clip260)" d="M506.665 49.3643 Q506.665 41.2625 503.303 36.8065 Q499.981 32.3505 493.946 32.3505 Q487.95 32.3505 484.588 36.8065 Q481.266 41.2625 481.266 49.3643 Q481.266 57.4256 484.588 61.8816 Q487.95 66.3376 493.946 66.3376 Q499.981 66.3376 503.303 61.8816 Q506.665 57.4256 506.665 49.3643 M514.119 66.9452 Q514.119 78.5308 508.974 84.1616 Q503.83 89.8329 493.216 89.8329 Q489.287 89.8329 485.803 89.2252 Q482.319 88.6581 479.038 87.4428 L479.038 80.1917 Q482.319 81.9741 485.52 82.8248 Q488.72 83.6755 492.042 83.6755 Q499.374 83.6755 503.02 79.8271 Q506.665 76.0193 506.665 68.282 L506.665 64.5957 Q504.356 68.6061 500.751 70.5911 Q497.146 72.576 492.123 72.576 Q483.778 72.576 478.674 66.2161 Q473.569 59.8562 473.569 49.3643 Q473.569 38.832 478.674 32.472 Q483.778 26.1121 492.123 26.1121 Q497.146 26.1121 500.751 28.0971 Q504.356 30.082 506.665 34.0924 L506.665 27.2059 L514.119 27.2059 L514.119 66.9452 Z" fill="#000000" fill-rule="nonzero" fill-opacity="1"></path><path clip-path="url(#clip260)" d="M555.762 34.1734 Q554.507 33.4443 553.008 33.1202 Q551.549 32.7556 549.767 32.7556 Q543.448 32.7556 540.045 36.8875 Q536.683 40.9789 536.683 48.6757 L536.683 72.576 L529.188 72.576 L529.188 27.2059 L536.683 27.2059 L536.683 34.2544 Q539.032 30.1225 542.799 28.1376 Q546.567 26.1121 551.954 26.1121 Q552.724 26.1121 553.656 26.2337 Q554.588 26.3147 555.722 26.5172 L555.762 34.1734 Z" fill="#000000" fill-rule="nonzero" fill-opacity="1"></path><path clip-path="url(#clip260)" d="M584.2 49.7694 Q575.166 49.7694 571.682 51.8354 Q568.199 53.9013 568.199 58.8839 Q568.199 62.8538 570.791 65.2034 Q573.424 67.5124 577.921 67.5124 Q584.119 67.5124 587.845 63.1374 Q591.613 58.7219 591.613 51.4303 L591.613 49.7694 L584.2 49.7694 M599.067 46.6907 L599.067 72.576 L591.613 72.576 L591.613 65.6895 Q589.061 69.8214 585.253 71.8063 Q581.445 73.7508 575.936 73.7508 Q568.968 73.7508 564.836 69.8619 Q560.745 65.9325 560.745 59.3701 Q560.745 51.7138 565.849 47.825 Q570.994 43.9361 581.162 43.9361 L591.613 43.9361 L591.613 43.2069 Q591.613 38.0623 588.21 35.2672 Q584.848 32.4315 578.731 32.4315 Q574.842 32.4315 571.156 33.3632 Q567.469 34.295 564.067 36.1584 L564.067 29.2718 Q568.158 27.692 572.006 26.9223 Q575.855 26.1121 579.501 26.1121 Q589.344 26.1121 594.205 31.2163 Q599.067 36.3204 599.067 46.6907 Z" fill="#000000" fill-rule="nonzero" fill-opacity="1"></path><path clip-path="url(#clip260)" d="M649.743 35.9153 Q652.538 30.8922 656.427 28.5022 Q660.316 26.1121 665.582 26.1121 Q672.671 26.1121 676.52 31.0947 Q680.368 36.0368 680.368 45.1919 L680.368 72.576 L672.874 72.576 L672.874 45.4349 Q672.874 38.913 670.565 35.7533 Q668.256 32.5936 663.516 32.5936 Q657.724 32.5936 654.361 36.4419 Q650.999 40.2903 650.999 46.9338 L650.999 72.576 L643.505 72.576 L643.505 45.4349 Q643.505 38.8725 641.196 35.7533 Q638.887 32.5936 634.066 32.5936 Q628.355 32.5936 624.992 36.4824 Q621.63 40.3308 621.63 46.9338 L621.63 72.576 L614.136 72.576 L614.136 27.2059 L621.63 27.2059 L621.63 34.2544 Q624.182 30.082 627.747 28.0971 Q631.312 26.1121 636.213 26.1121 Q641.155 26.1121 644.599 28.6237 Q648.082 31.1352 649.743 35.9153 Z" fill="#000000" fill-rule="nonzero" fill-opacity="1"></path><path clip-path="url(#clip260)" d="M730.559 35.9153 Q733.354 30.8922 737.243 28.5022 Q741.132 26.1121 746.398 26.1121 Q753.487 26.1121 757.335 31.0947 Q761.184 36.0368 761.184 45.1919 L761.184 72.576 L753.69 72.576 L753.69 45.4349 Q753.69 38.913 751.381 35.7533 Q749.071 32.5936 744.332 32.5936 Q738.539 32.5936 735.177 36.4419 Q731.815 40.2903 731.815 46.9338 L731.815 72.576 L724.32 72.576 L724.32 45.4349 Q724.32 38.8725 722.011 35.7533 Q719.702 32.5936 714.882 32.5936 Q709.17 32.5936 705.808 36.4824 Q702.446 40.3308 702.446 46.9338 L702.446 72.576 L694.951 72.576 L694.951 27.2059 L702.446 27.2059 L702.446 34.2544 Q704.998 30.082 708.562 28.0971 Q712.127 26.1121 717.029 26.1121 Q721.971 26.1121 725.414 28.6237 Q728.898 31.1352 730.559 35.9153 Z" fill="#000000" fill-rule="nonzero" fill-opacity="1"></path><path clip-path="url(#clip260)" d="M776.051 27.2059 L783.504 27.2059 L783.504 72.576 L776.051 72.576 L776.051 27.2059 M776.051 9.54393 L783.504 9.54393 L783.504 18.9825 L776.051 18.9825 L776.051 9.54393 Z" fill="#000000" fill-rule="nonzero" fill-opacity="1"></path><path clip-path="url(#clip260)" d="M836.814 45.1919 L836.814 72.576 L829.36 72.576 L829.36 45.4349 Q829.36 38.994 826.849 35.7938 Q824.337 32.5936 819.314 32.5936 Q813.278 32.5936 809.795 36.4419 Q806.311 40.2903 806.311 46.9338 L806.311 72.576 L798.817 72.576 L798.817 27.2059 L806.311 27.2059 L806.311 34.2544 Q808.984 30.163 812.59 28.1376 Q816.235 26.1121 820.975 26.1121 Q828.793 26.1121 832.804 30.9732 Q836.814 35.7938 836.814 45.1919 Z" fill="#000000" fill-rule="nonzero" fill-opacity="1"></path><path clip-path="url(#clip260)" d="M881.536 49.3643 Q881.536 41.2625 878.174 36.8065 Q874.852 32.3505 868.816 32.3505 Q862.821 32.3505 859.459 36.8065 Q856.137 41.2625 856.137 49.3643 Q856.137 57.4256 859.459 61.8816 Q862.821 66.3376 868.816 66.3376 Q874.852 66.3376 878.174 61.8816 Q881.536 57.4256 881.536 49.3643 M888.99 66.9452 Q888.99 78.5308 883.845 84.1616 Q878.7 89.8329 868.087 89.8329 Q864.158 89.8329 860.674 89.2252 Q857.19 88.6581 853.909 87.4428 L853.909 80.1917 Q857.19 81.9741 860.39 82.8248 Q863.591 83.6755 866.912 83.6755 Q874.244 83.6755 877.89 79.8271 Q881.536 76.0193 881.536 68.282 L881.536 64.5957 Q879.227 68.6061 875.622 70.5911 Q872.016 72.576 866.993 72.576 Q858.648 72.576 853.544 66.2161 Q848.44 59.8562 848.44 49.3643 Q848.44 38.832 853.544 32.472 Q858.648 26.1121 866.993 26.1121 Q872.016 26.1121 875.622 28.0971 Q879.227 30.082 881.536 34.0924 L881.536 27.2059 L888.99 27.2059 L888.99 66.9452 Z" fill="#000000" fill-rule="nonzero" fill-opacity="1"></path><path clip-path="url(#clip260)" d="M906.247 62.2867 L914.794 62.2867 L914.794 72.576 L906.247 72.576 L906.247 62.2867 M906.247 29.6769 L914.794 29.6769 L914.794 39.9662 L906.247 39.9662 L906.247 29.6769 Z" fill="#000000" fill-rule="nonzero" fill-opacity="1"></path><path clip-path="url(#clip260)" d="M958.989 12.096 L993.746 12.096 L993.746 18.9825 L967.172 18.9825 L967.172 36.8065 L991.154 36.8065 L991.154 43.6931 L967.172 43.6931 L967.172 72.576 L958.989 72.576 L958.989 12.096 Z" fill="#000000" fill-rule="nonzero" fill-opacity="1"></path><path clip-path="url(#clip260)" d="M1040.66 48.0275 L1040.66 51.6733 L1006.38 51.6733 Q1006.87 59.3701 1011 63.421 Q1015.18 67.4314 1022.59 67.4314 Q1026.88 67.4314 1030.89 66.3781 Q1034.94 65.3249 1038.91 63.2184 L1038.91 70.267 Q1034.9 71.9684 1030.69 72.8596 Q1026.48 73.7508 1022.14 73.7508 Q1011.29 73.7508 1004.93 67.4314 Q998.607 61.1119 998.607 50.3365 Q998.607 39.1965 1004.6 32.6746 Q1010.64 26.1121 1020.85 26.1121 Q1030 26.1121 1035.31 32.0264 Q1040.66 37.9003 1040.66 48.0275 M1033.2 45.84 Q1033.12 39.7232 1029.76 36.0774 Q1026.44 32.4315 1020.93 32.4315 Q1014.69 32.4315 1010.92 35.9558 Q1007.2 39.4801 1006.63 45.8805 L1033.2 45.84 Z" fill="#000000" fill-rule="nonzero" fill-opacity="1"></path><path clip-path="url(#clip260)" d="M1073.51 49.7694 Q1064.47 49.7694 1060.99 51.8354 Q1057.51 53.9013 1057.51 58.8839 Q1057.51 62.8538 1060.1 65.2034 Q1062.73 67.5124 1067.23 67.5124 Q1073.43 67.5124 1077.15 63.1374 Q1080.92 58.7219 1080.92 51.4303 L1080.92 49.7694 L1073.51 49.7694 M1088.38 46.6907 L1088.38 72.576 L1080.92 72.576 L1080.92 65.6895 Q1078.37 69.8214 1074.56 71.8063 Q1070.75 73.7508 1065.24 73.7508 Q1058.28 73.7508 1054.15 69.8619 Q1050.05 65.9325 1050.05 59.3701 Q1050.05 51.7138 1055.16 47.825 Q1060.3 43.9361 1070.47 43.9361 L1080.92 43.9361 L1080.92 43.2069 Q1080.92 38.0623 1077.52 35.2672 Q1074.16 32.4315 1068.04 32.4315 Q1064.15 32.4315 1060.46 33.3632 Q1056.78 34.295 1053.38 36.1584 L1053.38 29.2718 Q1057.47 27.692 1061.32 26.9223 Q1065.16 26.1121 1068.81 26.1121 Q1078.65 26.1121 1083.51 31.2163 Q1088.38 36.3204 1088.38 46.6907 Z" fill="#000000" fill-rule="nonzero" fill-opacity="1"></path><path clip-path="url(#clip260)" d="M1132.65 28.5427 L1132.65 35.5912 Q1129.49 33.9709 1126.09 33.1607 Q1122.69 32.3505 1119.04 32.3505 Q1113.49 32.3505 1110.7 34.0519 Q1107.94 35.7533 1107.94 39.156 Q1107.94 41.7486 1109.93 43.2475 Q1111.91 44.7058 1117.91 46.0426 L1120.46 46.6097 Q1128.4 48.3111 1131.72 51.4303 Q1135.08 54.509 1135.08 60.0587 Q1135.08 66.3781 1130.06 70.0644 Q1125.08 73.7508 1116.33 73.7508 Q1112.68 73.7508 1108.71 73.0216 Q1104.78 72.3329 1100.41 70.9151 L1100.41 63.2184 Q1104.54 65.3654 1108.55 66.4591 Q1112.56 67.5124 1116.49 67.5124 Q1121.75 67.5124 1124.59 65.73 Q1127.43 63.9071 1127.43 60.6258 Q1127.43 57.5877 1125.36 55.9673 Q1123.33 54.3469 1116.41 52.8481 L1113.81 52.2405 Q1106.89 50.7821 1103.81 47.7845 Q1100.73 44.7463 1100.73 39.4801 Q1100.73 33.0797 1105.27 29.5959 Q1109.8 26.1121 1118.15 26.1121 Q1122.28 26.1121 1125.93 26.7198 Q1129.57 27.3274 1132.65 28.5427 Z" fill="#000000" fill-rule="nonzero" fill-opacity="1"></path><path clip-path="url(#clip260)" d="M1146.95 27.2059 L1154.4 27.2059 L1154.4 72.576 L1146.95 72.576 L1146.95 27.2059 M1146.95 9.54393 L1154.4 9.54393 L1154.4 18.9825 L1146.95 18.9825 L1146.95 9.54393 Z" fill="#000000" fill-rule="nonzero" fill-opacity="1"></path><path clip-path="url(#clip260)" d="M1202.57 49.9314 Q1202.57 41.7081 1199.17 37.0496 Q1195.81 32.3505 1189.89 32.3505 Q1183.98 32.3505 1180.57 37.0496 Q1177.21 41.7081 1177.21 49.9314 Q1177.21 58.1548 1180.57 62.8538 Q1183.98 67.5124 1189.89 67.5124 Q1195.81 67.5124 1199.17 62.8538 Q1202.57 58.1548 1202.57 49.9314 M1177.21 34.0924 Q1179.56 30.0415 1183.13 28.0971 Q1186.73 26.1121 1191.71 26.1121 Q1199.98 26.1121 1205.12 32.6746 Q1210.31 39.2371 1210.31 49.9314 Q1210.31 60.6258 1205.12 67.1883 Q1199.98 73.7508 1191.71 73.7508 Q1186.73 73.7508 1183.13 71.8063 Q1179.56 69.8214 1177.21 65.7705 L1177.21 72.576 L1169.72 72.576 L1169.72 9.54393 L1177.21 9.54393 L1177.21 34.0924 Z" fill="#000000" fill-rule="nonzero" fill-opacity="1"></path><path clip-path="url(#clip260)" d="M1222.66 9.54393 L1230.12 9.54393 L1230.12 72.576 L1222.66 72.576 L1222.66 9.54393 Z" fill="#000000" fill-rule="nonzero" fill-opacity="1"></path><path clip-path="url(#clip260)" d="M1284.52 48.0275 L1284.52 51.6733 L1250.25 51.6733 Q1250.74 59.3701 1254.87 63.421 Q1259.04 67.4314 1266.45 67.4314 Q1270.75 67.4314 1274.76 66.3781 Q1278.81 65.3249 1282.78 63.2184 L1282.78 70.267 Q1278.77 71.9684 1274.55 72.8596 Q1270.34 73.7508 1266.01 73.7508 Q1255.15 73.7508 1248.79 67.4314 Q1242.47 61.1119 1242.47 50.3365 Q1242.47 39.1965 1248.47 32.6746 Q1254.5 26.1121 1264.71 26.1121 Q1273.87 26.1121 1279.17 32.0264 Q1284.52 37.9003 1284.52 48.0275 M1277.07 45.84 Q1276.99 39.7232 1273.62 36.0774 Q1270.3 32.4315 1264.79 32.4315 Q1258.55 32.4315 1254.79 35.9558 Q1251.06 39.4801 1250.49 45.8805 L1277.07 45.84 Z" fill="#000000" fill-rule="nonzero" fill-opacity="1"></path><path clip-path="url(#clip260)" d="M1352.13 44.2197 Q1354.76 45.1109 1357.23 48.0275 Q1359.75 50.9442 1362.26 56.0483 L1370.56 72.576 L1361.77 72.576 L1354.03 57.061 Q1351.04 50.9847 1348.2 48.9997 Q1345.41 47.0148 1340.54 47.0148 L1331.63 47.0148 L1331.63 72.576 L1323.45 72.576 L1323.45 12.096 L1341.92 12.096 Q1352.29 12.096 1357.4 16.4305 Q1362.5 20.7649 1362.5 29.5149 Q1362.5 35.2267 1359.83 38.994 Q1357.19 42.7613 1352.13 44.2197 M1331.63 18.8205 L1331.63 40.2903 L1341.92 40.2903 Q1347.84 40.2903 1350.83 37.5762 Q1353.87 34.8216 1353.87 29.5149 Q1353.87 24.2082 1350.83 21.5346 Q1347.84 18.8205 1341.92 18.8205 L1331.63 18.8205 Z" fill="#000000" fill-rule="nonzero" fill-opacity="1"></path><path clip-path="url(#clip260)" d="M1415.85 48.0275 L1415.85 51.6733 L1381.58 51.6733 Q1382.07 59.3701 1386.2 63.421 Q1390.37 67.4314 1397.78 67.4314 Q1402.08 67.4314 1406.09 66.3781 Q1410.14 65.3249 1414.11 63.2184 L1414.11 70.267 Q1410.1 71.9684 1405.89 72.8596 Q1401.67 73.7508 1397.34 73.7508 Q1386.48 73.7508 1380.12 67.4314 Q1373.8 61.1119 1373.8 50.3365 Q1373.8 39.1965 1379.8 32.6746 Q1385.83 26.1121 1396.04 26.1121 Q1405.2 26.1121 1410.5 32.0264 Q1415.85 37.9003 1415.85 48.0275 M1408.4 45.84 Q1408.32 39.7232 1404.95 36.0774 Q1401.63 32.4315 1396.12 32.4315 Q1389.88 32.4315 1386.12 35.9558 Q1382.39 39.4801 1381.82 45.8805 L1408.4 45.84 Z" fill="#000000" fill-rule="nonzero" fill-opacity="1"></path><path clip-path="url(#clip260)" d="M1457.94 49.3643 Q1457.94 41.2625 1454.58 36.8065 Q1451.26 32.3505 1445.22 32.3505 Q1439.22 32.3505 1435.86 36.8065 Q1432.54 41.2625 1432.54 49.3643 Q1432.54 57.4256 1435.86 61.8816 Q1439.22 66.3376 1445.22 66.3376 Q1451.26 66.3376 1454.58 61.8816 Q1457.94 57.4256 1457.94 49.3643 M1465.39 66.9452 Q1465.39 78.5308 1460.25 84.1616 Q1455.1 89.8329 1444.49 89.8329 Q1440.56 89.8329 1437.08 89.2252 Q1433.59 88.6581 1430.31 87.4428 L1430.31 80.1917 Q1433.59 81.9741 1436.79 82.8248 Q1439.99 83.6755 1443.32 83.6755 Q1450.65 83.6755 1454.29 79.8271 Q1457.94 76.0193 1457.94 68.282 L1457.94 64.5957 Q1455.63 68.6061 1452.02 70.5911 Q1448.42 72.576 1443.4 72.576 Q1435.05 72.576 1429.95 66.2161 Q1424.84 59.8562 1424.84 49.3643 Q1424.84 38.832 1429.95 32.472 Q1435.05 26.1121 1443.4 26.1121 Q1448.42 26.1121 1452.02 28.0971 Q1455.63 30.082 1457.94 34.0924 L1457.94 27.2059 L1465.39 27.2059 L1465.39 66.9452 Z" fill="#000000" fill-rule="nonzero" fill-opacity="1"></path><path clip-path="url(#clip260)" d="M1480.75 27.2059 L1488.2 27.2059 L1488.2 72.576 L1480.75 72.576 L1480.75 27.2059 M1480.75 9.54393 L1488.2 9.54393 L1488.2 18.9825 L1480.75 18.9825 L1480.75 9.54393 Z" fill="#000000" fill-rule="nonzero" fill-opacity="1"></path><path clip-path="url(#clip260)" d="M1521.38 32.4315 Q1515.38 32.4315 1511.9 37.1306 Q1508.41 41.7891 1508.41 49.9314 Q1508.41 58.0738 1511.86 62.7728 Q1515.34 67.4314 1521.38 67.4314 Q1527.33 67.4314 1530.81 62.7323 Q1534.3 58.0333 1534.3 49.9314 Q1534.3 41.8701 1530.81 37.1711 Q1527.33 32.4315 1521.38 32.4315 M1521.38 26.1121 Q1531.1 26.1121 1536.65 32.4315 Q1542.2 38.7509 1542.2 49.9314 Q1542.2 61.0714 1536.65 67.4314 Q1531.1 73.7508 1521.38 73.7508 Q1511.61 73.7508 1506.06 67.4314 Q1500.55 61.0714 1500.55 49.9314 Q1500.55 38.7509 1506.06 32.4315 Q1511.61 26.1121 1521.38 26.1121 Z" fill="#000000" fill-rule="nonzero" fill-opacity="1"></path><path clip-path="url(#clip260)" d="M1592.27 45.1919 L1592.27 72.576 L1584.81 72.576 L1584.81 45.4349 Q1584.81 38.994 1582.3 35.7938 Q1579.79 32.5936 1574.77 32.5936 Q1568.73 32.5936 1565.25 36.4419 Q1561.76 40.2903 1561.76 46.9338 L1561.76 72.576 L1554.27 72.576 L1554.27 27.2059 L1561.76 27.2059 L1561.76 34.2544 Q1564.44 30.163 1568.04 28.1376 Q1571.69 26.1121 1576.43 26.1121 Q1584.25 26.1121 1588.26 30.9732 Q1592.27 35.7938 1592.27 45.1919 Z" fill="#000000" fill-rule="nonzero" fill-opacity="1"></path><path clip-path="url(#clip260)" d="M1654.12 49.7694 Q1645.09 49.7694 1641.61 51.8354 Q1638.12 53.9013 1638.12 58.8839 Q1638.12 62.8538 1640.72 65.2034 Q1643.35 67.5124 1647.85 67.5124 Q1654.04 67.5124 1657.77 63.1374 Q1661.54 58.7219 1661.54 51.4303 L1661.54 49.7694 L1654.12 49.7694 M1668.99 46.6907 L1668.99 72.576 L1661.54 72.576 L1661.54 65.6895 Q1658.99 69.8214 1655.18 71.8063 Q1651.37 73.7508 1645.86 73.7508 Q1638.89 73.7508 1634.76 69.8619 Q1630.67 65.9325 1630.67 59.3701 Q1630.67 51.7138 1635.77 47.825 Q1640.92 43.9361 1651.09 43.9361 L1661.54 43.9361 L1661.54 43.2069 Q1661.54 38.0623 1658.13 35.2672 Q1654.77 32.4315 1648.66 32.4315 Q1644.77 32.4315 1641.08 33.3632 Q1637.39 34.295 1633.99 36.1584 L1633.99 29.2718 Q1638.08 27.692 1641.93 26.9223 Q1645.78 26.1121 1649.43 26.1121 Q1659.27 26.1121 1664.13 31.2163 Q1668.99 36.3204 1668.99 46.6907 Z" fill="#000000" fill-rule="nonzero" fill-opacity="1"></path><path clip-path="url(#clip260)" d="M1722.06 45.1919 L1722.06 72.576 L1714.6 72.576 L1714.6 45.4349 Q1714.6 38.994 1712.09 35.7938 Q1709.58 32.5936 1704.56 32.5936 Q1698.52 32.5936 1695.04 36.4419 Q1691.55 40.2903 1691.55 46.9338 L1691.55 72.576 L1684.06 72.576 L1684.06 27.2059 L1691.55 27.2059 L1691.55 34.2544 Q1694.23 30.163 1697.83 28.1376 Q1701.48 26.1121 1706.22 26.1121 Q1714.04 26.1121 1718.05 30.9732 Q1722.06 35.7938 1722.06 45.1919 Z" fill="#000000" fill-rule="nonzero" fill-opacity="1"></path><path clip-path="url(#clip260)" d="M1766.78 34.0924 L1766.78 9.54393 L1774.23 9.54393 L1774.23 72.576 L1766.78 72.576 L1766.78 65.7705 Q1764.43 69.8214 1760.83 71.8063 Q1757.26 73.7508 1752.24 73.7508 Q1744.01 73.7508 1738.83 67.1883 Q1733.68 60.6258 1733.68 49.9314 Q1733.68 39.2371 1738.83 32.6746 Q1744.01 26.1121 1752.24 26.1121 Q1757.26 26.1121 1760.83 28.0971 Q1764.43 30.0415 1766.78 34.0924 M1741.38 49.9314 Q1741.38 58.1548 1744.74 62.8538 Q1748.15 67.5124 1754.06 67.5124 Q1759.97 67.5124 1763.38 62.8538 Q1766.78 58.1548 1766.78 49.9314 Q1766.78 41.7081 1763.38 37.0496 Q1759.97 32.3505 1754.06 32.3505 Q1748.15 32.3505 1744.74 37.0496 Q1741.38 41.7081 1741.38 49.9314 Z" fill="#000000" fill-rule="nonzero" fill-opacity="1"></path><path clip-path="url(#clip260)" d="M1840.83 17.6457 Q1831.92 17.6457 1826.65 24.2892 Q1821.43 30.9327 1821.43 42.3968 Q1821.43 53.8203 1826.65 60.4638 Q1831.92 67.1073 1840.83 67.1073 Q1849.74 67.1073 1854.93 60.4638 Q1860.15 53.8203 1860.15 42.3968 Q1860.15 30.9327 1854.93 24.2892 Q1849.74 17.6457 1840.83 17.6457 M1840.83 11.0023 Q1853.55 11.0023 1861.17 19.5497 Q1868.78 28.0566 1868.78 42.3968 Q1868.78 56.6965 1861.17 65.2439 Q1853.55 73.7508 1840.83 73.7508 Q1828.07 73.7508 1820.41 65.2439 Q1812.8 56.737 1812.8 42.3968 Q1812.8 28.0566 1820.41 19.5497 Q1828.07 11.0023 1840.83 11.0023 Z" fill="#000000" fill-rule="nonzero" fill-opacity="1"></path><path clip-path="url(#clip260)" d="M1888.47 65.7705 L1888.47 89.8329 L1880.98 89.8329 L1880.98 27.2059 L1888.47 27.2059 L1888.47 34.0924 Q1890.82 30.0415 1894.38 28.0971 Q1897.99 26.1121 1902.97 26.1121 Q1911.24 26.1121 1916.38 32.6746 Q1921.57 39.2371 1921.57 49.9314 Q1921.57 60.6258 1916.38 67.1883 Q1911.24 73.7508 1902.97 73.7508 Q1897.99 73.7508 1894.38 71.8063 Q1890.82 69.8214 1888.47 65.7705 M1913.83 49.9314 Q1913.83 41.7081 1910.43 37.0496 Q1907.06 32.3505 1901.15 32.3505 Q1895.23 32.3505 1891.83 37.0496 Q1888.47 41.7081 1888.47 49.9314 Q1888.47 58.1548 1891.83 62.8538 Q1895.23 67.5124 1901.15 67.5124 Q1907.06 67.5124 1910.43 62.8538 Q1913.83 58.1548 1913.83 49.9314 Z" fill="#000000" fill-rule="nonzero" fill-opacity="1"></path><path clip-path="url(#clip260)" d="M1941.29 14.324 L1941.29 27.2059 L1956.65 27.2059 L1956.65 32.9987 L1941.29 32.9987 L1941.29 57.6282 Q1941.29 63.1779 1942.79 64.7578 Q1944.33 66.3376 1948.99 66.3376 L1956.65 66.3376 L1956.65 72.576 L1948.99 72.576 Q1940.36 72.576 1937.08 69.3758 Q1933.8 66.1351 1933.8 57.6282 L1933.8 32.9987 L1928.33 32.9987 L1928.33 27.2059 L1933.8 27.2059 L1933.8 14.324 L1941.29 14.324 Z" fill="#000000" fill-rule="nonzero" fill-opacity="1"></path><path clip-path="url(#clip260)" d="M1966.45 27.2059 L1973.9 27.2059 L1973.9 72.576 L1966.45 72.576 L1966.45 27.2059 M1966.45 9.54393 L1973.9 9.54393 L1973.9 18.9825 L1966.45 18.9825 L1966.45 9.54393 Z" fill="#000000" fill-rule="nonzero" fill-opacity="1"></path><path clip-path="url(#clip260)" d="M2024.82 35.9153 Q2027.62 30.8922 2031.51 28.5022 Q2035.4 26.1121 2040.66 26.1121 Q2047.75 26.1121 2051.6 31.0947 Q2055.45 36.0368 2055.45 45.1919 L2055.45 72.576 L2047.95 72.576 L2047.95 45.4349 Q2047.95 38.913 2045.64 35.7533 Q2043.34 32.5936 2038.6 32.5936 Q2032.8 32.5936 2029.44 36.4419 Q2026.08 40.2903 2026.08 46.9338 L2026.08 72.576 L2018.58 72.576 L2018.58 45.4349 Q2018.58 38.8725 2016.28 35.7533 Q2013.97 32.5936 2009.15 32.5936 Q2003.43 32.5936 2000.07 36.4824 Q1996.71 40.3308 1996.71 46.9338 L1996.71 72.576 L1989.22 72.576 L1989.22 27.2059 L1996.71 27.2059 L1996.71 34.2544 Q1999.26 30.082 2002.83 28.0971 Q2006.39 26.1121 2011.29 26.1121 Q2016.23 26.1121 2019.68 28.6237 Q2023.16 31.1352 2024.82 35.9153 Z" fill="#000000" fill-rule="nonzero" fill-opacity="1"></path><path clip-path="url(#clip260)" d="M2090.93 49.7694 Q2081.9 49.7694 2078.42 51.8354 Q2074.93 53.9013 2074.93 58.8839 Q2074.93 62.8538 2077.53 65.2034 Q2080.16 67.5124 2084.65 67.5124 Q2090.85 67.5124 2094.58 63.1374 Q2098.35 58.7219 2098.35 51.4303 L2098.35 49.7694 L2090.93 49.7694 M2105.8 46.6907 L2105.8 72.576 L2098.35 72.576 L2098.35 65.6895 Q2095.79 69.8214 2091.99 71.8063 Q2088.18 73.7508 2082.67 73.7508 Q2075.7 73.7508 2071.57 69.8619 Q2067.48 65.9325 2067.48 59.3701 Q2067.48 51.7138 2072.58 47.825 Q2077.73 43.9361 2087.9 43.9361 L2098.35 43.9361 L2098.35 43.2069 Q2098.35 38.0623 2094.94 35.2672 Q2091.58 32.4315 2085.46 32.4315 Q2081.58 32.4315 2077.89 33.3632 Q2074.2 34.295 2070.8 36.1584 L2070.8 29.2718 Q2074.89 27.692 2078.74 26.9223 Q2082.59 26.1121 2086.23 26.1121 Q2096.08 26.1121 2100.94 31.2163 Q2105.8 36.3204 2105.8 46.6907 Z" fill="#000000" fill-rule="nonzero" fill-opacity="1"></path><path clip-path="url(#clip260)" d="M2121.15 9.54393 L2128.61 9.54393 L2128.61 72.576 L2121.15 72.576 L2121.15 9.54393 Z" fill="#000000" fill-rule="nonzero" fill-opacity="1"></path><path clip-path="url(#clip260)" d="M2207.15 14.0809 L2207.15 22.0612 Q2202.5 19.8332 2198.36 18.7395 Q2194.23 17.6457 2190.38 17.6457 Q2183.7 17.6457 2180.05 20.2383 Q2176.45 22.8309 2176.45 27.611 Q2176.45 31.6214 2178.84 33.6873 Q2181.27 35.7128 2187.99 36.9686 L2192.94 37.9813 Q2202.09 39.7232 2206.42 44.1387 Q2210.8 48.5136 2210.8 55.8863 Q2210.8 64.6767 2204.89 69.2137 Q2199.01 73.7508 2187.63 73.7508 Q2183.33 73.7508 2178.47 72.7785 Q2173.65 71.8063 2168.47 69.9024 L2168.47 61.4765 Q2173.45 64.2716 2178.23 65.6895 Q2183.01 67.1073 2187.63 67.1073 Q2194.64 67.1073 2198.44 64.3527 Q2202.25 61.598 2202.25 56.4939 Q2202.25 52.0379 2199.5 49.5264 Q2196.78 47.0148 2190.55 45.759 L2185.56 44.7868 Q2176.41 42.9639 2172.32 39.075 Q2168.22 35.1862 2168.22 28.2591 Q2168.22 20.2383 2173.86 15.6203 Q2179.53 11.0023 2189.45 11.0023 Q2193.7 11.0023 2198.12 11.7719 Q2202.54 12.5416 2207.15 14.0809 Z" fill="#000000" fill-rule="nonzero" fill-opacity="1"></path><path clip-path="url(#clip260)" d="M2240.82 32.4315 Q2234.82 32.4315 2231.34 37.1306 Q2227.85 41.7891 2227.85 49.9314 Q2227.85 58.0738 2231.3 62.7728 Q2234.78 67.4314 2240.82 67.4314 Q2246.77 67.4314 2250.26 62.7323 Q2253.74 58.0333 2253.74 49.9314 Q2253.74 41.8701 2250.26 37.1711 Q2246.77 32.4315 2240.82 32.4315 M2240.82 26.1121 Q2250.54 26.1121 2256.09 32.4315 Q2261.64 38.7509 2261.64 49.9314 Q2261.64 61.0714 2256.09 67.4314 Q2250.54 73.7508 2240.82 73.7508 Q2231.05 73.7508 2225.5 67.4314 Q2220 61.0714 2220 49.9314 Q2220 38.7509 2225.5 32.4315 Q2231.05 26.1121 2240.82 26.1121 Z" fill="#000000" fill-rule="nonzero" fill-opacity="1"></path><path clip-path="url(#clip260)" d="M2273.99 9.54393 L2281.45 9.54393 L2281.45 72.576 L2273.99 72.576 L2273.99 9.54393 Z" fill="#000000" fill-rule="nonzero" fill-opacity="1"></path><path clip-path="url(#clip260)" d="M2296.27 54.671 L2296.27 27.2059 L2303.73 27.2059 L2303.73 54.3874 Q2303.73 60.8284 2306.24 64.0691 Q2308.75 67.2693 2313.77 67.2693 Q2319.81 67.2693 2323.29 63.421 Q2326.82 59.5726 2326.82 52.9291 L2326.82 27.2059 L2334.27 27.2059 L2334.27 72.576 L2326.82 72.576 L2326.82 65.6084 Q2324.1 69.7404 2320.5 71.7658 Q2316.93 73.7508 2312.19 73.7508 Q2304.38 73.7508 2300.32 68.8897 Q2296.27 64.0286 2296.27 54.671 M2315.03 26.1121 L2315.03 26.1121 Z" fill="#000000" fill-rule="nonzero" fill-opacity="1"></path><path clip-path="url(#clip260)" d="M2357 14.324 L2357 27.2059 L2372.35 27.2059 L2372.35 32.9987 L2357 32.9987 L2357 57.6282 Q2357 63.1779 2358.5 64.7578 Q2360.04 66.3376 2364.69 66.3376 L2372.35 66.3376 L2372.35 72.576 L2364.69 72.576 Q2356.07 72.576 2352.78 69.3758 Q2349.5 66.1351 2349.5 57.6282 L2349.5 32.9987 L2344.03 32.9987 L2344.03 27.2059 L2349.5 27.2059 L2349.5 14.324 L2357 14.324 Z" fill="#000000" fill-rule="nonzero" fill-opacity="1"></path><path clip-path="url(#clip260)" d="M2382.15 27.2059 L2389.61 27.2059 L2389.61 72.576 L2382.15 72.576 L2382.15 27.2059 M2382.15 9.54393 L2389.61 9.54393 L2389.61 18.9825 L2382.15 18.9825 L2382.15 9.54393 Z" fill="#000000" fill-rule="nonzero" fill-opacity="1"></path><path clip-path="url(#clip260)" d="M2422.78 32.4315 Q2416.79 32.4315 2413.3 37.1306 Q2409.82 41.7891 2409.82 49.9314 Q2409.82 58.0738 2413.26 62.7728 Q2416.75 67.4314 2422.78 67.4314 Q2428.74 67.4314 2432.22 62.7323 Q2435.71 58.0333 2435.71 49.9314 Q2435.71 41.8701 2432.22 37.1711 Q2428.74 32.4315 2422.78 32.4315 M2422.78 26.1121 Q2432.51 26.1121 2438.06 32.4315 Q2443.61 38.7509 2443.61 49.9314 Q2443.61 61.0714 2438.06 67.4314 Q2432.51 73.7508 2422.78 73.7508 Q2413.02 73.7508 2407.47 67.4314 Q2401.96 61.0714 2401.96 49.9314 Q2401.96 38.7509 2407.47 32.4315 Q2413.02 26.1121 2422.78 26.1121 Z" fill="#000000" fill-rule="nonzero" fill-opacity="1"></path><path clip-path="url(#clip260)" d="M2493.67 45.1919 L2493.67 72.576 L2486.22 72.576 L2486.22 45.4349 Q2486.22 38.994 2483.71 35.7938 Q2481.2 32.5936 2476.17 32.5936 Q2470.14 32.5936 2466.65 36.4419 Q2463.17 40.2903 2463.17 46.9338 L2463.17 72.576 L2455.68 72.576 L2455.68 27.2059 L2463.17 27.2059 L2463.17 34.2544 Q2465.84 30.163 2469.45 28.1376 Q2473.1 26.1121 2477.84 26.1121 Q2485.65 26.1121 2489.66 30.9732 Q2493.67 35.7938 2493.67 45.1919 Z" fill="#000000" fill-rule="nonzero" fill-opacity="1"></path><polyline clip-path="url(#clip262)" style="stroke:#009af9; stroke-linecap:round; stroke-linejoin:round; stroke-width:4; stroke-opacity:1; fill:none" points="202.227,903.297 417.28,968.282 632.333,1033.27 847.386,1098.25 1062.44,1163.24 1277.49,1228.22 1492.54,1293.21 1707.6,1358.19 1922.65,1423.18 2137.7,1488.17 2352.76,1553.15 "></polyline>
<polyline clip-path="url(#clip262)" style="stroke:#e26f46; stroke-linecap:round; stroke-linejoin:round; stroke-width:4; stroke-opacity:1; fill:none" points="1062.44,1423.18 1062.44,123.472 "></polyline>
<polyline clip-path="url(#clip262)" style="stroke:#3da44d; stroke-linecap:round; stroke-linejoin:round; stroke-width:4; stroke-opacity:1; fill:none" points="202.227,1033.27 417.28,1033.27 632.333,1033.27 847.386,1033.27 1062.44,1033.27 1277.49,1033.27 1492.54,1033.27 1707.6,1033.27 1922.65,1033.27 2137.7,1033.27 2352.76,1033.27 "></polyline>
<path clip-path="url(#clip262)" d="M202.227 1033.27 L417.28 1033.27 L632.333 1033.27 L847.386 1098.25 L1062.44 1163.24 L1277.49 1228.22 L1492.54 1293.21 L1707.6 1358.19 L1922.65 1423.18 L2137.7 1488.17 L2352.76 1553.15 L2352.76 1423.18 L2137.7 1423.18 L1922.65 1423.18 L1707.6 1423.18 L1492.54 1423.18 L1277.49 1423.18 L1062.44 1423.18 L847.386 1423.18 L632.333 1423.18 L417.28 1423.18 L202.227 1423.18  Z" fill="#808080" fill-rule="evenodd" fill-opacity="0.2"></path>
<polyline clip-path="url(#clip262)" style="stroke:#808080; stroke-linecap:round; stroke-linejoin:round; stroke-width:4; stroke-opacity:1; fill:none" points="202.227,1033.27 417.28,1033.27 632.333,1033.27 847.386,1098.25 1062.44,1163.24 1277.49,1228.22 1492.54,1293.21 1707.6,1358.19 1922.65,1423.18 2137.7,1488.17 2352.76,1553.15 "></polyline>
<circle clip-path="url(#clip262)" cx="1062.44" cy="1163.24" r="21.6" fill="#ff0000" fill-rule="evenodd" fill-opacity="1" stroke="#000000" stroke-opacity="1" stroke-width="3.2"></circle>
<path clip-path="url(#clip260)" d="M1657.36 477.836 L2281.07 477.836 L2281.07 166.796 L1657.36 166.796  Z" fill="#ffffff" fill-rule="evenodd" fill-opacity="1"></path>
<polyline clip-path="url(#clip260)" style="stroke:#000000; stroke-linecap:round; stroke-linejoin:round; stroke-width:4; stroke-opacity:1; fill:none" points="1657.36,477.836 2281.07,477.836 2281.07,166.796 1657.36,166.796 1657.36,477.836 "></polyline>
<polyline clip-path="url(#clip260)" style="stroke:#009af9; stroke-linecap:round; stroke-linejoin:round; stroke-width:4; stroke-opacity:1; fill:none" points="1681.26,218.636 1824.63,218.636 "></polyline>
<path clip-path="url(#clip260)" d="M1849.19 231.981 L1856.83 231.981 L1856.83 205.615 L1848.52 207.282 L1848.52 203.022 L1856.79 201.356 L1861.46 201.356 L1861.46 231.981 L1869.1 231.981 L1869.1 235.916 L1849.19 235.916 L1849.19 231.981 Z" fill="#000000" fill-rule="nonzero" fill-opacity="1"></path><path clip-path="url(#clip260)" d="M1899.49 209.99 L1890.12 222.606 L1899.98 235.916 L1894.96 235.916 L1887.41 225.731 L1879.86 235.916 L1874.84 235.916 L1884.91 222.351 L1875.7 209.99 L1880.72 209.99 L1887.6 219.226 L1894.47 209.99 L1899.49 209.99 Z" fill="#000000" fill-rule="nonzero" fill-opacity="1"></path><path clip-path="url(#clip260)" d="M1907.41 231.981 L1915.05 231.981 L1915.05 205.615 L1906.74 207.282 L1906.74 203.022 L1915 201.356 L1919.68 201.356 L1919.68 231.981 L1927.32 231.981 L1927.32 235.916 L1907.41 235.916 L1907.41 231.981 Z" fill="#000000" fill-rule="nonzero" fill-opacity="1"></path><path clip-path="url(#clip260)" d="M1968.57 206.194 L1968.57 219.087 L1981.46 219.087 L1981.46 223.022 L1968.57 223.022 L1968.57 235.916 L1964.68 235.916 L1964.68 223.022 L1951.78 223.022 L1951.78 219.087 L1964.68 219.087 L1964.68 206.194 L1968.57 206.194 Z" fill="#000000" fill-rule="nonzero" fill-opacity="1"></path><path clip-path="url(#clip260)" d="M2010.65 231.981 L2026.97 231.981 L2026.97 235.916 L2005.03 235.916 L2005.03 231.981 Q2007.69 229.226 2012.27 224.596 Q2016.88 219.944 2018.06 218.601 Q2020.3 216.078 2021.18 214.342 Q2022.09 212.583 2022.09 210.893 Q2022.09 208.138 2020.14 206.402 Q2018.22 204.666 2015.12 204.666 Q2012.92 204.666 2010.47 205.43 Q2008.03 206.194 2005.26 207.745 L2005.26 203.022 Q2008.08 201.888 2010.53 201.309 Q2012.99 200.731 2015.03 200.731 Q2020.4 200.731 2023.59 203.416 Q2026.78 206.101 2026.78 210.592 Q2026.78 212.721 2025.97 214.643 Q2025.19 216.541 2023.08 219.133 Q2022.5 219.805 2019.4 223.022 Q2016.3 226.217 2010.65 231.981 Z" fill="#000000" fill-rule="nonzero" fill-opacity="1"></path><path clip-path="url(#clip260)" d="M2057.73 209.99 L2048.36 222.606 L2058.22 235.916 L2053.2 235.916 L2045.65 225.731 L2038.1 235.916 L2033.08 235.916 L2043.15 222.351 L2033.94 209.99 L2038.96 209.99 L2045.84 219.226 L2052.71 209.99 L2057.73 209.99 Z" fill="#000000" fill-rule="nonzero" fill-opacity="1"></path><path clip-path="url(#clip260)" d="M2068.87 231.981 L2085.19 231.981 L2085.19 235.916 L2063.24 235.916 L2063.24 231.981 Q2065.9 229.226 2070.49 224.596 Q2075.09 219.944 2076.28 218.601 Q2078.52 216.078 2079.4 214.342 Q2080.3 212.583 2080.3 210.893 Q2080.3 208.138 2078.36 206.402 Q2076.44 204.666 2073.34 204.666 Q2071.14 204.666 2068.68 205.43 Q2066.25 206.194 2063.47 207.745 L2063.47 203.022 Q2066.3 201.888 2068.75 201.309 Q2071.21 200.731 2073.24 200.731 Q2078.61 200.731 2081.81 203.416 Q2085 206.101 2085 210.592 Q2085 212.721 2084.19 214.643 Q2083.4 216.541 2081.3 219.133 Q2080.72 219.805 2077.62 223.022 Q2074.52 226.217 2068.87 231.981 Z" fill="#000000" fill-rule="nonzero" fill-opacity="1"></path><path clip-path="url(#clip260)" d="M2139.7 212.583 L2115.81 221.078 L2139.7 229.527 L2139.7 233.74 L2110.02 222.976 L2110.02 219.133 L2139.7 208.37 L2139.7 212.583 Z" fill="#000000" fill-rule="nonzero" fill-opacity="1"></path><path clip-path="url(#clip260)" d="M2149.75 214.388 L2179.42 214.388 L2179.42 218.277 L2149.75 218.277 L2149.75 214.388 M2149.75 223.832 L2179.42 223.832 L2179.42 227.768 L2149.75 227.768 L2149.75 223.832 Z" fill="#000000" fill-rule="nonzero" fill-opacity="1"></path><path clip-path="url(#clip260)" d="M2214.58 219.504 Q2211.25 219.504 2209.33 221.286 Q2207.43 223.069 2207.43 226.194 Q2207.43 229.319 2209.33 231.101 Q2211.25 232.883 2214.58 232.883 Q2217.92 232.883 2219.84 231.101 Q2221.76 229.295 2221.76 226.194 Q2221.76 223.069 2219.84 221.286 Q2217.94 219.504 2214.58 219.504 M2209.91 217.513 Q2206.9 216.772 2205.21 214.712 Q2203.54 212.652 2203.54 209.689 Q2203.54 205.546 2206.48 203.138 Q2209.45 200.731 2214.58 200.731 Q2219.75 200.731 2222.69 203.138 Q2225.63 205.546 2225.63 209.689 Q2225.63 212.652 2223.94 214.712 Q2222.27 216.772 2219.28 217.513 Q2222.66 218.3 2224.54 220.592 Q2226.44 222.883 2226.44 226.194 Q2226.44 231.217 2223.36 233.902 Q2220.3 236.587 2214.58 236.587 Q2208.87 236.587 2205.79 233.902 Q2202.73 231.217 2202.73 226.194 Q2202.73 222.883 2204.63 220.592 Q2206.53 218.3 2209.91 217.513 M2208.2 210.129 Q2208.2 212.814 2209.86 214.319 Q2211.55 215.823 2214.58 215.823 Q2217.59 215.823 2219.28 214.319 Q2221 212.814 2221 210.129 Q2221 207.444 2219.28 205.939 Q2217.59 204.434 2214.58 204.434 Q2211.55 204.434 2209.86 205.939 Q2208.2 207.444 2208.2 210.129 Z" fill="#000000" fill-rule="nonzero" fill-opacity="1"></path><polyline clip-path="url(#clip260)" style="stroke:#e26f46; stroke-linecap:round; stroke-linejoin:round; stroke-width:4; stroke-opacity:1; fill:none" points="1681.26,270.476 1824.63,270.476 "></polyline>
<path clip-path="url(#clip260)" d="M1873.17 261.83 L1863.8 274.446 L1873.66 287.756 L1868.64 287.756 L1861.09 277.571 L1853.54 287.756 L1848.52 287.756 L1858.59 274.191 L1849.38 261.83 L1854.4 261.83 L1861.28 271.066 L1868.15 261.83 L1873.17 261.83 Z" fill="#000000" fill-rule="nonzero" fill-opacity="1"></path><path clip-path="url(#clip260)" d="M1881.09 283.821 L1888.73 283.821 L1888.73 257.455 L1880.42 259.122 L1880.42 254.862 L1888.68 253.196 L1893.36 253.196 L1893.36 283.821 L1901 283.821 L1901 287.756 L1881.09 287.756 L1881.09 283.821 Z" fill="#000000" fill-rule="nonzero" fill-opacity="1"></path><path clip-path="url(#clip260)" d="M1925.47 266.228 L1955.14 266.228 L1955.14 270.117 L1925.47 270.117 L1925.47 266.228 M1925.47 275.672 L1955.14 275.672 L1955.14 279.608 L1925.47 279.608 L1925.47 275.672 Z" fill="#000000" fill-rule="nonzero" fill-opacity="1"></path><path clip-path="url(#clip260)" d="M1993.15 257.27 L1981.35 275.719 L1993.15 275.719 L1993.15 257.27 M1991.92 253.196 L1997.8 253.196 L1997.8 275.719 L2002.73 275.719 L2002.73 279.608 L1997.8 279.608 L1997.8 287.756 L1993.15 287.756 L1993.15 279.608 L1977.55 279.608 L1977.55 275.094 L1991.92 253.196 Z" fill="#000000" fill-rule="nonzero" fill-opacity="1"></path><path clip-path="url(#clip260)" d="M2010.47 281.876 L2015.35 281.876 L2015.35 287.756 L2010.47 287.756 L2010.47 281.876 Z" fill="#000000" fill-rule="nonzero" fill-opacity="1"></path><path clip-path="url(#clip260)" d="M2035.53 256.274 Q2031.92 256.274 2030.09 259.839 Q2028.29 263.381 2028.29 270.51 Q2028.29 277.617 2030.09 281.182 Q2031.92 284.723 2035.53 284.723 Q2039.17 284.723 2040.97 281.182 Q2042.8 277.617 2042.8 270.51 Q2042.8 263.381 2040.97 259.839 Q2039.17 256.274 2035.53 256.274 M2035.53 252.571 Q2041.34 252.571 2044.4 257.177 Q2047.48 261.76 2047.48 270.51 Q2047.48 279.237 2044.4 283.844 Q2041.34 288.427 2035.53 288.427 Q2029.72 288.427 2026.65 283.844 Q2023.59 279.237 2023.59 270.51 Q2023.59 261.76 2026.65 257.177 Q2029.72 252.571 2035.53 252.571 Z" fill="#000000" fill-rule="nonzero" fill-opacity="1"></path><polyline clip-path="url(#clip260)" style="stroke:#3da44d; stroke-linecap:round; stroke-linejoin:round; stroke-width:4; stroke-opacity:1; fill:none" points="1681.26,322.316 1824.63,322.316 "></polyline>
<path clip-path="url(#clip260)" d="M1860.47 308.114 Q1856.85 308.114 1855.03 311.679 Q1853.22 315.221 1853.22 322.35 Q1853.22 329.457 1855.03 333.022 Q1856.85 336.563 1860.47 336.563 Q1864.1 336.563 1865.91 333.022 Q1867.73 329.457 1867.73 322.35 Q1867.73 315.221 1865.91 311.679 Q1864.1 308.114 1860.47 308.114 M1860.47 304.411 Q1866.28 304.411 1869.33 309.017 Q1872.41 313.6 1872.41 322.35 Q1872.41 331.077 1869.33 335.684 Q1866.28 340.267 1860.47 340.267 Q1854.66 340.267 1851.58 335.684 Q1848.52 331.077 1848.52 322.35 Q1848.52 313.6 1851.58 309.017 Q1854.66 304.411 1860.47 304.411 Z" fill="#000000" fill-rule="nonzero" fill-opacity="1"></path><path clip-path="url(#clip260)" d="M1901.58 313.67 L1892.2 326.286 L1902.06 339.596 L1897.04 339.596 L1889.49 329.411 L1881.95 339.596 L1876.92 339.596 L1886.99 326.031 L1877.78 313.67 L1882.8 313.67 L1889.68 322.906 L1896.55 313.67 L1901.58 313.67 Z" fill="#000000" fill-rule="nonzero" fill-opacity="1"></path><path clip-path="url(#clip260)" d="M1909.49 335.661 L1917.13 335.661 L1917.13 309.295 L1908.82 310.962 L1908.82 306.702 L1917.09 305.036 L1921.76 305.036 L1921.76 335.661 L1929.4 335.661 L1929.4 339.596 L1909.49 339.596 L1909.49 335.661 Z" fill="#000000" fill-rule="nonzero" fill-opacity="1"></path><path clip-path="url(#clip260)" d="M1970.65 309.874 L1970.65 322.767 L1983.54 322.767 L1983.54 326.702 L1970.65 326.702 L1970.65 339.596 L1966.76 339.596 L1966.76 326.702 L1953.87 326.702 L1953.87 322.767 L1966.76 322.767 L1966.76 309.874 L1970.65 309.874 Z" fill="#000000" fill-rule="nonzero" fill-opacity="1"></path><path clip-path="url(#clip260)" d="M2021.55 309.11 L2009.75 327.559 L2021.55 327.559 L2021.55 309.11 M2020.33 305.036 L2026.21 305.036 L2026.21 327.559 L2031.14 327.559 L2031.14 331.448 L2026.21 331.448 L2026.21 339.596 L2021.55 339.596 L2021.55 331.448 L2005.95 331.448 L2005.95 326.934 L2020.33 305.036 Z" fill="#000000" fill-rule="nonzero" fill-opacity="1"></path><path clip-path="url(#clip260)" d="M2059.82 313.67 L2050.44 326.286 L2060.3 339.596 L2055.28 339.596 L2047.73 329.411 L2040.19 339.596 L2035.16 339.596 L2045.23 326.031 L2036.02 313.67 L2041.04 313.67 L2047.92 322.906 L2054.79 313.67 L2059.82 313.67 Z" fill="#000000" fill-rule="nonzero" fill-opacity="1"></path><path clip-path="url(#clip260)" d="M2070.95 335.661 L2087.27 335.661 L2087.27 339.596 L2065.33 339.596 L2065.33 335.661 Q2067.99 332.906 2072.57 328.276 Q2077.18 323.624 2078.36 322.281 Q2080.6 319.758 2081.48 318.022 Q2082.39 316.263 2082.39 314.573 Q2082.39 311.818 2080.44 310.082 Q2078.52 308.346 2075.42 308.346 Q2073.22 308.346 2070.77 309.11 Q2068.34 309.874 2065.56 311.425 L2065.56 306.702 Q2068.38 305.568 2070.84 304.989 Q2073.29 304.411 2075.33 304.411 Q2080.7 304.411 2083.89 307.096 Q2087.09 309.781 2087.09 314.272 Q2087.09 316.401 2086.28 318.323 Q2085.49 320.221 2083.38 322.813 Q2082.8 323.485 2079.7 326.702 Q2076.6 329.897 2070.95 335.661 Z" fill="#000000" fill-rule="nonzero" fill-opacity="1"></path><path clip-path="url(#clip260)" d="M2141.78 316.263 L2117.9 324.758 L2141.78 333.207 L2141.78 337.42 L2112.11 326.656 L2112.11 322.813 L2141.78 312.05 L2141.78 316.263 Z" fill="#000000" fill-rule="nonzero" fill-opacity="1"></path><path clip-path="url(#clip260)" d="M2151.83 318.068 L2181.51 318.068 L2181.51 321.957 L2151.83 321.957 L2151.83 318.068 M2151.83 327.512 L2181.51 327.512 L2181.51 331.448 L2151.83 331.448 L2151.83 327.512 Z" fill="#000000" fill-rule="nonzero" fill-opacity="1"></path><path clip-path="url(#clip260)" d="M2207.48 335.661 L2215.12 335.661 L2215.12 309.295 L2206.81 310.962 L2206.81 306.702 L2215.07 305.036 L2219.75 305.036 L2219.75 335.661 L2227.39 335.661 L2227.39 339.596 L2207.48 339.596 L2207.48 335.661 Z" fill="#000000" fill-rule="nonzero" fill-opacity="1"></path><path clip-path="url(#clip260)" d="M2240.86 335.661 L2257.18 335.661 L2257.18 339.596 L2235.23 339.596 L2235.23 335.661 Q2237.89 332.906 2242.48 328.276 Q2247.08 323.624 2248.26 322.281 Q2250.51 319.758 2251.39 318.022 Q2252.29 316.263 2252.29 314.573 Q2252.29 311.818 2250.35 310.082 Q2248.43 308.346 2245.33 308.346 Q2243.13 308.346 2240.67 309.11 Q2238.24 309.874 2235.46 311.425 L2235.46 306.702 Q2238.29 305.568 2240.74 304.989 Q2243.2 304.411 2245.23 304.411 Q2250.6 304.411 2253.8 307.096 Q2256.99 309.781 2256.99 314.272 Q2256.99 316.401 2256.18 318.323 Q2255.39 320.221 2253.29 322.813 Q2252.71 323.485 2249.61 326.702 Q2246.51 329.897 2240.86 335.661 Z" fill="#000000" fill-rule="nonzero" fill-opacity="1"></path><path clip-path="url(#clip260)" d="M1681.26 394.892 L1824.63 394.892 L1824.63 353.42 L1681.26 353.42 L1681.26 394.892  Z" fill="#808080" fill-rule="evenodd" fill-opacity="0.2"></path>
<polyline clip-path="url(#clip260)" style="stroke:#808080; stroke-linecap:round; stroke-linejoin:round; stroke-width:4; stroke-opacity:1; fill:none" points="1681.26,353.42 1824.63,353.42 "></polyline>
<path clip-path="url(#clip260)" d="M1848.52 356.876 L1868.38 356.876 L1868.38 360.811 L1853.2 360.811 L1853.2 370.996 L1866.9 370.996 L1866.9 374.931 L1853.2 374.931 L1853.2 391.436 L1848.52 391.436 L1848.52 356.876 Z" fill="#000000" fill-rule="nonzero" fill-opacity="1"></path><path clip-path="url(#clip260)" d="M1895.19 377.408 L1895.19 379.491 L1875.6 379.491 Q1875.88 383.889 1878.24 386.204 Q1880.63 388.496 1884.86 388.496 Q1887.32 388.496 1889.61 387.894 Q1891.92 387.292 1894.19 386.089 L1894.19 390.116 Q1891.9 391.088 1889.49 391.598 Q1887.09 392.107 1884.61 392.107 Q1878.41 392.107 1874.77 388.496 Q1871.16 384.885 1871.16 378.727 Q1871.16 372.362 1874.59 368.635 Q1878.04 364.885 1883.87 364.885 Q1889.1 364.885 1892.13 368.265 Q1895.19 371.621 1895.19 377.408 M1890.93 376.158 Q1890.88 372.663 1888.96 370.579 Q1887.06 368.496 1883.91 368.496 Q1880.35 368.496 1878.2 370.51 Q1876.07 372.524 1875.74 376.181 L1890.93 376.158 Z" fill="#000000" fill-rule="nonzero" fill-opacity="1"></path><path clip-path="url(#clip260)" d="M1913.96 378.403 Q1908.8 378.403 1906.81 379.584 Q1904.82 380.764 1904.82 383.612 Q1904.82 385.88 1906.3 387.223 Q1907.8 388.542 1910.37 388.542 Q1913.91 388.542 1916.04 386.042 Q1918.2 383.519 1918.2 379.352 L1918.2 378.403 L1913.96 378.403 M1922.46 376.644 L1922.46 391.436 L1918.2 391.436 L1918.2 387.501 Q1916.74 389.862 1914.56 390.996 Q1912.39 392.107 1909.24 392.107 Q1905.26 392.107 1902.9 389.885 Q1900.56 387.639 1900.56 383.889 Q1900.56 379.514 1903.48 377.292 Q1906.41 375.07 1912.23 375.07 L1918.2 375.07 L1918.2 374.653 Q1918.2 371.714 1916.25 370.116 Q1914.33 368.496 1910.84 368.496 Q1908.61 368.496 1906.51 369.028 Q1904.4 369.561 1902.46 370.626 L1902.46 366.69 Q1904.79 365.788 1906.99 365.348 Q1909.19 364.885 1911.28 364.885 Q1916.9 364.885 1919.68 367.802 Q1922.46 370.718 1922.46 376.644 Z" fill="#000000" fill-rule="nonzero" fill-opacity="1"></path><path clip-path="url(#clip260)" d="M1947.76 366.274 L1947.76 370.302 Q1945.95 369.376 1944.01 368.913 Q1942.06 368.45 1939.98 368.45 Q1936.81 368.45 1935.21 369.422 Q1933.64 370.394 1933.64 372.339 Q1933.64 373.82 1934.77 374.677 Q1935.91 375.51 1939.33 376.274 L1940.79 376.598 Q1945.33 377.57 1947.22 379.352 Q1949.15 381.112 1949.15 384.283 Q1949.15 387.894 1946.28 390.001 Q1943.43 392.107 1938.43 392.107 Q1936.35 392.107 1934.08 391.69 Q1931.83 391.297 1929.33 390.487 L1929.33 386.089 Q1931.69 387.315 1933.98 387.94 Q1936.28 388.542 1938.52 388.542 Q1941.53 388.542 1943.15 387.524 Q1944.77 386.482 1944.77 384.607 Q1944.77 382.871 1943.59 381.945 Q1942.43 381.019 1938.47 380.163 L1936.99 379.815 Q1933.04 378.982 1931.28 377.269 Q1929.52 375.533 1929.52 372.524 Q1929.52 368.866 1932.11 366.876 Q1934.7 364.885 1939.47 364.885 Q1941.83 364.885 1943.91 365.232 Q1946 365.579 1947.76 366.274 Z" fill="#000000" fill-rule="nonzero" fill-opacity="1"></path><path clip-path="url(#clip260)" d="M1955.93 365.51 L1960.19 365.51 L1960.19 391.436 L1955.93 391.436 L1955.93 365.51 M1955.93 355.417 L1960.19 355.417 L1960.19 360.811 L1955.93 360.811 L1955.93 355.417 Z" fill="#000000" fill-rule="nonzero" fill-opacity="1"></path><path clip-path="url(#clip260)" d="M1987.71 378.496 Q1987.71 373.797 1985.77 371.135 Q1983.84 368.45 1980.47 368.45 Q1977.09 368.45 1975.14 371.135 Q1973.22 373.797 1973.22 378.496 Q1973.22 383.195 1975.14 385.88 Q1977.09 388.542 1980.47 388.542 Q1983.84 388.542 1985.77 385.88 Q1987.71 383.195 1987.71 378.496 M1973.22 369.445 Q1974.56 367.13 1976.6 366.019 Q1978.66 364.885 1981.51 364.885 Q1986.23 364.885 1989.17 368.635 Q1992.13 372.385 1992.13 378.496 Q1992.13 384.607 1989.17 388.357 Q1986.23 392.107 1981.51 392.107 Q1978.66 392.107 1976.6 390.996 Q1974.56 389.862 1973.22 387.547 L1973.22 391.436 L1968.94 391.436 L1968.94 355.417 L1973.22 355.417 L1973.22 369.445 Z" fill="#000000" fill-rule="nonzero" fill-opacity="1"></path><path clip-path="url(#clip260)" d="M1999.19 355.417 L2003.45 355.417 L2003.45 391.436 L1999.19 391.436 L1999.19 355.417 Z" fill="#000000" fill-rule="nonzero" fill-opacity="1"></path><path clip-path="url(#clip260)" d="M2034.54 377.408 L2034.54 379.491 L2014.96 379.491 Q2015.23 383.889 2017.59 386.204 Q2019.98 388.496 2024.22 388.496 Q2026.67 388.496 2028.96 387.894 Q2031.28 387.292 2033.54 386.089 L2033.54 390.116 Q2031.25 391.088 2028.84 391.598 Q2026.44 392.107 2023.96 392.107 Q2017.76 392.107 2014.12 388.496 Q2010.51 384.885 2010.51 378.727 Q2010.51 372.362 2013.94 368.635 Q2017.39 364.885 2023.22 364.885 Q2028.45 364.885 2031.48 368.265 Q2034.54 371.621 2034.54 377.408 M2030.28 376.158 Q2030.23 372.663 2028.31 370.579 Q2026.41 368.496 2023.27 368.496 Q2019.7 368.496 2017.55 370.51 Q2015.42 372.524 2015.09 376.181 L2030.28 376.158 Z" fill="#000000" fill-rule="nonzero" fill-opacity="1"></path><path clip-path="url(#clip260)" d="M2073.17 375.232 Q2074.68 375.741 2076.09 377.408 Q2077.53 379.075 2078.96 381.991 L2083.71 391.436 L2078.68 391.436 L2074.26 382.57 Q2072.55 379.098 2070.93 377.964 Q2069.33 376.829 2066.55 376.829 L2061.46 376.829 L2061.46 391.436 L2056.78 391.436 L2056.78 356.876 L2067.34 356.876 Q2073.27 356.876 2076.18 359.353 Q2079.1 361.829 2079.1 366.829 Q2079.1 370.093 2077.57 372.246 Q2076.07 374.399 2073.17 375.232 M2061.46 360.718 L2061.46 372.987 L2067.34 372.987 Q2070.72 372.987 2072.43 371.436 Q2074.17 369.862 2074.17 366.829 Q2074.17 363.797 2072.43 362.269 Q2070.72 360.718 2067.34 360.718 L2061.46 360.718 Z" fill="#000000" fill-rule="nonzero" fill-opacity="1"></path><path clip-path="url(#clip260)" d="M2109.59 377.408 L2109.59 379.491 L2090 379.491 Q2090.28 383.889 2092.64 386.204 Q2095.02 388.496 2099.26 388.496 Q2101.71 388.496 2104.01 387.894 Q2106.32 387.292 2108.59 386.089 L2108.59 390.116 Q2106.3 391.088 2103.89 391.598 Q2101.48 392.107 2099.01 392.107 Q2092.8 392.107 2089.17 388.496 Q2085.56 384.885 2085.56 378.727 Q2085.56 372.362 2088.98 368.635 Q2092.43 364.885 2098.27 364.885 Q2103.5 364.885 2106.53 368.265 Q2109.59 371.621 2109.59 377.408 M2105.33 376.158 Q2105.28 372.663 2103.36 370.579 Q2101.46 368.496 2098.31 368.496 Q2094.75 368.496 2092.59 370.51 Q2090.46 372.524 2090.14 376.181 L2105.33 376.158 Z" fill="#000000" fill-rule="nonzero" fill-opacity="1"></path><path clip-path="url(#clip260)" d="M2133.64 378.172 Q2133.64 373.542 2131.71 370.996 Q2129.82 368.45 2126.37 368.45 Q2122.94 368.45 2121.02 370.996 Q2119.12 373.542 2119.12 378.172 Q2119.12 382.778 2121.02 385.325 Q2122.94 387.871 2126.37 387.871 Q2129.82 387.871 2131.71 385.325 Q2133.64 382.778 2133.64 378.172 M2137.9 388.218 Q2137.9 394.838 2134.96 398.056 Q2132.02 401.297 2125.95 401.297 Q2123.71 401.297 2121.71 400.95 Q2119.72 400.625 2117.85 399.931 L2117.85 395.788 Q2119.72 396.806 2121.55 397.292 Q2123.38 397.778 2125.28 397.778 Q2129.47 397.778 2131.55 395.579 Q2133.64 393.403 2133.64 388.982 L2133.64 386.876 Q2132.32 389.167 2130.26 390.301 Q2128.2 391.436 2125.33 391.436 Q2120.56 391.436 2117.64 387.801 Q2114.72 384.167 2114.72 378.172 Q2114.72 372.153 2117.64 368.519 Q2120.56 364.885 2125.33 364.885 Q2128.2 364.885 2130.26 366.019 Q2132.32 367.153 2133.64 369.445 L2133.64 365.51 L2137.9 365.51 L2137.9 388.218 Z" fill="#000000" fill-rule="nonzero" fill-opacity="1"></path><path clip-path="url(#clip260)" d="M2146.67 365.51 L2150.93 365.51 L2150.93 391.436 L2146.67 391.436 L2146.67 365.51 M2146.67 355.417 L2150.93 355.417 L2150.93 360.811 L2146.67 360.811 L2146.67 355.417 Z" fill="#000000" fill-rule="nonzero" fill-opacity="1"></path><path clip-path="url(#clip260)" d="M2169.89 368.496 Q2166.46 368.496 2164.47 371.181 Q2162.48 373.843 2162.48 378.496 Q2162.48 383.149 2164.45 385.834 Q2166.44 388.496 2169.89 388.496 Q2173.29 388.496 2175.28 385.811 Q2177.27 383.126 2177.27 378.496 Q2177.27 373.89 2175.28 371.204 Q2173.29 368.496 2169.89 368.496 M2169.89 364.885 Q2175.44 364.885 2178.61 368.496 Q2181.78 372.107 2181.78 378.496 Q2181.78 384.862 2178.61 388.496 Q2175.44 392.107 2169.89 392.107 Q2164.31 392.107 2161.14 388.496 Q2157.99 384.862 2157.99 378.496 Q2157.99 372.107 2161.14 368.496 Q2164.31 364.885 2169.89 364.885 Z" fill="#000000" fill-rule="nonzero" fill-opacity="1"></path><path clip-path="url(#clip260)" d="M2210.39 375.788 L2210.39 391.436 L2206.14 391.436 L2206.14 375.927 Q2206.14 372.246 2204.7 370.417 Q2203.27 368.589 2200.39 368.589 Q2196.95 368.589 2194.95 370.788 Q2192.96 372.987 2192.96 376.783 L2192.96 391.436 L2188.68 391.436 L2188.68 365.51 L2192.96 365.51 L2192.96 369.538 Q2194.49 367.2 2196.55 366.042 Q2198.64 364.885 2201.34 364.885 Q2205.81 364.885 2208.1 367.663 Q2210.39 370.417 2210.39 375.788 Z" fill="#000000" fill-rule="nonzero" fill-opacity="1"></path><circle clip-path="url(#clip260)" cx="1752.94" cy="425.996" r="21.2677" fill="#ff0000" fill-rule="evenodd" fill-opacity="1" stroke="#000000" stroke-opacity="1" stroke-width="3.15077"></circle>
<path clip-path="url(#clip260)" d="M1864.54 411.887 Q1859.45 411.887 1856.44 415.683 Q1853.45 419.48 1853.45 426.03 Q1853.45 432.558 1856.44 436.354 Q1859.45 440.151 1864.54 440.151 Q1869.63 440.151 1872.6 436.354 Q1875.58 432.558 1875.58 426.03 Q1875.58 419.48 1872.6 415.683 Q1869.63 411.887 1864.54 411.887 M1864.54 408.091 Q1871.81 408.091 1876.16 412.975 Q1880.51 417.836 1880.51 426.03 Q1880.51 434.202 1876.16 439.086 Q1871.81 443.947 1864.54 443.947 Q1857.25 443.947 1852.87 439.086 Q1848.52 434.225 1848.52 426.03 Q1848.52 417.836 1852.87 412.975 Q1857.25 408.091 1864.54 408.091 Z" fill="#000000" fill-rule="nonzero" fill-opacity="1"></path><path clip-path="url(#clip260)" d="M1891.76 439.387 L1891.76 453.137 L1887.48 453.137 L1887.48 417.35 L1891.76 417.35 L1891.76 421.285 Q1893.1 418.97 1895.14 417.859 Q1897.2 416.725 1900.05 416.725 Q1904.77 416.725 1907.71 420.475 Q1910.67 424.225 1910.67 430.336 Q1910.67 436.447 1907.71 440.197 Q1904.77 443.947 1900.05 443.947 Q1897.2 443.947 1895.14 442.836 Q1893.1 441.702 1891.76 439.387 M1906.25 430.336 Q1906.25 425.637 1904.31 422.975 Q1902.39 420.29 1899.01 420.29 Q1895.63 420.29 1893.68 422.975 Q1891.76 425.637 1891.76 430.336 Q1891.76 435.035 1893.68 437.72 Q1895.63 440.382 1899.01 440.382 Q1902.39 440.382 1904.31 437.72 Q1906.25 435.035 1906.25 430.336 Z" fill="#000000" fill-rule="nonzero" fill-opacity="1"></path><path clip-path="url(#clip260)" d="M1921.95 409.989 L1921.95 417.35 L1930.72 417.35 L1930.72 420.66 L1921.95 420.66 L1921.95 434.734 Q1921.95 437.905 1922.8 438.808 Q1923.68 439.711 1926.35 439.711 L1930.72 439.711 L1930.72 443.276 L1926.35 443.276 Q1921.41 443.276 1919.54 441.447 Q1917.66 439.595 1917.66 434.734 L1917.66 420.66 L1914.54 420.66 L1914.54 417.35 L1917.66 417.35 L1917.66 409.989 L1921.95 409.989 Z" fill="#000000" fill-rule="nonzero" fill-opacity="1"></path><path clip-path="url(#clip260)" d="M1936.32 417.35 L1940.58 417.35 L1940.58 443.276 L1936.32 443.276 L1936.32 417.35 M1936.32 407.257 L1940.58 407.257 L1940.58 412.651 L1936.32 412.651 L1936.32 407.257 Z" fill="#000000" fill-rule="nonzero" fill-opacity="1"></path><path clip-path="url(#clip260)" d="M1969.68 422.327 Q1971.28 419.456 1973.5 418.091 Q1975.72 416.725 1978.73 416.725 Q1982.78 416.725 1984.98 419.572 Q1987.18 422.396 1987.18 427.628 L1987.18 443.276 L1982.9 443.276 L1982.9 427.767 Q1982.9 424.04 1981.58 422.234 Q1980.26 420.429 1977.55 420.429 Q1974.24 420.429 1972.32 422.628 Q1970.4 424.827 1970.4 428.623 L1970.4 443.276 L1966.11 443.276 L1966.11 427.767 Q1966.11 424.017 1964.79 422.234 Q1963.47 420.429 1960.72 420.429 Q1957.46 420.429 1955.53 422.651 Q1953.61 424.85 1953.61 428.623 L1953.61 443.276 L1949.33 443.276 L1949.33 417.35 L1953.61 417.35 L1953.61 421.378 Q1955.07 418.993 1957.11 417.859 Q1959.15 416.725 1961.95 416.725 Q1964.77 416.725 1966.74 418.16 Q1968.73 419.595 1969.68 422.327 Z" fill="#000000" fill-rule="nonzero" fill-opacity="1"></path><path clip-path="url(#clip260)" d="M2007.46 430.243 Q2002.29 430.243 2000.3 431.424 Q1998.31 432.604 1998.31 435.452 Q1998.31 437.72 1999.79 439.063 Q2001.3 440.382 2003.87 440.382 Q2007.41 440.382 2009.54 437.882 Q2011.69 435.359 2011.69 431.192 L2011.69 430.243 L2007.46 430.243 M2015.95 428.484 L2015.95 443.276 L2011.69 443.276 L2011.69 439.341 Q2010.23 441.702 2008.06 442.836 Q2005.88 443.947 2002.73 443.947 Q1998.75 443.947 1996.39 441.725 Q1994.05 439.479 1994.05 435.729 Q1994.05 431.354 1996.97 429.132 Q1999.91 426.91 2005.72 426.91 L2011.69 426.91 L2011.69 426.493 Q2011.69 423.554 2009.75 421.956 Q2007.83 420.336 2004.33 420.336 Q2002.11 420.336 2000 420.868 Q1997.9 421.401 1995.95 422.466 L1995.95 418.53 Q1998.29 417.628 2000.49 417.188 Q2002.69 416.725 2004.77 416.725 Q2010.4 416.725 2013.17 419.642 Q2015.95 422.558 2015.95 428.484 Z" fill="#000000" fill-rule="nonzero" fill-opacity="1"></path><path clip-path="url(#clip260)" d="M2024.72 407.257 L2028.98 407.257 L2028.98 443.276 L2024.72 443.276 L2024.72 407.257 Z" fill="#000000" fill-rule="nonzero" fill-opacity="1"></path><path clip-path="url(#clip260)" d="M2073.87 409.85 L2073.87 414.41 Q2071.21 413.137 2068.84 412.512 Q2066.48 411.887 2064.28 411.887 Q2060.46 411.887 2058.38 413.368 Q2056.32 414.85 2056.32 417.581 Q2056.32 419.873 2057.69 421.054 Q2059.08 422.211 2062.92 422.929 L2065.74 423.507 Q2070.97 424.503 2073.45 427.026 Q2075.95 429.526 2075.95 433.739 Q2075.95 438.762 2072.57 441.354 Q2069.21 443.947 2062.71 443.947 Q2060.26 443.947 2057.48 443.391 Q2054.72 442.836 2051.76 441.748 L2051.76 436.933 Q2054.61 438.53 2057.34 439.341 Q2060.07 440.151 2062.71 440.151 Q2066.71 440.151 2068.89 438.577 Q2071.07 437.003 2071.07 434.086 Q2071.07 431.54 2069.49 430.104 Q2067.94 428.669 2064.38 427.952 L2061.53 427.396 Q2056.3 426.355 2053.96 424.132 Q2051.62 421.91 2051.62 417.952 Q2051.62 413.368 2054.84 410.73 Q2058.08 408.091 2063.75 408.091 Q2066.18 408.091 2068.71 408.531 Q2071.23 408.97 2073.87 409.85 Z" fill="#000000" fill-rule="nonzero" fill-opacity="1"></path><path clip-path="url(#clip260)" d="M2093.1 420.336 Q2089.68 420.336 2087.69 423.021 Q2085.7 425.683 2085.7 430.336 Q2085.7 434.989 2087.66 437.674 Q2089.65 440.336 2093.1 440.336 Q2096.51 440.336 2098.5 437.651 Q2100.49 434.966 2100.49 430.336 Q2100.49 425.73 2098.5 423.044 Q2096.51 420.336 2093.1 420.336 M2093.1 416.725 Q2098.66 416.725 2101.83 420.336 Q2105 423.947 2105 430.336 Q2105 436.702 2101.83 440.336 Q2098.66 443.947 2093.1 443.947 Q2087.52 443.947 2084.35 440.336 Q2081.21 436.702 2081.21 430.336 Q2081.21 423.947 2084.35 420.336 Q2087.52 416.725 2093.1 416.725 Z" fill="#000000" fill-rule="nonzero" fill-opacity="1"></path><path clip-path="url(#clip260)" d="M2112.06 407.257 L2116.32 407.257 L2116.32 443.276 L2112.06 443.276 L2112.06 407.257 Z" fill="#000000" fill-rule="nonzero" fill-opacity="1"></path><path clip-path="url(#clip260)" d="M2124.79 433.044 L2124.79 417.35 L2129.05 417.35 L2129.05 432.882 Q2129.05 436.563 2130.49 438.415 Q2131.92 440.243 2134.79 440.243 Q2138.24 440.243 2140.23 438.044 Q2142.25 435.845 2142.25 432.049 L2142.25 417.35 L2146.51 417.35 L2146.51 443.276 L2142.25 443.276 L2142.25 439.294 Q2140.7 441.655 2138.64 442.813 Q2136.6 443.947 2133.89 443.947 Q2129.42 443.947 2127.11 441.169 Q2124.79 438.391 2124.79 433.044 M2135.51 416.725 L2135.51 416.725 Z" fill="#000000" fill-rule="nonzero" fill-opacity="1"></path><path clip-path="url(#clip260)" d="M2159.49 409.989 L2159.49 417.35 L2168.27 417.35 L2168.27 420.66 L2159.49 420.66 L2159.49 434.734 Q2159.49 437.905 2160.35 438.808 Q2161.23 439.711 2163.89 439.711 L2168.27 439.711 L2168.27 443.276 L2163.89 443.276 Q2158.96 443.276 2157.08 441.447 Q2155.21 439.595 2155.21 434.734 L2155.21 420.66 L2152.08 420.66 L2152.08 417.35 L2155.21 417.35 L2155.21 409.989 L2159.49 409.989 Z" fill="#000000" fill-rule="nonzero" fill-opacity="1"></path><path clip-path="url(#clip260)" d="M2173.87 417.35 L2178.13 417.35 L2178.13 443.276 L2173.87 443.276 L2173.87 417.35 M2173.87 407.257 L2178.13 407.257 L2178.13 412.651 L2173.87 412.651 L2173.87 407.257 Z" fill="#000000" fill-rule="nonzero" fill-opacity="1"></path><path clip-path="url(#clip260)" d="M2197.08 420.336 Q2193.66 420.336 2191.67 423.021 Q2189.68 425.683 2189.68 430.336 Q2189.68 434.989 2191.64 437.674 Q2193.64 440.336 2197.08 440.336 Q2200.49 440.336 2202.48 437.651 Q2204.47 434.966 2204.47 430.336 Q2204.47 425.73 2202.48 423.044 Q2200.49 420.336 2197.08 420.336 M2197.08 416.725 Q2202.64 416.725 2205.81 420.336 Q2208.98 423.947 2208.98 430.336 Q2208.98 436.702 2205.81 440.336 Q2202.64 443.947 2197.08 443.947 Q2191.51 443.947 2188.33 440.336 Q2185.19 436.702 2185.19 430.336 Q2185.19 423.947 2188.33 420.336 Q2191.51 416.725 2197.08 416.725 Z" fill="#000000" fill-rule="nonzero" fill-opacity="1"></path><path clip-path="url(#clip260)" d="M2237.59 427.628 L2237.59 443.276 L2233.33 443.276 L2233.33 427.767 Q2233.33 424.086 2231.9 422.257 Q2230.46 420.429 2227.59 420.429 Q2224.14 420.429 2222.15 422.628 Q2220.16 424.827 2220.16 428.623 L2220.16 443.276 L2215.88 443.276 L2215.88 417.35 L2220.16 417.35 L2220.16 421.378 Q2221.69 419.04 2223.75 417.882 Q2225.83 416.725 2228.54 416.725 Q2233.01 416.725 2235.3 419.503 Q2237.59 422.257 2237.59 427.628 Z" fill="#000000" fill-rule="nonzero" fill-opacity="1"></path><path clip-path="url(#clip260)" d="M1073.06 1144.55 Q1069.96 1149.87 1068.46 1155.08 Q1066.95 1160.29 1066.95 1165.63 Q1066.95 1170.98 1068.46 1176.24 Q1069.99 1181.47 1073.06 1186.77 L1069.36 1186.77 Q1065.89 1181.33 1064.15 1176.07 Q1062.44 1170.82 1062.44 1165.63 Q1062.44 1160.47 1064.15 1155.24 Q1065.86 1150.01 1069.36 1144.55 L1073.06 1144.55 Z" fill="#000000" fill-rule="nonzero" fill-opacity="1"></path><path clip-path="url(#clip260)" d="M1094.78 1150.03 L1082.97 1168.48 L1094.78 1168.48 L1094.78 1150.03 M1093.55 1145.96 L1099.43 1145.96 L1099.43 1168.48 L1104.36 1168.48 L1104.36 1172.37 L1099.43 1172.37 L1099.43 1180.52 L1094.78 1180.52 L1094.78 1172.37 L1079.17 1172.37 L1079.17 1167.86 L1093.55 1145.96 Z" fill="#000000" fill-rule="nonzero" fill-opacity="1"></path><path clip-path="url(#clip260)" d="M1112.09 1174.64 L1116.98 1174.64 L1116.98 1180.52 L1112.09 1180.52 L1112.09 1174.64 Z" fill="#000000" fill-rule="nonzero" fill-opacity="1"></path><path clip-path="url(#clip260)" d="M1137.16 1149.04 Q1133.55 1149.04 1131.72 1152.6 Q1129.92 1156.14 1129.92 1163.27 Q1129.92 1170.38 1131.72 1173.94 Q1133.55 1177.49 1137.16 1177.49 Q1140.79 1177.49 1142.6 1173.94 Q1144.43 1170.38 1144.43 1163.27 Q1144.43 1156.14 1142.6 1152.6 Q1140.79 1149.04 1137.16 1149.04 M1137.16 1145.33 Q1142.97 1145.33 1146.03 1149.94 Q1149.11 1154.52 1149.11 1163.27 Q1149.11 1172 1146.03 1176.61 Q1142.97 1181.19 1137.16 1181.19 Q1131.35 1181.19 1128.27 1176.61 Q1125.22 1172 1125.22 1163.27 Q1125.22 1154.52 1128.27 1149.94 Q1131.35 1145.33 1137.16 1145.33 Z" fill="#000000" fill-rule="nonzero" fill-opacity="1"></path><path clip-path="url(#clip260)" d="M1157.81 1174.64 L1162.69 1174.64 L1162.69 1178.62 L1158.9 1186.03 L1155.91 1186.03 L1157.81 1178.62 L1157.81 1174.64 Z" fill="#000000" fill-rule="nonzero" fill-opacity="1"></path><path clip-path="url(#clip260)" d="M1191.49 1176.58 L1207.81 1176.58 L1207.81 1180.52 L1185.86 1180.52 L1185.86 1176.58 Q1188.53 1173.83 1193.11 1169.2 Q1197.72 1164.55 1198.9 1163.2 Q1201.14 1160.68 1202.02 1158.94 Q1202.92 1157.19 1202.92 1155.5 Q1202.92 1152.74 1200.98 1151 Q1199.06 1149.27 1195.96 1149.27 Q1193.76 1149.27 1191.3 1150.03 Q1188.87 1150.8 1186.1 1152.35 L1186.1 1147.62 Q1188.92 1146.49 1191.37 1145.91 Q1193.83 1145.33 1195.86 1145.33 Q1201.23 1145.33 1204.43 1148.02 Q1207.62 1150.7 1207.62 1155.19 Q1207.62 1157.32 1206.81 1159.25 Q1206.03 1161.14 1203.92 1163.74 Q1203.34 1164.41 1200.24 1167.62 Q1197.14 1170.82 1191.49 1176.58 Z" fill="#000000" fill-rule="nonzero" fill-opacity="1"></path><path clip-path="url(#clip260)" d="M1217.62 1174.64 L1222.51 1174.64 L1222.51 1180.52 L1217.62 1180.52 L1217.62 1174.64 Z" fill="#000000" fill-rule="nonzero" fill-opacity="1"></path><path clip-path="url(#clip260)" d="M1242.69 1149.04 Q1239.08 1149.04 1237.25 1152.6 Q1235.45 1156.14 1235.45 1163.27 Q1235.45 1170.38 1237.25 1173.94 Q1239.08 1177.49 1242.69 1177.49 Q1246.33 1177.49 1248.13 1173.94 Q1249.96 1170.38 1249.96 1163.27 Q1249.96 1156.14 1248.13 1152.6 Q1246.33 1149.04 1242.69 1149.04 M1242.69 1145.33 Q1248.5 1145.33 1251.56 1149.94 Q1254.64 1154.52 1254.64 1163.27 Q1254.64 1172 1251.56 1176.61 Q1248.5 1181.19 1242.69 1181.19 Q1236.88 1181.19 1233.8 1176.61 Q1230.75 1172 1230.75 1163.27 Q1230.75 1154.52 1233.8 1149.94 Q1236.88 1145.33 1242.69 1145.33 Z" fill="#000000" fill-rule="nonzero" fill-opacity="1"></path><path clip-path="url(#clip260)" d="M1261.58 1144.55 L1265.28 1144.55 Q1268.76 1150.01 1270.47 1155.24 Q1272.21 1160.47 1272.21 1165.63 Q1272.21 1170.82 1270.47 1176.07 Q1268.76 1181.33 1265.28 1186.77 L1261.58 1186.77 Q1264.66 1181.47 1266.16 1176.24 Q1267.69 1170.98 1267.69 1165.63 Q1267.69 1160.29 1266.16 1155.08 Q1264.66 1149.87 1261.58 1144.55 Z" fill="#000000" fill-rule="nonzero" fill-opacity="1"></path></svg>