<svg xmlns="http://www.w3.org/2000/svg" xmlns:xlink="http://www.w3.org/1999/xlink" width="600" height="400" viewBox="0 0 2400 1600">
<defs>
  <clipPath id="clip340">
    <rect x="0" y="0" width="2400" height="1600"></rect>
  </clipPath>
</defs>
<path clip-path="url(#clip340)" d="M0 1600 L2400 1600 L2400 0 L0 0  Z" fill="#ffffff" fill-rule="evenodd" fill-opacity="1"></path>
<defs>
  <clipPath id="clip341">
    <rect x="480" y="0" width="1681" height="1600"></rect>
  </clipPath>
</defs>
<path clip-path="url(#clip340)" d="M175.445 1423.18 L2352.76 1423.18 L2352.76 123.472 L175.445 123.472  Z" fill="#ffffff" fill-rule="evenodd" fill-opacity="1"></path>
<defs>
  <clipPath id="clip342">
    <rect x="175" y="123" width="2178" height="1301"></rect>
  </clipPath>
</defs>
<polyline clip-path="url(#clip342)" style="stroke:#000000; stroke-linecap:round; stroke-linejoin:round; stroke-width:2; stroke-opacity:0.1; fill:none" points="175.445,1423.18 175.445,123.472 "></polyline>
<polyline clip-path="url(#clip342)" style="stroke:#000000; stroke-linecap:round; stroke-linejoin:round; stroke-width:2; stroke-opacity:0.1; fill:none" points="538.33,1423.18 538.33,123.472 "></polyline>
<polyline clip-path="url(#clip342)" style="stroke:#000000; stroke-linecap:round; stroke-linejoin:round; stroke-width:2; stroke-opacity:0.1; fill:none" points="901.215,1423.18 901.215,123.472 "></polyline>
<polyline clip-path="url(#clip342)" style="stroke:#000000; stroke-linecap:round; stroke-linejoin:round; stroke-width:2; stroke-opacity:0.1; fill:none" points="1264.1,1423.18 1264.1,123.472 "></polyline>
<polyline clip-path="url(#clip342)" style="stroke:#000000; stroke-linecap:round; stroke-linejoin:round; stroke-width:2; stroke-opacity:0.1; fill:none" points="1626.99,1423.18 1626.99,123.472 "></polyline>
<polyline clip-path="url(#clip342)" style="stroke:#000000; stroke-linecap:round; stroke-linejoin:round; stroke-width:2; stroke-opacity:0.1; fill:none" points="1989.87,1423.18 1989.87,123.472 "></polyline>
<polyline clip-path="url(#clip342)" style="stroke:#000000; stroke-linecap:round; stroke-linejoin:round; stroke-width:2; stroke-opacity:0.1; fill:none" points="2352.76,1423.18 2352.76,123.472 "></polyline>
<polyline clip-path="url(#clip340)" style="stroke:#000000; stroke-linecap:round; stroke-linejoin:round; stroke-width:4; stroke-opacity:1; fill:none" points="175.445,1423.18 2352.76,1423.18 "></polyline>
<polyline clip-path="url(#clip340)" style="stroke:#000000; stroke-linecap:round; stroke-linejoin:round; stroke-width:4; stroke-opacity:1; fill:none" points="175.445,1423.18 175.445,1404.28 "></polyline>
<polyline clip-path="url(#clip340)" style="stroke:#000000; stroke-linecap:round; stroke-linejoin:round; stroke-width:4; stroke-opacity:1; fill:none" points="538.33,1423.18 538.33,1404.28 "></polyline>
<polyline clip-path="url(#clip340)" style="stroke:#000000; stroke-linecap:round; stroke-linejoin:round; stroke-width:4; stroke-opacity:1; fill:none" points="901.215,1423.18 901.215,1404.28 "></polyline>
<polyline clip-path="url(#clip340)" style="stroke:#000000; stroke-linecap:round; stroke-linejoin:round; stroke-width:4; stroke-opacity:1; fill:none" points="1264.1,1423.18 1264.1,1404.28 "></polyline>
<polyline clip-path="url(#clip340)" style="stroke:#000000; stroke-linecap:round; stroke-linejoin:round; stroke-width:4; stroke-opacity:1; fill:none" points="1626.99,1423.18 1626.99,1404.28 "></polyline>
<polyline clip-path="url(#clip340)" style="stroke:#000000; stroke-linecap:round; stroke-linejoin:round; stroke-width:4; stroke-opacity:1; fill:none" points="1989.87,1423.18 1989.87,1404.28 "></polyline>
<polyline clip-path="url(#clip340)" style="stroke:#000000; stroke-linecap:round; stroke-linejoin:round; stroke-width:4; stroke-opacity:1; fill:none" points="2352.76,1423.18 2352.76,1404.28 "></polyline>
<path clip-path="url(#clip340)" d="M175.445 1454.1 Q171.834 1454.1 170.005 1457.66 Q168.2 1461.2 168.2 1468.33 Q168.2 1475.44 170.005 1479.01 Q171.834 1482.55 175.445 1482.55 Q179.079 1482.55 180.885 1479.01 Q182.714 1475.44 182.714 1468.33 Q182.714 1461.2 180.885 1457.66 Q179.079 1454.1 175.445 1454.1 M175.445 1450.39 Q181.255 1450.39 184.311 1455 Q187.39 1459.58 187.39 1468.33 Q187.39 1477.06 184.311 1481.67 Q181.255 1486.25 175.445 1486.25 Q169.635 1486.25 166.556 1481.67 Q163.501 1477.06 163.501 1468.33 Q163.501 1459.58 166.556 1455 Q169.635 1450.39 175.445 1450.39 Z" fill="#000000" fill-rule="nonzero" fill-opacity="1"></path><path clip-path="url(#clip340)" d="M528.712 1481.64 L536.351 1481.64 L536.351 1455.28 L528.041 1456.95 L528.041 1452.69 L536.305 1451.02 L540.981 1451.02 L540.981 1481.64 L548.62 1481.64 L548.62 1485.58 L528.712 1485.58 L528.712 1481.64 Z" fill="#000000" fill-rule="nonzero" fill-opacity="1"></path><path clip-path="url(#clip340)" d="M895.868 1481.64 L912.188 1481.64 L912.188 1485.58 L890.243 1485.58 L890.243 1481.64 Q892.905 1478.89 897.489 1474.26 Q902.095 1469.61 903.276 1468.27 Q905.521 1465.74 906.401 1464.01 Q907.303 1462.25 907.303 1460.56 Q907.303 1457.8 905.359 1456.07 Q903.438 1454.33 900.336 1454.33 Q898.137 1454.33 895.683 1455.09 Q893.253 1455.86 890.475 1457.41 L890.475 1452.69 Q893.299 1451.55 895.753 1450.97 Q898.206 1450.39 900.243 1450.39 Q905.614 1450.39 908.808 1453.08 Q912.002 1455.77 912.002 1460.26 Q912.002 1462.39 911.192 1464.31 Q910.405 1466.2 908.299 1468.8 Q907.72 1469.47 904.618 1472.69 Q901.516 1475.88 895.868 1481.64 Z" fill="#000000" fill-rule="nonzero" fill-opacity="1"></path><path clip-path="url(#clip340)" d="M1268.35 1466.95 Q1271.7 1467.66 1273.58 1469.93 Q1275.48 1472.2 1275.48 1475.53 Q1275.48 1480.65 1271.96 1483.45 Q1268.44 1486.25 1261.96 1486.25 Q1259.78 1486.25 1257.47 1485.81 Q1255.18 1485.39 1252.72 1484.54 L1252.72 1480.02 Q1254.67 1481.16 1256.98 1481.74 Q1259.3 1482.32 1261.82 1482.32 Q1266.22 1482.32 1268.51 1480.58 Q1270.83 1478.84 1270.83 1475.53 Q1270.83 1472.48 1268.67 1470.77 Q1266.54 1469.03 1262.72 1469.03 L1258.7 1469.03 L1258.7 1465.19 L1262.91 1465.19 Q1266.36 1465.19 1268.19 1463.82 Q1270.01 1462.43 1270.01 1459.84 Q1270.01 1457.18 1268.12 1455.77 Q1266.24 1454.33 1262.72 1454.33 Q1260.8 1454.33 1258.6 1454.75 Q1256.4 1455.16 1253.76 1456.04 L1253.76 1451.88 Q1256.43 1451.14 1258.74 1450.77 Q1261.08 1450.39 1263.14 1450.39 Q1268.46 1450.39 1271.57 1452.83 Q1274.67 1455.23 1274.67 1459.35 Q1274.67 1462.22 1273.02 1464.21 Q1271.38 1466.18 1268.35 1466.95 Z" fill="#000000" fill-rule="nonzero" fill-opacity="1"></path><path clip-path="url(#clip340)" d="M1629.99 1455.09 L1618.19 1473.54 L1629.99 1473.54 L1629.99 1455.09 M1628.77 1451.02 L1634.65 1451.02 L1634.65 1473.54 L1639.58 1473.54 L1639.58 1477.43 L1634.65 1477.43 L1634.65 1485.58 L1629.99 1485.58 L1629.99 1477.43 L1614.39 1477.43 L1614.39 1472.92 L1628.77 1451.02 Z" fill="#000000" fill-rule="nonzero" fill-opacity="1"></path><path clip-path="url(#clip340)" d="M1980.15 1451.02 L1998.51 1451.02 L1998.51 1454.96 L1984.43 1454.96 L1984.43 1463.43 Q1985.45 1463.08 1986.47 1462.92 Q1987.49 1462.73 1988.51 1462.73 Q1994.29 1462.73 1997.67 1465.9 Q2001.05 1469.08 2001.05 1474.49 Q2001.05 1480.07 1997.58 1483.17 Q1994.11 1486.25 1987.79 1486.25 Q1985.61 1486.25 1983.34 1485.88 Q1981.1 1485.51 1978.69 1484.77 L1978.69 1480.07 Q1980.77 1481.2 1983 1481.76 Q1985.22 1482.32 1987.69 1482.32 Q1991.7 1482.32 1994.04 1480.21 Q1996.38 1478.1 1996.38 1474.49 Q1996.38 1470.88 1994.04 1468.77 Q1991.7 1466.67 1987.69 1466.67 Q1985.82 1466.67 1983.94 1467.08 Q1982.09 1467.5 1980.15 1468.38 L1980.15 1451.02 Z" fill="#000000" fill-rule="nonzero" fill-opacity="1"></path><path clip-path="url(#clip340)" d="M2353.16 1466.44 Q2350.01 1466.44 2348.16 1468.59 Q2346.33 1470.74 2346.33 1474.49 Q2346.33 1478.22 2348.16 1480.39 Q2350.01 1482.55 2353.16 1482.55 Q2356.31 1482.55 2358.14 1480.39 Q2359.99 1478.22 2359.99 1474.49 Q2359.99 1470.74 2358.14 1468.59 Q2356.31 1466.44 2353.16 1466.44 M2362.44 1451.78 L2362.44 1456.04 Q2360.68 1455.21 2358.88 1454.77 Q2357.1 1454.33 2355.34 1454.33 Q2350.71 1454.33 2348.25 1457.45 Q2345.82 1460.58 2345.48 1466.9 Q2346.84 1464.89 2348.9 1463.82 Q2350.96 1462.73 2353.44 1462.73 Q2358.65 1462.73 2361.66 1465.9 Q2364.69 1469.05 2364.69 1474.49 Q2364.69 1479.82 2361.54 1483.03 Q2358.39 1486.25 2353.16 1486.25 Q2347.17 1486.25 2343.99 1481.67 Q2340.82 1477.06 2340.82 1468.33 Q2340.82 1460.14 2344.71 1455.28 Q2348.6 1450.39 2355.15 1450.39 Q2356.91 1450.39 2358.69 1450.74 Q2360.5 1451.09 2362.44 1451.78 Z" fill="#000000" fill-rule="nonzero" fill-opacity="1"></path><path clip-path="url(#clip340)" d="M1261.92 1532.4 L1249.03 1549.74 L1262.59 1568.04 L1255.68 1568.04 L1245.31 1554.04 L1234.93 1568.04 L1228.02 1568.04 L1241.87 1549.39 L1229.2 1532.4 L1236.11 1532.4 L1245.56 1545.1 L1255.01 1532.4 L1261.92 1532.4 Z" fill="#000000" fill-rule="nonzero" fill-opacity="1"></path><path clip-path="url(#clip340)" d="M1272.81 1562.63 L1283.31 1562.63 L1283.31 1526.38 L1271.88 1528.67 L1271.88 1522.82 L1283.25 1520.52 L1289.67 1520.52 L1289.67 1562.63 L1300.18 1562.63 L1300.18 1568.04 L1272.81 1568.04 L1272.81 1562.63 Z" fill="#000000" fill-rule="nonzero" fill-opacity="1"></path><polyline clip-path="url(#clip342)" style="stroke:#000000; stroke-linecap:round; stroke-linejoin:round; stroke-width:2; stroke-opacity:0.1; fill:none" points="175.445,1423.18 2352.76,1423.18 "></polyline>
<polyline clip-path="url(#clip342)" style="stroke:#000000; stroke-linecap:round; stroke-linejoin:round; stroke-width:2; stroke-opacity:0.1; fill:none" points="175.445,1163.24 2352.76,1163.24 "></polyline>
<polyline clip-path="url(#clip342)" style="stroke:#000000; stroke-linecap:round; stroke-linejoin:round; stroke-width:2; stroke-opacity:0.1; fill:none" points="175.445,903.297 2352.76,903.297 "></polyline>
<polyline clip-path="url(#clip342)" style="stroke:#000000; stroke-linecap:round; stroke-linejoin:round; stroke-width:2; stroke-opacity:0.1; fill:none" points="175.445,643.355 2352.76,643.355 "></polyline>
<polyline clip-path="url(#clip342)" style="stroke:#000000; stroke-linecap:round; stroke-linejoin:round; stroke-width:2; stroke-opacity:0.1; fill:none" points="175.445,383.414 2352.76,383.414 "></polyline>
<polyline clip-path="url(#clip342)" style="stroke:#000000; stroke-linecap:round; stroke-linejoin:round; stroke-width:2; stroke-opacity:0.1; fill:none" points="175.445,123.472 2352.76,123.472 "></polyline>
<polyline clip-path="url(#clip340)" style="stroke:#000000; stroke-linecap:round; stroke-linejoin:round; stroke-width:4; stroke-opacity:1; fill:none" points="175.445,1423.18 175.445,123.472 "></polyline>
<polyline clip-path="url(#clip340)" style="stroke:#000000; stroke-linecap:round; stroke-linejoin:round; stroke-width:4; stroke-opacity:1; fill:none" points="175.445,1423.18 194.343,1423.18 "></polyline>
<polyline clip-path="url(#clip340)" style="stroke:#000000; stroke-linecap:round; stroke-linejoin:round; stroke-width:4; stroke-opacity:1; fill:none" points="175.445,1163.24 194.343,1163.24 "></polyline>
<polyline clip-path="url(#clip340)" style="stroke:#000000; stroke-linecap:round; stroke-linejoin:round; stroke-width:4; stroke-opacity:1; fill:none" points="175.445,903.297 194.343,903.297 "></polyline>
<polyline clip-path="url(#clip340)" style="stroke:#000000; stroke-linecap:round; stroke-linejoin:round; stroke-width:4; stroke-opacity:1; fill:none" points="175.445,643.355 194.343,643.355 "></polyline>
<polyline clip-path="url(#clip340)" style="stroke:#000000; stroke-linecap:round; stroke-linejoin:round; stroke-width:4; stroke-opacity:1; fill:none" points="175.445,383.414 194.343,383.414 "></polyline>
<polyline clip-path="url(#clip340)" style="stroke:#000000; stroke-linecap:round; stroke-linejoin:round; stroke-width:4; stroke-opacity:1; fill:none" points="175.445,123.472 194.343,123.472 "></polyline>
<path clip-path="url(#clip340)" d="M127.501 1408.98 Q123.89 1408.98 122.061 1412.54 Q120.255 1416.08 120.255 1423.21 Q120.255 1430.32 122.061 1433.89 Q123.89 1437.43 127.501 1437.43 Q131.135 1437.43 132.941 1433.89 Q134.769 1430.32 134.769 1423.21 Q134.769 1416.08 132.941 1412.54 Q131.135 1408.98 127.501 1408.98 M127.501 1405.27 Q133.311 1405.27 136.367 1409.88 Q139.445 1414.46 139.445 1423.21 Q139.445 1431.94 136.367 1436.55 Q133.311 1441.13 127.501 1441.13 Q121.691 1441.13 118.612 1436.55 Q115.556 1431.94 115.556 1423.21 Q115.556 1414.46 118.612 1409.88 Q121.691 1405.27 127.501 1405.27 Z" fill="#000000" fill-rule="nonzero" fill-opacity="1"></path><path clip-path="url(#clip340)" d="M119.538 1176.58 L127.177 1176.58 L127.177 1150.22 L118.867 1151.88 L118.867 1147.62 L127.13 1145.96 L131.806 1145.96 L131.806 1176.58 L139.445 1176.58 L139.445 1180.52 L119.538 1180.52 L119.538 1176.58 Z" fill="#000000" fill-rule="nonzero" fill-opacity="1"></path><path clip-path="url(#clip340)" d="M123.126 916.642 L139.445 916.642 L139.445 920.577 L117.501 920.577 L117.501 916.642 Q120.163 913.887 124.746 909.257 Q129.353 904.605 130.533 903.262 Q132.779 900.739 133.658 899.003 Q134.561 897.244 134.561 895.554 Q134.561 892.799 132.617 891.063 Q130.695 889.327 127.593 889.327 Q125.394 889.327 122.941 890.091 Q120.51 890.855 117.732 892.406 L117.732 887.683 Q120.556 886.549 123.01 885.97 Q125.464 885.392 127.501 885.392 Q132.871 885.392 136.066 888.077 Q139.26 890.762 139.26 895.253 Q139.26 897.382 138.45 899.304 Q137.663 901.202 135.556 903.794 Q134.978 904.466 131.876 907.683 Q128.774 910.878 123.126 916.642 Z" fill="#000000" fill-rule="nonzero" fill-opacity="1"></path><path clip-path="url(#clip340)" d="M132.316 642.001 Q135.672 642.719 137.547 644.987 Q139.445 647.256 139.445 650.589 Q139.445 655.705 135.927 658.506 Q132.408 661.307 125.927 661.307 Q123.751 661.307 121.436 660.867 Q119.144 660.45 116.691 659.594 L116.691 655.08 Q118.635 656.214 120.95 656.793 Q123.265 657.371 125.788 657.371 Q130.186 657.371 132.478 655.635 Q134.792 653.899 134.792 650.589 Q134.792 647.533 132.64 645.82 Q130.51 644.084 126.691 644.084 L122.663 644.084 L122.663 640.242 L126.876 640.242 Q130.325 640.242 132.154 638.876 Q133.982 637.487 133.982 634.895 Q133.982 632.233 132.084 630.821 Q130.209 629.385 126.691 629.385 Q124.769 629.385 122.57 629.802 Q120.371 630.219 117.732 631.098 L117.732 626.932 Q120.394 626.191 122.709 625.821 Q125.047 625.45 127.107 625.45 Q132.431 625.45 135.533 627.881 Q138.635 630.288 138.635 634.409 Q138.635 637.279 136.992 639.27 Q135.348 641.237 132.316 642.001 Z" fill="#000000" fill-rule="nonzero" fill-opacity="1"></path><path clip-path="url(#clip340)" d="M129.862 370.208 L118.056 388.657 L129.862 388.657 L129.862 370.208 M128.635 366.134 L134.515 366.134 L134.515 388.657 L139.445 388.657 L139.445 392.546 L134.515 392.546 L134.515 400.694 L129.862 400.694 L129.862 392.546 L114.26 392.546 L114.26 388.032 L128.635 366.134 Z" fill="#000000" fill-rule="nonzero" fill-opacity="1"></path><path clip-path="url(#clip340)" d="M118.543 106.192 L136.899 106.192 L136.899 110.127 L122.825 110.127 L122.825 118.599 Q123.843 118.252 124.862 118.09 Q125.88 117.905 126.899 117.905 Q132.686 117.905 136.066 121.076 Q139.445 124.248 139.445 129.664 Q139.445 135.243 135.973 138.345 Q132.501 141.423 126.181 141.423 Q124.005 141.423 121.737 141.053 Q119.492 140.683 117.084 139.942 L117.084 135.243 Q119.168 136.377 121.39 136.933 Q123.612 137.488 126.089 137.488 Q130.093 137.488 132.431 135.382 Q134.769 133.275 134.769 129.664 Q134.769 126.053 132.431 123.947 Q130.093 121.84 126.089 121.84 Q124.214 121.84 122.339 122.257 Q120.487 122.674 118.543 123.553 L118.543 106.192 Z" fill="#000000" fill-rule="nonzero" fill-opacity="1"></path><path clip-path="url(#clip340)" d="M28.3562 775.252 L45.7028 788.142 L64.0042 774.583 L64.0042 781.49 L49.9996 791.866 L64.0042 802.242 L64.0042 809.149 L45.3526 795.304 L28.3562 807.971 L28.3562 801.065 L41.0558 791.611 L28.3562 782.158 L28.3562 775.252 Z" fill="#000000" fill-rule="nonzero" fill-opacity="1"></path><path clip-path="url(#clip340)" d="M58.5933 759.942 L58.5933 737.503 L64.0042 737.503 L64.0042 767.676 L58.5933 767.676 Q54.8057 764.016 48.44 757.714 Q42.0425 751.38 40.1964 749.757 Q36.7271 746.67 34.34 745.46 Q31.921 744.219 29.5975 744.219 Q25.8099 744.219 23.4228 746.892 Q21.0356 749.534 21.0356 753.799 Q21.0356 756.823 22.086 760.197 Q23.1363 763.539 25.2688 767.358 L18.7758 767.358 Q17.2162 763.475 16.4205 760.101 Q15.6248 756.727 15.6248 753.926 Q15.6248 746.542 19.3169 742.15 Q23.009 737.758 29.1837 737.758 Q32.112 737.758 34.7537 738.872 Q37.3637 739.954 40.9285 742.85 Q41.8515 743.646 46.2757 747.911 Q50.668 752.176 58.5933 759.942 Z" fill="#000000" fill-rule="nonzero" fill-opacity="1"></path><path clip-path="url(#clip340)" d="M47.9178 12.096 L56.1007 12.096 L56.1007 65.6895 L85.5507 65.6895 L85.5507 72.576 L47.9178 72.576 L47.9178 12.096 Z" fill="#000000" fill-rule="nonzero" fill-opacity="1"></path><path clip-path="url(#clip340)" d="M93.8146 27.2059 L101.268 27.2059 L101.268 72.576 L93.8146 72.576 L93.8146 27.2059 M93.8146 9.54393 L101.268 9.54393 L101.268 18.9825 L93.8146 18.9825 L93.8146 9.54393 Z" fill="#000000" fill-rule="nonzero" fill-opacity="1"></path><path clip-path="url(#clip340)" d="M154.578 45.1919 L154.578 72.576 L147.124 72.576 L147.124 45.4349 Q147.124 38.994 144.613 35.7938 Q142.101 32.5936 137.078 32.5936 Q131.042 32.5936 127.559 36.4419 Q124.075 40.2903 124.075 46.9338 L124.075 72.576 L116.581 72.576 L116.581 27.2059 L124.075 27.2059 L124.075 34.2544 Q126.748 30.163 130.354 28.1376 Q134 26.1121 138.739 26.1121 Q146.557 26.1121 150.568 30.9732 Q154.578 35.7938 154.578 45.1919 Z" fill="#000000" fill-rule="nonzero" fill-opacity="1"></path><path clip-path="url(#clip340)" d="M208.253 48.0275 L208.253 51.6733 L173.982 51.6733 Q174.468 59.3701 178.6 63.421 Q182.772 67.4314 190.186 67.4314 Q194.48 67.4314 198.49 66.3781 Q202.541 65.3249 206.511 63.2184 L206.511 70.267 Q202.5 71.9684 198.287 72.8596 Q194.074 73.7508 189.74 73.7508 Q178.884 73.7508 172.524 67.4314 Q166.204 61.1119 166.204 50.3365 Q166.204 39.1965 172.2 32.6746 Q178.235 26.1121 188.444 26.1121 Q197.599 26.1121 202.905 32.0264 Q208.253 37.9003 208.253 48.0275 M200.799 45.84 Q200.718 39.7232 197.356 36.0774 Q194.034 32.4315 188.525 32.4315 Q182.286 32.4315 178.519 35.9558 Q174.792 39.4801 174.225 45.8805 L200.799 45.84 Z" fill="#000000" fill-rule="nonzero" fill-opacity="1"></path><path clip-path="url(#clip340)" d="M241.105 49.7694 Q232.072 49.7694 228.588 51.8354 Q225.104 53.9013 225.104 58.8839 Q225.104 62.8538 227.697 65.2034 Q230.33 67.5124 234.827 67.5124 Q241.024 67.5124 244.751 63.1374 Q248.519 58.7219 248.519 51.4303 L248.519 49.7694 L241.105 49.7694 M255.972 46.6907 L255.972 72.576 L248.519 72.576 L248.519 65.6895 Q245.967 69.8214 242.159 71.8063 Q238.351 73.7508 232.842 73.7508 Q225.874 73.7508 221.742 69.8619 Q217.651 65.9325 217.651 59.3701 Q217.651 51.7138 222.755 47.825 Q227.9 43.9361 238.067 43.9361 L248.519 43.9361 L248.519 43.2069 Q248.519 38.0623 245.116 35.2672 Q241.754 32.4315 235.637 32.4315 Q231.748 32.4315 228.062 33.3632 Q224.375 34.295 220.972 36.1584 L220.972 29.2718 Q225.064 27.692 228.912 26.9223 Q232.761 26.1121 236.406 26.1121 Q246.25 26.1121 251.111 31.2163 Q255.972 36.3204 255.972 46.6907 Z" fill="#000000" fill-rule="nonzero" fill-opacity="1"></path><path clip-path="url(#clip340)" d="M297.616 34.1734 Q296.36 33.4443 294.861 33.1202 Q293.403 32.7556 291.62 32.7556 Q285.301 32.7556 281.898 36.8875 Q278.536 40.9789 278.536 48.6757 L278.536 72.576 L271.042 72.576 L271.042 27.2059 L278.536 27.2059 L278.536 34.2544 Q280.885 30.1225 284.653 28.1376 Q288.42 26.1121 293.808 26.1121 Q294.577 26.1121 295.509 26.2337 Q296.441 26.3147 297.575 26.5172 L297.616 34.1734 Z" fill="#000000" fill-rule="nonzero" fill-opacity="1"></path><path clip-path="url(#clip340)" d="M340.312 18.8205 L340.312 41.5461 L350.601 41.5461 Q356.313 41.5461 359.432 38.5889 Q362.552 35.6318 362.552 30.163 Q362.552 24.7348 359.432 21.7777 Q356.313 18.8205 350.601 18.8205 L340.312 18.8205 M332.129 12.096 L350.601 12.096 Q360.769 12.096 365.954 16.714 Q371.18 21.2916 371.18 30.163 Q371.18 39.1155 365.954 43.6931 Q360.769 48.2706 350.601 48.2706 L340.312 48.2706 L340.312 72.576 L332.129 72.576 L332.129 12.096 Z" fill="#000000" fill-rule="nonzero" fill-opacity="1"></path><path clip-path="url(#clip340)" d="M406.666 34.1734 Q405.41 33.4443 403.911 33.1202 Q402.453 32.7556 400.671 32.7556 Q394.351 32.7556 390.948 36.8875 Q387.586 40.9789 387.586 48.6757 L387.586 72.576 L380.092 72.576 L380.092 27.2059 L387.586 27.2059 L387.586 34.2544 Q389.936 30.1225 393.703 28.1376 Q397.47 26.1121 402.858 26.1121 Q403.628 26.1121 404.559 26.2337 Q405.491 26.3147 406.625 26.5172 L406.666 34.1734 Z" fill="#000000" fill-rule="nonzero" fill-opacity="1"></path><path clip-path="url(#clip340)" d="M430.242 32.4315 Q424.247 32.4315 420.763 37.1306 Q417.279 41.7891 417.279 49.9314 Q417.279 58.0738 420.723 62.7728 Q424.206 67.4314 430.242 67.4314 Q436.197 67.4314 439.681 62.7323 Q443.165 58.0333 443.165 49.9314 Q443.165 41.8701 439.681 37.1711 Q436.197 32.4315 430.242 32.4315 M430.242 26.1121 Q439.964 26.1121 445.514 32.4315 Q451.064 38.7509 451.064 49.9314 Q451.064 61.0714 445.514 67.4314 Q439.964 73.7508 430.242 73.7508 Q420.479 73.7508 414.93 67.4314 Q409.421 61.0714 409.421 49.9314 Q409.421 38.7509 414.93 32.4315 Q420.479 26.1121 430.242 26.1121 Z" fill="#000000" fill-rule="nonzero" fill-opacity="1"></path><path clip-path="url(#clip340)" d="M493.274 49.3643 Q493.274 41.2625 489.912 36.8065 Q486.59 32.3505 480.554 32.3505 Q474.559 32.3505 471.197 36.8065 Q467.875 41.2625 467.875 49.3643 Q467.875 57.4256 471.197 61.8816 Q474.559 66.3376 480.554 66.3376 Q486.59 66.3376 489.912 61.8816 Q493.274 57.4256 493.274 49.3643 M500.728 66.9452 Q500.728 78.5308 495.583 84.1616 Q490.439 89.8329 479.825 89.8329 Q475.896 89.8329 472.412 89.2252 Q468.928 88.6581 465.647 87.4428 L465.647 80.1917 Q468.928 81.9741 472.129 82.8248 Q475.329 83.6755 478.65 83.6755 Q485.983 83.6755 489.628 79.8271 Q493.274 76.0193 493.274 68.282 L493.274 64.5957 Q490.965 68.6061 487.36 70.5911 Q483.755 72.576 478.732 72.576 Q470.387 72.576 465.282 66.2161 Q460.178 59.8562 460.178 49.3643 Q460.178 38.832 465.282 32.472 Q470.387 26.1121 478.732 26.1121 Q483.755 26.1121 487.36 28.0971 Q490.965 30.082 493.274 34.0924 L493.274 27.2059 L500.728 27.2059 L500.728 66.9452 Z" fill="#000000" fill-rule="nonzero" fill-opacity="1"></path><path clip-path="url(#clip340)" d="M542.371 34.1734 Q541.115 33.4443 539.617 33.1202 Q538.158 32.7556 536.376 32.7556 Q530.056 32.7556 526.654 36.8875 Q523.291 40.9789 523.291 48.6757 L523.291 72.576 L515.797 72.576 L515.797 27.2059 L523.291 27.2059 L523.291 34.2544 Q525.641 30.1225 529.408 28.1376 Q533.176 26.1121 538.563 26.1121 Q539.333 26.1121 540.265 26.2337 Q541.196 26.3147 542.331 26.5172 L542.371 34.1734 Z" fill="#000000" fill-rule="nonzero" fill-opacity="1"></path><path clip-path="url(#clip340)" d="M570.809 49.7694 Q561.775 49.7694 558.291 51.8354 Q554.807 53.9013 554.807 58.8839 Q554.807 62.8538 557.4 65.2034 Q560.033 67.5124 564.53 67.5124 Q570.728 67.5124 574.454 63.1374 Q578.222 58.7219 578.222 51.4303 L578.222 49.7694 L570.809 49.7694 M585.675 46.6907 L585.675 72.576 L578.222 72.576 L578.222 65.6895 Q575.67 69.8214 571.862 71.8063 Q568.054 73.7508 562.545 73.7508 Q555.577 73.7508 551.445 69.8619 Q547.354 65.9325 547.354 59.3701 Q547.354 51.7138 552.458 47.825 Q557.603 43.9361 567.77 43.9361 L578.222 43.9361 L578.222 43.2069 Q578.222 38.0623 574.819 35.2672 Q571.457 32.4315 565.34 32.4315 Q561.451 32.4315 557.765 33.3632 Q554.078 34.295 550.676 36.1584 L550.676 29.2718 Q554.767 27.692 558.615 26.9223 Q562.464 26.1121 566.11 26.1121 Q575.953 26.1121 580.814 31.2163 Q585.675 36.3204 585.675 46.6907 Z" fill="#000000" fill-rule="nonzero" fill-opacity="1"></path><path clip-path="url(#clip340)" d="M636.352 35.9153 Q639.147 30.8922 643.036 28.5022 Q646.925 26.1121 652.191 26.1121 Q659.28 26.1121 663.129 31.0947 Q666.977 36.0368 666.977 45.1919 L666.977 72.576 L659.483 72.576 L659.483 45.4349 Q659.483 38.913 657.174 35.7533 Q654.865 32.5936 650.125 32.5936 Q644.332 32.5936 640.97 36.4419 Q637.608 40.2903 637.608 46.9338 L637.608 72.576 L630.114 72.576 L630.114 45.4349 Q630.114 38.8725 627.805 35.7533 Q625.496 32.5936 620.675 32.5936 Q614.963 32.5936 611.601 36.4824 Q608.239 40.3308 608.239 46.9338 L608.239 72.576 L600.745 72.576 L600.745 27.2059 L608.239 27.2059 L608.239 34.2544 Q610.791 30.082 614.356 28.0971 Q617.921 26.1121 622.822 26.1121 Q627.764 26.1121 631.208 28.6237 Q634.691 31.1352 636.352 35.9153 Z" fill="#000000" fill-rule="nonzero" fill-opacity="1"></path><path clip-path="url(#clip340)" d="M717.168 35.9153 Q719.963 30.8922 723.852 28.5022 Q727.741 26.1121 733.007 26.1121 Q740.096 26.1121 743.944 31.0947 Q747.793 36.0368 747.793 45.1919 L747.793 72.576 L740.298 72.576 L740.298 45.4349 Q740.298 38.913 737.989 35.7533 Q735.68 32.5936 730.941 32.5936 Q725.148 32.5936 721.786 36.4419 Q718.424 40.2903 718.424 46.9338 L718.424 72.576 L710.929 72.576 L710.929 45.4349 Q710.929 38.8725 708.62 35.7533 Q706.311 32.5936 701.491 32.5936 Q695.779 32.5936 692.417 36.4824 Q689.054 40.3308 689.054 46.9338 L689.054 72.576 L681.56 72.576 L681.56 27.2059 L689.054 27.2059 L689.054 34.2544 Q691.607 30.082 695.171 28.0971 Q698.736 26.1121 703.638 26.1121 Q708.58 26.1121 712.023 28.6237 Q715.507 31.1352 717.168 35.9153 Z" fill="#000000" fill-rule="nonzero" fill-opacity="1"></path><path clip-path="url(#clip340)" d="M762.659 27.2059 L770.113 27.2059 L770.113 72.576 L762.659 72.576 L762.659 27.2059 M762.659 9.54393 L770.113 9.54393 L770.113 18.9825 L762.659 18.9825 L762.659 9.54393 Z" fill="#000000" fill-rule="nonzero" fill-opacity="1"></path><path clip-path="url(#clip340)" d="M823.423 45.1919 L823.423 72.576 L815.969 72.576 L815.969 45.4349 Q815.969 38.994 813.458 35.7938 Q810.946 32.5936 805.923 32.5936 Q799.887 32.5936 796.403 36.4419 Q792.92 40.2903 792.92 46.9338 L792.92 72.576 L785.425 72.576 L785.425 27.2059 L792.92 27.2059 L792.92 34.2544 Q795.593 30.163 799.199 28.1376 Q802.844 26.1121 807.584 26.1121 Q815.402 26.1121 819.413 30.9732 Q823.423 35.7938 823.423 45.1919 Z" fill="#000000" fill-rule="nonzero" fill-opacity="1"></path><path clip-path="url(#clip340)" d="M868.145 49.3643 Q868.145 41.2625 864.783 36.8065 Q861.461 32.3505 855.425 32.3505 Q849.43 32.3505 846.067 36.8065 Q842.746 41.2625 842.746 49.3643 Q842.746 57.4256 846.067 61.8816 Q849.43 66.3376 855.425 66.3376 Q861.461 66.3376 864.783 61.8816 Q868.145 57.4256 868.145 49.3643 M875.599 66.9452 Q875.599 78.5308 870.454 84.1616 Q865.309 89.8329 854.696 89.8329 Q850.767 89.8329 847.283 89.2252 Q843.799 88.6581 840.518 87.4428 L840.518 80.1917 Q843.799 81.9741 846.999 82.8248 Q850.199 83.6755 853.521 83.6755 Q860.853 83.6755 864.499 79.8271 Q868.145 76.0193 868.145 68.282 L868.145 64.5957 Q865.836 68.6061 862.231 70.5911 Q858.625 72.576 853.602 72.576 Q845.257 72.576 840.153 66.2161 Q835.049 59.8562 835.049 49.3643 Q835.049 38.832 840.153 32.472 Q845.257 26.1121 853.602 26.1121 Q858.625 26.1121 862.231 28.0971 Q865.836 30.082 868.145 34.0924 L868.145 27.2059 L875.599 27.2059 L875.599 66.9452 Z" fill="#000000" fill-rule="nonzero" fill-opacity="1"></path><path clip-path="url(#clip340)" d="M892.855 62.2867 L901.403 62.2867 L901.403 72.576 L892.855 72.576 L892.855 62.2867 M892.855 29.6769 L901.403 29.6769 L901.403 39.9662 L892.855 39.9662 L892.855 29.6769 Z" fill="#000000" fill-rule="nonzero" fill-opacity="1"></path><path clip-path="url(#clip340)" d="M945.598 12.096 L980.355 12.096 L980.355 18.9825 L953.781 18.9825 L953.781 36.8065 L977.762 36.8065 L977.762 43.6931 L953.781 43.6931 L953.781 72.576 L945.598 72.576 L945.598 12.096 Z" fill="#000000" fill-rule="nonzero" fill-opacity="1"></path><path clip-path="url(#clip340)" d="M1027.26 48.0275 L1027.26 51.6733 L992.994 51.6733 Q993.48 59.3701 997.612 63.421 Q1001.78 67.4314 1009.2 67.4314 Q1013.49 67.4314 1017.5 66.3781 Q1021.55 65.3249 1025.52 63.2184 L1025.52 70.267 Q1021.51 71.9684 1017.3 72.8596 Q1013.09 73.7508 1008.75 73.7508 Q997.895 73.7508 991.535 67.4314 Q985.216 61.1119 985.216 50.3365 Q985.216 39.1965 991.211 32.6746 Q997.247 26.1121 1007.46 26.1121 Q1016.61 26.1121 1021.92 32.0264 Q1027.26 37.9003 1027.26 48.0275 M1019.81 45.84 Q1019.73 39.7232 1016.37 36.0774 Q1013.05 32.4315 1007.54 32.4315 Q1001.3 32.4315 997.531 35.9558 Q993.804 39.4801 993.237 45.8805 L1019.81 45.84 Z" fill="#000000" fill-rule="nonzero" fill-opacity="1"></path><path clip-path="url(#clip340)" d="M1060.12 49.7694 Q1051.08 49.7694 1047.6 51.8354 Q1044.12 53.9013 1044.12 58.8839 Q1044.12 62.8538 1046.71 65.2034 Q1049.34 67.5124 1053.84 67.5124 Q1060.04 67.5124 1063.76 63.1374 Q1067.53 58.7219 1067.53 51.4303 L1067.53 49.7694 L1060.12 49.7694 M1074.98 46.6907 L1074.98 72.576 L1067.53 72.576 L1067.53 65.6895 Q1064.98 69.8214 1061.17 71.8063 Q1057.36 73.7508 1051.85 73.7508 Q1044.89 73.7508 1040.75 69.8619 Q1036.66 65.9325 1036.66 59.3701 Q1036.66 51.7138 1041.77 47.825 Q1046.91 43.9361 1057.08 43.9361 L1067.53 43.9361 L1067.53 43.2069 Q1067.53 38.0623 1064.13 35.2672 Q1060.77 32.4315 1054.65 32.4315 Q1050.76 32.4315 1047.07 33.3632 Q1043.39 34.295 1039.98 36.1584 L1039.98 29.2718 Q1044.08 27.692 1047.92 26.9223 Q1051.77 26.1121 1055.42 26.1121 Q1065.26 26.1121 1070.12 31.2163 Q1074.98 36.3204 1074.98 46.6907 Z" fill="#000000" fill-rule="nonzero" fill-opacity="1"></path><path clip-path="url(#clip340)" d="M1119.26 28.5427 L1119.26 35.5912 Q1116.1 33.9709 1112.7 33.1607 Q1109.3 32.3505 1105.65 32.3505 Q1100.1 32.3505 1097.3 34.0519 Q1094.55 35.7533 1094.55 39.156 Q1094.55 41.7486 1096.53 43.2475 Q1098.52 44.7058 1104.52 46.0426 L1107.07 46.6097 Q1115.01 48.3111 1118.33 51.4303 Q1121.69 54.509 1121.69 60.0587 Q1121.69 66.3781 1116.67 70.0644 Q1111.69 73.7508 1102.94 73.7508 Q1099.29 73.7508 1095.32 73.0216 Q1091.39 72.3329 1087.02 70.9151 L1087.02 63.2184 Q1091.15 65.3654 1095.16 66.4591 Q1099.17 67.5124 1103.1 67.5124 Q1108.36 67.5124 1111.2 65.73 Q1114.03 63.9071 1114.03 60.6258 Q1114.03 57.5877 1111.97 55.9673 Q1109.94 54.3469 1103.02 52.8481 L1100.42 52.2405 Q1093.5 50.7821 1090.42 47.7845 Q1087.34 44.7463 1087.34 39.4801 Q1087.34 33.0797 1091.88 29.5959 Q1096.41 26.1121 1104.76 26.1121 Q1108.89 26.1121 1112.54 26.7198 Q1116.18 27.3274 1119.26 28.5427 Z" fill="#000000" fill-rule="nonzero" fill-opacity="1"></path><path clip-path="url(#clip340)" d="M1133.56 27.2059 L1141.01 27.2059 L1141.01 72.576 L1133.56 72.576 L1133.56 27.2059 M1133.56 9.54393 L1141.01 9.54393 L1141.01 18.9825 L1133.56 18.9825 L1133.56 9.54393 Z" fill="#000000" fill-rule="nonzero" fill-opacity="1"></path><path clip-path="url(#clip340)" d="M1189.18 49.9314 Q1189.18 41.7081 1185.78 37.0496 Q1182.41 32.3505 1176.5 32.3505 Q1170.59 32.3505 1167.18 37.0496 Q1163.82 41.7081 1163.82 49.9314 Q1163.82 58.1548 1167.18 62.8538 Q1170.59 67.5124 1176.5 67.5124 Q1182.41 67.5124 1185.78 62.8538 Q1189.18 58.1548 1189.18 49.9314 M1163.82 34.0924 Q1166.17 30.0415 1169.73 28.0971 Q1173.34 26.1121 1178.32 26.1121 Q1186.59 26.1121 1191.73 32.6746 Q1196.92 39.2371 1196.92 49.9314 Q1196.92 60.6258 1191.73 67.1883 Q1186.59 73.7508 1178.32 73.7508 Q1173.34 73.7508 1169.73 71.8063 Q1166.17 69.8214 1163.82 65.7705 L1163.82 72.576 L1156.33 72.576 L1156.33 9.54393 L1163.82 9.54393 L1163.82 34.0924 Z" fill="#000000" fill-rule="nonzero" fill-opacity="1"></path><path clip-path="url(#clip340)" d="M1209.27 9.54393 L1216.73 9.54393 L1216.73 72.576 L1209.27 72.576 L1209.27 9.54393 Z" fill="#000000" fill-rule="nonzero" fill-opacity="1"></path><path clip-path="url(#clip340)" d="M1271.13 48.0275 L1271.13 51.6733 L1236.86 51.6733 Q1237.34 59.3701 1241.48 63.421 Q1245.65 67.4314 1253.06 67.4314 Q1257.36 67.4314 1261.37 66.3781 Q1265.42 65.3249 1269.39 63.2184 L1269.39 70.267 Q1265.38 71.9684 1261.16 72.8596 Q1256.95 73.7508 1252.62 73.7508 Q1241.76 73.7508 1235.4 67.4314 Q1229.08 61.1119 1229.08 50.3365 Q1229.08 39.1965 1235.08 32.6746 Q1241.11 26.1121 1251.32 26.1121 Q1260.47 26.1121 1265.78 32.0264 Q1271.13 37.9003 1271.13 48.0275 M1263.68 45.84 Q1263.59 39.7232 1260.23 36.0774 Q1256.91 32.4315 1251.4 32.4315 Q1245.16 32.4315 1241.4 35.9558 Q1237.67 39.4801 1237.1 45.8805 L1263.68 45.84 Z" fill="#000000" fill-rule="nonzero" fill-opacity="1"></path><path clip-path="url(#clip340)" d="M1338.74 44.2197 Q1341.37 45.1109 1343.84 48.0275 Q1346.35 50.9442 1348.87 56.0483 L1357.17 72.576 L1348.38 72.576 L1340.64 57.061 Q1337.64 50.9847 1334.81 48.9997 Q1332.01 47.0148 1327.15 47.0148 L1318.24 47.0148 L1318.24 72.576 L1310.06 72.576 L1310.06 12.096 L1328.53 12.096 Q1338.9 12.096 1344 16.4305 Q1349.11 20.7649 1349.11 29.5149 Q1349.11 35.2267 1346.44 38.994 Q1343.8 42.7613 1338.74 44.2197 M1318.24 18.8205 L1318.24 40.2903 L1328.53 40.2903 Q1334.44 40.2903 1337.44 37.5762 Q1340.48 34.8216 1340.48 29.5149 Q1340.48 24.2082 1337.44 21.5346 Q1334.44 18.8205 1328.53 18.8205 L1318.24 18.8205 Z" fill="#000000" fill-rule="nonzero" fill-opacity="1"></path><path clip-path="url(#clip340)" d="M1402.46 48.0275 L1402.46 51.6733 L1368.19 51.6733 Q1368.67 59.3701 1372.81 63.421 Q1376.98 67.4314 1384.39 67.4314 Q1388.69 67.4314 1392.7 66.3781 Q1396.75 65.3249 1400.72 63.2184 L1400.72 70.267 Q1396.71 71.9684 1392.49 72.8596 Q1388.28 73.7508 1383.95 73.7508 Q1373.09 73.7508 1366.73 67.4314 Q1360.41 61.1119 1360.41 50.3365 Q1360.41 39.1965 1366.41 32.6746 Q1372.44 26.1121 1382.65 26.1121 Q1391.81 26.1121 1397.11 32.0264 Q1402.46 37.9003 1402.46 48.0275 M1395.01 45.84 Q1394.92 39.7232 1391.56 36.0774 Q1388.24 32.4315 1382.73 32.4315 Q1376.49 32.4315 1372.73 35.9558 Q1369 39.4801 1368.43 45.8805 L1395.01 45.84 Z" fill="#000000" fill-rule="nonzero" fill-opacity="1"></path><path clip-path="url(#clip340)" d="M1444.55 49.3643 Q1444.55 41.2625 1441.19 36.8065 Q1437.86 32.3505 1431.83 32.3505 Q1425.83 32.3505 1422.47 36.8065 Q1419.15 41.2625 1419.15 49.3643 Q1419.15 57.4256 1422.47 61.8816 Q1425.83 66.3376 1431.83 66.3376 Q1437.86 66.3376 1441.19 61.8816 Q1444.55 57.4256 1444.55 49.3643 M1452 66.9452 Q1452 78.5308 1446.86 84.1616 Q1441.71 89.8329 1431.1 89.8329 Q1427.17 89.8329 1423.69 89.2252 Q1420.2 88.6581 1416.92 87.4428 L1416.92 80.1917 Q1420.2 81.9741 1423.4 82.8248 Q1426.6 83.6755 1429.92 83.6755 Q1437.26 83.6755 1440.9 79.8271 Q1444.55 76.0193 1444.55 68.282 L1444.55 64.5957 Q1442.24 68.6061 1438.63 70.5911 Q1435.03 72.576 1430.01 72.576 Q1421.66 72.576 1416.56 66.2161 Q1411.45 59.8562 1411.45 49.3643 Q1411.45 38.832 1416.56 32.472 Q1421.66 26.1121 1430.01 26.1121 Q1435.03 26.1121 1438.63 28.0971 Q1442.24 30.082 1444.55 34.0924 L1444.55 27.2059 L1452 27.2059 L1452 66.9452 Z" fill="#000000" fill-rule="nonzero" fill-opacity="1"></path><path clip-path="url(#clip340)" d="M1467.35 27.2059 L1474.81 27.2059 L1474.81 72.576 L1467.35 72.576 L1467.35 27.2059 M1467.35 9.54393 L1474.81 9.54393 L1474.81 18.9825 L1467.35 18.9825 L1467.35 9.54393 Z" fill="#000000" fill-rule="nonzero" fill-opacity="1"></path><path clip-path="url(#clip340)" d="M1507.99 32.4315 Q1501.99 32.4315 1498.51 37.1306 Q1495.02 41.7891 1495.02 49.9314 Q1495.02 58.0738 1498.47 62.7728 Q1501.95 67.4314 1507.99 67.4314 Q1513.94 67.4314 1517.42 62.7323 Q1520.91 58.0333 1520.91 49.9314 Q1520.91 41.8701 1517.42 37.1711 Q1513.94 32.4315 1507.99 32.4315 M1507.99 26.1121 Q1517.71 26.1121 1523.26 32.4315 Q1528.81 38.7509 1528.81 49.9314 Q1528.81 61.0714 1523.26 67.4314 Q1517.71 73.7508 1507.99 73.7508 Q1498.22 73.7508 1492.67 67.4314 Q1487.16 61.0714 1487.16 49.9314 Q1487.16 38.7509 1492.67 32.4315 Q1498.22 26.1121 1507.99 26.1121 Z" fill="#000000" fill-rule="nonzero" fill-opacity="1"></path><path clip-path="url(#clip340)" d="M1578.88 45.1919 L1578.88 72.576 L1571.42 72.576 L1571.42 45.4349 Q1571.42 38.994 1568.91 35.7938 Q1566.4 32.5936 1561.38 32.5936 Q1555.34 32.5936 1551.86 36.4419 Q1548.37 40.2903 1548.37 46.9338 L1548.37 72.576 L1540.88 72.576 L1540.88 27.2059 L1548.37 27.2059 L1548.37 34.2544 Q1551.05 30.163 1554.65 28.1376 Q1558.3 26.1121 1563.04 26.1121 Q1570.86 26.1121 1574.87 30.9732 Q1578.88 35.7938 1578.88 45.1919 Z" fill="#000000" fill-rule="nonzero" fill-opacity="1"></path><path clip-path="url(#clip340)" d="M1640.73 49.7694 Q1631.7 49.7694 1628.22 51.8354 Q1624.73 53.9013 1624.73 58.8839 Q1624.73 62.8538 1627.32 65.2034 Q1629.96 67.5124 1634.45 67.5124 Q1640.65 67.5124 1644.38 63.1374 Q1648.15 58.7219 1648.15 51.4303 L1648.15 49.7694 L1640.73 49.7694 M1655.6 46.6907 L1655.6 72.576 L1648.15 72.576 L1648.15 65.6895 Q1645.59 69.8214 1641.79 71.8063 Q1637.98 73.7508 1632.47 73.7508 Q1625.5 73.7508 1621.37 69.8619 Q1617.28 65.9325 1617.28 59.3701 Q1617.28 51.7138 1622.38 47.825 Q1627.53 43.9361 1637.7 43.9361 L1648.15 43.9361 L1648.15 43.2069 Q1648.15 38.0623 1644.74 35.2672 Q1641.38 32.4315 1635.26 32.4315 Q1631.38 32.4315 1627.69 33.3632 Q1624 34.295 1620.6 36.1584 L1620.6 29.2718 Q1624.69 27.692 1628.54 26.9223 Q1632.39 26.1121 1636.03 26.1121 Q1645.88 26.1121 1650.74 31.2163 Q1655.6 36.3204 1655.6 46.6907 Z" fill="#000000" fill-rule="nonzero" fill-opacity="1"></path><path clip-path="url(#clip340)" d="M1708.67 45.1919 L1708.67 72.576 L1701.21 72.576 L1701.21 45.4349 Q1701.21 38.994 1698.7 35.7938 Q1696.19 32.5936 1691.17 32.5936 Q1685.13 32.5936 1681.65 36.4419 Q1678.16 40.2903 1678.16 46.9338 L1678.16 72.576 L1670.67 72.576 L1670.67 27.2059 L1678.16 27.2059 L1678.16 34.2544 Q1680.84 30.163 1684.44 28.1376 Q1688.09 26.1121 1692.83 26.1121 Q1700.65 26.1121 1704.66 30.9732 Q1708.67 35.7938 1708.67 45.1919 Z" fill="#000000" fill-rule="nonzero" fill-opacity="1"></path><path clip-path="url(#clip340)" d="M1753.39 34.0924 L1753.39 9.54393 L1760.84 9.54393 L1760.84 72.576 L1753.39 72.576 L1753.39 65.7705 Q1751.04 69.8214 1747.43 71.8063 Q1743.87 73.7508 1738.85 73.7508 Q1730.62 73.7508 1725.44 67.1883 Q1720.29 60.6258 1720.29 49.9314 Q1720.29 39.2371 1725.44 32.6746 Q1730.62 26.1121 1738.85 26.1121 Q1743.87 26.1121 1747.43 28.0971 Q1751.04 30.0415 1753.39 34.0924 M1727.99 49.9314 Q1727.99 58.1548 1731.35 62.8538 Q1734.75 67.5124 1740.67 67.5124 Q1746.58 67.5124 1749.99 62.8538 Q1753.39 58.1548 1753.39 49.9314 Q1753.39 41.7081 1749.99 37.0496 Q1746.58 32.3505 1740.67 32.3505 Q1734.75 32.3505 1731.35 37.0496 Q1727.99 41.7081 1727.99 49.9314 Z" fill="#000000" fill-rule="nonzero" fill-opacity="1"></path><path clip-path="url(#clip340)" d="M1827.44 17.6457 Q1818.53 17.6457 1813.26 24.2892 Q1808.04 30.9327 1808.04 42.3968 Q1808.04 53.8203 1813.26 60.4638 Q1818.53 67.1073 1827.44 67.1073 Q1836.35 67.1073 1841.54 60.4638 Q1846.76 53.8203 1846.76 42.3968 Q1846.76 30.9327 1841.54 24.2892 Q1836.35 17.6457 1827.44 17.6457 M1827.44 11.0023 Q1840.16 11.0023 1847.78 19.5497 Q1855.39 28.0566 1855.39 42.3968 Q1855.39 56.6965 1847.78 65.2439 Q1840.16 73.7508 1827.44 73.7508 Q1814.68 73.7508 1807.02 65.2439 Q1799.41 56.737 1799.41 42.3968 Q1799.41 28.0566 1807.02 19.5497 Q1814.68 11.0023 1827.44 11.0023 Z" fill="#000000" fill-rule="nonzero" fill-opacity="1"></path><path clip-path="url(#clip340)" d="M1875.08 65.7705 L1875.08 89.8329 L1867.58 89.8329 L1867.58 27.2059 L1875.08 27.2059 L1875.08 34.0924 Q1877.43 30.0415 1880.99 28.0971 Q1884.6 26.1121 1889.58 26.1121 Q1897.84 26.1121 1902.99 32.6746 Q1908.17 39.2371 1908.17 49.9314 Q1908.17 60.6258 1902.99 67.1883 Q1897.84 73.7508 1889.58 73.7508 Q1884.6 73.7508 1880.99 71.8063 Q1877.43 69.8214 1875.08 65.7705 M1900.44 49.9314 Q1900.44 41.7081 1897.03 37.0496 Q1893.67 32.3505 1887.76 32.3505 Q1881.84 32.3505 1878.44 37.0496 Q1875.08 41.7081 1875.08 49.9314 Q1875.08 58.1548 1878.44 62.8538 Q1881.84 67.5124 1887.76 67.5124 Q1893.67 67.5124 1897.03 62.8538 Q1900.44 58.1548 1900.44 49.9314 Z" fill="#000000" fill-rule="nonzero" fill-opacity="1"></path><path clip-path="url(#clip340)" d="M1927.9 14.324 L1927.9 27.2059 L1943.25 27.2059 L1943.25 32.9987 L1927.9 32.9987 L1927.9 57.6282 Q1927.9 63.1779 1929.4 64.7578 Q1930.94 66.3376 1935.6 66.3376 L1943.25 66.3376 L1943.25 72.576 L1935.6 72.576 Q1926.97 72.576 1923.69 69.3758 Q1920.41 66.1351 1920.41 57.6282 L1920.41 32.9987 L1914.94 32.9987 L1914.94 27.2059 L1920.41 27.2059 L1920.41 14.324 L1927.9 14.324 Z" fill="#000000" fill-rule="nonzero" fill-opacity="1"></path><path clip-path="url(#clip340)" d="M1953.06 27.2059 L1960.51 27.2059 L1960.51 72.576 L1953.06 72.576 L1953.06 27.2059 M1953.06 9.54393 L1960.51 9.54393 L1960.51 18.9825 L1953.06 18.9825 L1953.06 9.54393 Z" fill="#000000" fill-rule="nonzero" fill-opacity="1"></path><path clip-path="url(#clip340)" d="M2011.43 35.9153 Q2014.23 30.8922 2018.12 28.5022 Q2022 26.1121 2027.27 26.1121 Q2034.36 26.1121 2038.21 31.0947 Q2042.06 36.0368 2042.06 45.1919 L2042.06 72.576 L2034.56 72.576 L2034.56 45.4349 Q2034.56 38.913 2032.25 35.7533 Q2029.94 32.5936 2025.2 32.5936 Q2019.41 32.5936 2016.05 36.4419 Q2012.69 40.2903 2012.69 46.9338 L2012.69 72.576 L2005.19 72.576 L2005.19 45.4349 Q2005.19 38.8725 2002.88 35.7533 Q2000.58 32.5936 1995.75 32.5936 Q1990.04 32.5936 1986.68 36.4824 Q1983.32 40.3308 1983.32 46.9338 L1983.32 72.576 L1975.82 72.576 L1975.82 27.2059 L1983.32 27.2059 L1983.32 34.2544 Q1985.87 30.082 1989.44 28.0971 Q1993 26.1121 1997.9 26.1121 Q2002.84 26.1121 2006.29 28.6237 Q2009.77 31.1352 2011.43 35.9153 Z" fill="#000000" fill-rule="nonzero" fill-opacity="1"></path><path clip-path="url(#clip340)" d="M2077.54 49.7694 Q2068.51 49.7694 2065.03 51.8354 Q2061.54 53.9013 2061.54 58.8839 Q2061.54 62.8538 2064.13 65.2034 Q2066.77 67.5124 2071.26 67.5124 Q2077.46 67.5124 2081.19 63.1374 Q2084.96 58.7219 2084.96 51.4303 L2084.96 49.7694 L2077.54 49.7694 M2092.41 46.6907 L2092.41 72.576 L2084.96 72.576 L2084.96 65.6895 Q2082.4 69.8214 2078.6 71.8063 Q2074.79 73.7508 2069.28 73.7508 Q2062.31 73.7508 2058.18 69.8619 Q2054.09 65.9325 2054.09 59.3701 Q2054.09 51.7138 2059.19 47.825 Q2064.34 43.9361 2074.5 43.9361 L2084.96 43.9361 L2084.96 43.2069 Q2084.96 38.0623 2081.55 35.2672 Q2078.19 32.4315 2072.07 32.4315 Q2068.18 32.4315 2064.5 33.3632 Q2060.81 34.295 2057.41 36.1584 L2057.41 29.2718 Q2061.5 27.692 2065.35 26.9223 Q2069.2 26.1121 2072.84 26.1121 Q2082.69 26.1121 2087.55 31.2163 Q2092.41 36.3204 2092.41 46.6907 Z" fill="#000000" fill-rule="nonzero" fill-opacity="1"></path><path clip-path="url(#clip340)" d="M2107.76 9.54393 L2115.22 9.54393 L2115.22 72.576 L2107.76 72.576 L2107.76 9.54393 Z" fill="#000000" fill-rule="nonzero" fill-opacity="1"></path><path clip-path="url(#clip340)" d="M2193.76 14.0809 L2193.76 22.0612 Q2189.1 19.8332 2184.97 18.7395 Q2180.84 17.6457 2176.99 17.6457 Q2170.31 17.6457 2166.66 20.2383 Q2163.06 22.8309 2163.06 27.611 Q2163.06 31.6214 2165.45 33.6873 Q2167.88 35.7128 2174.6 36.9686 L2179.54 37.9813 Q2188.7 39.7232 2193.03 44.1387 Q2197.41 48.5136 2197.41 55.8863 Q2197.41 64.6767 2191.49 69.2137 Q2185.62 73.7508 2174.24 73.7508 Q2169.94 73.7508 2165.08 72.7785 Q2160.26 71.8063 2155.08 69.9024 L2155.08 61.4765 Q2160.06 64.2716 2164.84 65.6895 Q2169.62 67.1073 2174.24 67.1073 Q2181.25 67.1073 2185.05 64.3527 Q2188.86 61.598 2188.86 56.4939 Q2188.86 52.0379 2186.11 49.5264 Q2183.39 47.0148 2177.15 45.759 L2172.17 44.7868 Q2163.02 42.9639 2158.93 39.075 Q2154.83 35.1862 2154.83 28.2591 Q2154.83 20.2383 2160.46 15.6203 Q2166.14 11.0023 2176.06 11.0023 Q2180.31 11.0023 2184.73 11.7719 Q2189.14 12.5416 2193.76 14.0809 Z" fill="#000000" fill-rule="nonzero" fill-opacity="1"></path><path clip-path="url(#clip340)" d="M2227.43 32.4315 Q2221.43 32.4315 2217.95 37.1306 Q2214.46 41.7891 2214.46 49.9314 Q2214.46 58.0738 2217.91 62.7728 Q2221.39 67.4314 2227.43 67.4314 Q2233.38 67.4314 2236.86 62.7323 Q2240.35 58.0333 2240.35 49.9314 Q2240.35 41.8701 2236.86 37.1711 Q2233.38 32.4315 2227.43 32.4315 M2227.43 26.1121 Q2237.15 26.1121 2242.7 32.4315 Q2248.25 38.7509 2248.25 49.9314 Q2248.25 61.0714 2242.7 67.4314 Q2237.15 73.7508 2227.43 73.7508 Q2217.66 73.7508 2212.11 67.4314 Q2206.6 61.0714 2206.6 49.9314 Q2206.6 38.7509 2212.11 32.4315 Q2217.66 26.1121 2227.43 26.1121 Z" fill="#000000" fill-rule="nonzero" fill-opacity="1"></path><path clip-path="url(#clip340)" d="M2260.6 9.54393 L2268.06 9.54393 L2268.06 72.576 L2260.6 72.576 L2260.6 9.54393 Z" fill="#000000" fill-rule="nonzero" fill-opacity="1"></path><path clip-path="url(#clip340)" d="M2282.88 54.671 L2282.88 27.2059 L2290.34 27.2059 L2290.34 54.3874 Q2290.34 60.8284 2292.85 64.0691 Q2295.36 67.2693 2300.38 67.2693 Q2306.42 67.2693 2309.9 63.421 Q2313.43 59.5726 2313.43 52.9291 L2313.43 27.2059 L2320.88 27.2059 L2320.88 72.576 L2313.43 72.576 L2313.43 65.6084 Q2310.71 69.7404 2307.11 71.7658 Q2303.54 73.7508 2298.8 73.7508 Q2290.98 73.7508 2286.93 68.8897 Q2282.88 64.0286 2282.88 54.671 M2301.64 26.1121 L2301.64 26.1121 Z" fill="#000000" fill-rule="nonzero" fill-opacity="1"></path><path clip-path="url(#clip340)" d="M2343.61 14.324 L2343.61 27.2059 L2358.96 27.2059 L2358.96 32.9987 L2343.61 32.9987 L2343.61 57.6282 Q2343.61 63.1779 2345.1 64.7578 Q2346.64 66.3376 2351.3 66.3376 L2358.96 66.3376 L2358.96 72.576 L2351.3 72.576 Q2342.67 72.576 2339.39 69.3758 Q2336.11 66.1351 2336.11 57.6282 L2336.11 32.9987 L2330.64 32.9987 L2330.64 27.2059 L2336.11 27.2059 L2336.11 14.324 L2343.61 14.324 Z" fill="#000000" fill-rule="nonzero" fill-opacity="1"></path><path clip-path="url(#clip340)" d="M2368.76 27.2059 L2376.22 27.2059 L2376.22 72.576 L2368.76 72.576 L2368.76 27.2059 M2368.76 9.54393 L2376.22 9.54393 L2376.22 18.9825 L2368.76 18.9825 L2368.76 9.54393 Z" fill="#000000" fill-rule="nonzero" fill-opacity="1"></path><path clip-path="url(#clip340)" d="M2409.39 32.4315 Q2403.4 32.4315 2399.91 37.1306 Q2396.43 41.7891 2396.43 49.9314 Q2396.43 58.0738 2399.87 62.7728 Q2403.36 67.4314 2409.39 67.4314 Q2415.35 67.4314 2418.83 62.7323 Q2422.31 58.0333 2422.31 49.9314 Q2422.31 41.8701 2418.83 37.1711 Q2415.35 32.4315 2409.39 32.4315 M2409.39 26.1121 Q2419.11 26.1121 2424.66 32.4315 Q2430.21 38.7509 2430.21 49.9314 Q2430.21 61.0714 2424.66 67.4314 Q2419.11 73.7508 2409.39 73.7508 Q2399.63 73.7508 2394.08 67.4314 Q2388.57 61.0714 2388.57 49.9314 Q2388.57 38.7509 2394.08 32.4315 Q2399.63 26.1121 2409.39 26.1121 Z" fill="#000000" fill-rule="nonzero" fill-opacity="1"></path><path clip-path="url(#clip340)" d="M2480.28 45.1919 L2480.28 72.576 L2472.83 72.576 L2472.83 45.4349 Q2472.83 38.994 2470.32 35.7938 Q2467.81 32.5936 2462.78 32.5936 Q2456.75 32.5936 2453.26 36.4419 Q2449.78 40.2903 2449.78 46.9338 L2449.78 72.576 L2442.29 72.576 L2442.29 27.2059 L2449.78 27.2059 L2449.78 34.2544 Q2452.45 30.163 2456.06 28.1376 Q2459.7 26.1121 2464.44 26.1121 Q2472.26 26.1121 2476.27 30.9732 Q2480.28 35.7938 2480.28 45.1919 Z" fill="#000000" fill-rule="nonzero" fill-opacity="1"></path><polyline clip-path="url(#clip342)" style="stroke:#009af9; stroke-linecap:round; stroke-linejoin:round; stroke-width:4; stroke-opacity:1; fill:none" points="175.445,383.414 538.33,513.384 901.215,643.355 1264.1,773.326 1626.99,903.297 1989.87,1033.27 2352.76,1163.24 2715.64,1293.21 3078.53,1423.18 3441.41,1553.15 3804.3,1683.12 "></polyline>
<polyline clip-path="url(#clip342)" style="stroke:#e26f46; stroke-linecap:round; stroke-linejoin:round; stroke-width:4; stroke-opacity:1; fill:none" points="1626.99,1423.18 1626.99,-1176.24 "></polyline>
<polyline clip-path="url(#clip342)" style="stroke:#3da44d; stroke-linecap:round; stroke-linejoin:round; stroke-width:4; stroke-opacity:1; fill:none" points="175.445,643.355 538.33,643.355 901.215,643.355 1264.1,643.355 1626.99,643.355 1989.87,643.355 2352.76,643.355 2715.64,643.355 3078.53,643.355 3441.41,643.355 3804.3,643.355 "></polyline>
<path clip-path="url(#clip342)" d="M175.445 643.355 L538.33 643.355 L901.215 643.355 L1264.1 773.326 L1626.99 903.297 L1626.99 1423.18 L1264.1 1423.18 L901.215 1423.18 L538.33 1423.18 L175.445 1423.18  Z" fill="#808080" fill-rule="evenodd" fill-opacity="0.2"></path>
<polyline clip-path="url(#clip342)" style="stroke:#808080; stroke-linecap:round; stroke-linejoin:round; stroke-width:4; stroke-opacity:1; fill:none" points="175.445,643.355 538.33,643.355 901.215,643.355 1264.1,773.326 1626.99,903.297 "></polyline>
<circle clip-path="url(#clip342)" cx="1626.99" cy="903.297" r="21.6" fill="#ff0000" fill-rule="evenodd" fill-opacity="1" stroke="#000000" stroke-opacity="1" stroke-width="3.2"></circle>
<path clip-path="url(#clip340)" d="M1653.79 477.836 L2280.18 477.836 L2280.18 166.796 L1653.79 166.796  Z" fill="#ffffff" fill-rule="evenodd" fill-opacity="1"></path>
<polyline clip-path="url(#clip340)" style="stroke:#000000; stroke-linecap:round; stroke-linejoin:round; stroke-width:4; stroke-opacity:1; fill:none" points="1653.79,477.836 2280.18,477.836 2280.18,166.796 1653.79,166.796 1653.79,477.836 "></polyline>
<polyline clip-path="url(#clip340)" style="stroke:#009af9; stroke-linecap:round; stroke-linejoin:round; stroke-width:4; stroke-opacity:1; fill:none" points="1677.98,218.636 1823.14,218.636 "></polyline>
<path clip-path="url(#clip340)" d="M1848 231.981 L1855.64 231.981 L1855.64 205.615 L1847.33 207.282 L1847.33 203.022 L1855.6 201.356 L1860.27 201.356 L1860.27 231.981 L1867.91 231.981 L1867.91 235.916 L1848 235.916 L1848 231.981 Z" fill="#000000" fill-rule="nonzero" fill-opacity="1"></path><path clip-path="url(#clip340)" d="M1898.3 209.99 L1888.93 222.606 L1898.79 235.916 L1893.77 235.916 L1886.22 225.731 L1878.67 235.916 L1873.65 235.916 L1883.72 222.351 L1874.51 209.99 L1879.53 209.99 L1886.41 219.226 L1893.28 209.99 L1898.3 209.99 Z" fill="#000000" fill-rule="nonzero" fill-opacity="1"></path><path clip-path="url(#clip340)" d="M1906.22 231.981 L1913.86 231.981 L1913.86 205.615 L1905.55 207.282 L1905.55 203.022 L1913.81 201.356 L1918.49 201.356 L1918.49 231.981 L1926.13 231.981 L1926.13 235.916 L1906.22 235.916 L1906.22 231.981 Z" fill="#000000" fill-rule="nonzero" fill-opacity="1"></path><path clip-path="url(#clip340)" d="M1967.38 206.194 L1967.38 219.087 L1980.27 219.087 L1980.27 223.022 L1967.38 223.022 L1967.38 235.916 L1963.49 235.916 L1963.49 223.022 L1950.59 223.022 L1950.59 219.087 L1963.49 219.087 L1963.49 206.194 L1967.38 206.194 Z" fill="#000000" fill-rule="nonzero" fill-opacity="1"></path><path clip-path="url(#clip340)" d="M2009.46 231.981 L2025.78 231.981 L2025.78 235.916 L2003.84 235.916 L2003.84 231.981 Q2006.5 229.226 2011.08 224.596 Q2015.69 219.944 2016.87 218.601 Q2019.11 216.078 2019.99 214.342 Q2020.9 212.583 2020.9 210.893 Q2020.9 208.138 2018.95 206.402 Q2017.03 204.666 2013.93 204.666 Q2011.73 204.666 2009.27 205.43 Q2006.84 206.194 2004.07 207.745 L2004.07 203.022 Q2006.89 201.888 2009.34 201.309 Q2011.8 200.731 2013.84 200.731 Q2019.21 200.731 2022.4 203.416 Q2025.59 206.101 2025.59 210.592 Q2025.59 212.721 2024.78 214.643 Q2024 216.541 2021.89 219.133 Q2021.31 219.805 2018.21 223.022 Q2015.11 226.217 2009.46 231.981 Z" fill="#000000" fill-rule="nonzero" fill-opacity="1"></path><path clip-path="url(#clip340)" d="M2056.54 209.99 L2047.17 222.606 L2057.03 235.916 L2052.01 235.916 L2044.46 225.731 L2036.91 235.916 L2031.89 235.916 L2041.96 222.351 L2032.75 209.99 L2037.77 209.99 L2044.65 219.226 L2051.52 209.99 L2056.54 209.99 Z" fill="#000000" fill-rule="nonzero" fill-opacity="1"></path><path clip-path="url(#clip340)" d="M2067.68 231.981 L2084 231.981 L2084 235.916 L2062.05 235.916 L2062.05 231.981 Q2064.71 229.226 2069.3 224.596 Q2073.9 219.944 2075.08 218.601 Q2077.33 216.078 2078.21 214.342 Q2079.11 212.583 2079.11 210.893 Q2079.11 208.138 2077.17 206.402 Q2075.25 204.666 2072.14 204.666 Q2069.95 204.666 2067.49 205.43 Q2065.06 206.194 2062.28 207.745 L2062.28 203.022 Q2065.11 201.888 2067.56 201.309 Q2070.02 200.731 2072.05 200.731 Q2077.42 200.731 2080.62 203.416 Q2083.81 206.101 2083.81 210.592 Q2083.81 212.721 2083 214.643 Q2082.21 216.541 2080.11 219.133 Q2079.53 219.805 2076.43 223.022 Q2073.33 226.217 2067.68 231.981 Z" fill="#000000" fill-rule="nonzero" fill-opacity="1"></path><path clip-path="url(#clip340)" d="M2138.51 212.583 L2114.62 221.078 L2138.51 229.527 L2138.51 233.74 L2108.83 222.976 L2108.83 219.133 L2138.51 208.37 L2138.51 212.583 Z" fill="#000000" fill-rule="nonzero" fill-opacity="1"></path><path clip-path="url(#clip340)" d="M2148.56 214.388 L2178.23 214.388 L2178.23 218.277 L2148.56 218.277 L2148.56 214.388 M2148.56 223.832 L2178.23 223.832 L2178.23 227.768 L2148.56 227.768 L2148.56 223.832 Z" fill="#000000" fill-rule="nonzero" fill-opacity="1"></path><path clip-path="url(#clip340)" d="M2213.39 219.504 Q2210.06 219.504 2208.14 221.286 Q2206.24 223.069 2206.24 226.194 Q2206.24 229.319 2208.14 231.101 Q2210.06 232.883 2213.39 232.883 Q2216.73 232.883 2218.65 231.101 Q2220.57 229.295 2220.57 226.194 Q2220.57 223.069 2218.65 221.286 Q2216.75 219.504 2213.39 219.504 M2208.72 217.513 Q2205.71 216.772 2204.02 214.712 Q2202.35 212.652 2202.35 209.689 Q2202.35 205.546 2205.29 203.138 Q2208.26 200.731 2213.39 200.731 Q2218.56 200.731 2221.5 203.138 Q2224.44 205.546 2224.44 209.689 Q2224.44 212.652 2222.75 214.712 Q2221.08 216.772 2218.09 217.513 Q2221.47 218.3 2223.35 220.592 Q2225.25 222.883 2225.25 226.194 Q2225.25 231.217 2222.17 233.902 Q2219.11 236.587 2213.39 236.587 Q2207.68 236.587 2204.6 233.902 Q2201.54 231.217 2201.54 226.194 Q2201.54 222.883 2203.44 220.592 Q2205.34 218.3 2208.72 217.513 M2207.01 210.129 Q2207.01 212.814 2208.67 214.319 Q2210.36 215.823 2213.39 215.823 Q2216.4 215.823 2218.09 214.319 Q2219.81 212.814 2219.81 210.129 Q2219.81 207.444 2218.09 205.939 Q2216.4 204.434 2213.39 204.434 Q2210.36 204.434 2208.67 205.939 Q2207.01 207.444 2207.01 210.129 Z" fill="#000000" fill-rule="nonzero" fill-opacity="1"></path><polyline clip-path="url(#clip340)" style="stroke:#e26f46; stroke-linecap:round; stroke-linejoin:round; stroke-width:4; stroke-opacity:1; fill:none" points="1677.98,270.476 1823.14,270.476 "></polyline>
<path clip-path="url(#clip340)" d="M1871.98 261.83 L1862.61 274.446 L1872.47 287.756 L1867.45 287.756 L1859.9 277.571 L1852.35 287.756 L1847.33 287.756 L1857.4 274.191 L1848.19 261.83 L1853.21 261.83 L1860.09 271.066 L1866.96 261.83 L1871.98 261.83 Z" fill="#000000" fill-rule="nonzero" fill-opacity="1"></path><path clip-path="url(#clip340)" d="M1879.9 283.821 L1887.54 283.821 L1887.54 257.455 L1879.23 259.122 L1879.23 254.862 L1887.49 253.196 L1892.17 253.196 L1892.17 283.821 L1899.81 283.821 L1899.81 287.756 L1879.9 287.756 L1879.9 283.821 Z" fill="#000000" fill-rule="nonzero" fill-opacity="1"></path><path clip-path="url(#clip340)" d="M1924.28 266.228 L1953.95 266.228 L1953.95 270.117 L1924.28 270.117 L1924.28 266.228 M1924.28 275.672 L1953.95 275.672 L1953.95 279.608 L1924.28 279.608 L1924.28 275.672 Z" fill="#000000" fill-rule="nonzero" fill-opacity="1"></path><path clip-path="url(#clip340)" d="M1991.96 257.27 L1980.15 275.719 L1991.96 275.719 L1991.96 257.27 M1990.73 253.196 L1996.61 253.196 L1996.61 275.719 L2001.54 275.719 L2001.54 279.608 L1996.61 279.608 L1996.61 287.756 L1991.96 287.756 L1991.96 279.608 L1976.36 279.608 L1976.36 275.094 L1990.73 253.196 Z" fill="#000000" fill-rule="nonzero" fill-opacity="1"></path><path clip-path="url(#clip340)" d="M2009.27 281.876 L2014.16 281.876 L2014.16 287.756 L2009.27 287.756 L2009.27 281.876 Z" fill="#000000" fill-rule="nonzero" fill-opacity="1"></path><path clip-path="url(#clip340)" d="M2034.34 256.274 Q2030.73 256.274 2028.9 259.839 Q2027.1 263.381 2027.1 270.51 Q2027.1 277.617 2028.9 281.182 Q2030.73 284.723 2034.34 284.723 Q2037.98 284.723 2039.78 281.182 Q2041.61 277.617 2041.61 270.51 Q2041.61 263.381 2039.78 259.839 Q2037.98 256.274 2034.34 256.274 M2034.34 252.571 Q2040.15 252.571 2043.21 257.177 Q2046.29 261.76 2046.29 270.51 Q2046.29 279.237 2043.21 283.844 Q2040.15 288.427 2034.34 288.427 Q2028.53 288.427 2025.46 283.844 Q2022.4 279.237 2022.4 270.51 Q2022.4 261.76 2025.46 257.177 Q2028.53 252.571 2034.34 252.571 Z" fill="#000000" fill-rule="nonzero" fill-opacity="1"></path><polyline clip-path="url(#clip340)" style="stroke:#3da44d; stroke-linecap:round; stroke-linejoin:round; stroke-width:4; stroke-opacity:1; fill:none" points="1677.98,322.316 1823.14,322.316 "></polyline>
<path clip-path="url(#clip340)" d="M1859.28 308.114 Q1855.66 308.114 1853.84 311.679 Q1852.03 315.221 1852.03 322.35 Q1852.03 329.457 1853.84 333.022 Q1855.66 336.563 1859.28 336.563 Q1862.91 336.563 1864.72 333.022 Q1866.54 329.457 1866.54 322.35 Q1866.54 315.221 1864.72 311.679 Q1862.91 308.114 1859.28 308.114 M1859.28 304.411 Q1865.09 304.411 1868.14 309.017 Q1871.22 313.6 1871.22 322.35 Q1871.22 331.077 1868.14 335.684 Q1865.09 340.267 1859.28 340.267 Q1853.47 340.267 1850.39 335.684 Q1847.33 331.077 1847.33 322.35 Q1847.33 313.6 1850.39 309.017 Q1853.47 304.411 1859.28 304.411 Z" fill="#000000" fill-rule="nonzero" fill-opacity="1"></path><path clip-path="url(#clip340)" d="M1900.39 313.67 L1891.01 326.286 L1900.87 339.596 L1895.85 339.596 L1888.3 329.411 L1880.76 339.596 L1875.73 339.596 L1885.8 326.031 L1876.59 313.67 L1881.61 313.67 L1888.49 322.906 L1895.36 313.67 L1900.39 313.67 Z" fill="#000000" fill-rule="nonzero" fill-opacity="1"></path><path clip-path="url(#clip340)" d="M1908.3 335.661 L1915.94 335.661 L1915.94 309.295 L1907.63 310.962 L1907.63 306.702 L1915.9 305.036 L1920.57 305.036 L1920.57 335.661 L1928.21 335.661 L1928.21 339.596 L1908.3 339.596 L1908.3 335.661 Z" fill="#000000" fill-rule="nonzero" fill-opacity="1"></path><path clip-path="url(#clip340)" d="M1969.46 309.874 L1969.46 322.767 L1982.35 322.767 L1982.35 326.702 L1969.46 326.702 L1969.46 339.596 L1965.57 339.596 L1965.57 326.702 L1952.68 326.702 L1952.68 322.767 L1965.57 322.767 L1965.57 309.874 L1969.46 309.874 Z" fill="#000000" fill-rule="nonzero" fill-opacity="1"></path><path clip-path="url(#clip340)" d="M2020.36 309.11 L2008.56 327.559 L2020.36 327.559 L2020.36 309.11 M2019.14 305.036 L2025.02 305.036 L2025.02 327.559 L2029.95 327.559 L2029.95 331.448 L2025.02 331.448 L2025.02 339.596 L2020.36 339.596 L2020.36 331.448 L2004.76 331.448 L2004.76 326.934 L2019.14 305.036 Z" fill="#000000" fill-rule="nonzero" fill-opacity="1"></path><path clip-path="url(#clip340)" d="M2058.63 313.67 L2049.25 326.286 L2059.11 339.596 L2054.09 339.596 L2046.54 329.411 L2039 339.596 L2033.97 339.596 L2044.04 326.031 L2034.83 313.67 L2039.85 313.67 L2046.73 322.906 L2053.6 313.67 L2058.63 313.67 Z" fill="#000000" fill-rule="nonzero" fill-opacity="1"></path><path clip-path="url(#clip340)" d="M2069.76 335.661 L2086.08 335.661 L2086.08 339.596 L2064.14 339.596 L2064.14 335.661 Q2066.8 332.906 2071.38 328.276 Q2075.99 323.624 2077.17 322.281 Q2079.41 319.758 2080.29 318.022 Q2081.2 316.263 2081.2 314.573 Q2081.2 311.818 2079.25 310.082 Q2077.33 308.346 2074.23 308.346 Q2072.03 308.346 2069.58 309.11 Q2067.14 309.874 2064.37 311.425 L2064.37 306.702 Q2067.19 305.568 2069.64 304.989 Q2072.1 304.411 2074.14 304.411 Q2079.51 304.411 2082.7 307.096 Q2085.89 309.781 2085.89 314.272 Q2085.89 316.401 2085.08 318.323 Q2084.3 320.221 2082.19 322.813 Q2081.61 323.485 2078.51 326.702 Q2075.41 329.897 2069.76 335.661 Z" fill="#000000" fill-rule="nonzero" fill-opacity="1"></path><path clip-path="url(#clip340)" d="M2140.59 316.263 L2116.7 324.758 L2140.59 333.207 L2140.59 337.42 L2110.92 326.656 L2110.92 322.813 L2140.59 312.05 L2140.59 316.263 Z" fill="#000000" fill-rule="nonzero" fill-opacity="1"></path><path clip-path="url(#clip340)" d="M2150.64 318.068 L2180.32 318.068 L2180.32 321.957 L2150.64 321.957 L2150.64 318.068 M2150.64 327.512 L2180.32 327.512 L2180.32 331.448 L2150.64 331.448 L2150.64 327.512 Z" fill="#000000" fill-rule="nonzero" fill-opacity="1"></path><path clip-path="url(#clip340)" d="M2206.29 335.661 L2213.93 335.661 L2213.93 309.295 L2205.62 310.962 L2205.62 306.702 L2213.88 305.036 L2218.56 305.036 L2218.56 335.661 L2226.2 335.661 L2226.2 339.596 L2206.29 339.596 L2206.29 335.661 Z" fill="#000000" fill-rule="nonzero" fill-opacity="1"></path><path clip-path="url(#clip340)" d="M2239.67 335.661 L2255.99 335.661 L2255.99 339.596 L2234.04 339.596 L2234.04 335.661 Q2236.7 332.906 2241.29 328.276 Q2245.89 323.624 2247.07 322.281 Q2249.32 319.758 2250.2 318.022 Q2251.1 316.263 2251.1 314.573 Q2251.1 311.818 2249.16 310.082 Q2247.24 308.346 2244.13 308.346 Q2241.94 308.346 2239.48 309.11 Q2237.05 309.874 2234.27 311.425 L2234.27 306.702 Q2237.1 305.568 2239.55 304.989 Q2242.01 304.411 2244.04 304.411 Q2249.41 304.411 2252.61 307.096 Q2255.8 309.781 2255.8 314.272 Q2255.8 316.401 2254.99 318.323 Q2254.2 320.221 2252.1 322.813 Q2251.52 323.485 2248.42 326.702 Q2245.32 329.897 2239.67 335.661 Z" fill="#000000" fill-rule="nonzero" fill-opacity="1"></path><path clip-path="url(#clip340)" d="M1677.98 394.892 L1823.14 394.892 L1823.14 353.42 L1677.98 353.42 L1677.98 394.892  Z" fill="#808080" fill-rule="evenodd" fill-opacity="0.2"></path>
<polyline clip-path="url(#clip340)" style="stroke:#808080; stroke-linecap:round; stroke-linejoin:round; stroke-width:4; stroke-opacity:1; fill:none" points="1677.98,353.42 1823.14,353.42 "></polyline>
<path clip-path="url(#clip340)" d="M1847.33 356.876 L1867.19 356.876 L1867.19 360.811 L1852.01 360.811 L1852.01 370.996 L1865.71 370.996 L1865.71 374.931 L1852.01 374.931 L1852.01 391.436 L1847.33 391.436 L1847.33 356.876 Z" fill="#000000" fill-rule="nonzero" fill-opacity="1"></path><path clip-path="url(#clip340)" d="M1894 377.408 L1894 379.491 L1874.41 379.491 Q1874.69 383.889 1877.05 386.204 Q1879.44 388.496 1883.67 388.496 Q1886.13 388.496 1888.42 387.894 Q1890.73 387.292 1893 386.089 L1893 390.116 Q1890.71 391.088 1888.3 391.598 Q1885.9 392.107 1883.42 392.107 Q1877.22 392.107 1873.58 388.496 Q1869.97 384.885 1869.97 378.727 Q1869.97 372.362 1873.4 368.635 Q1876.85 364.885 1882.68 364.885 Q1887.91 364.885 1890.94 368.265 Q1894 371.621 1894 377.408 M1889.74 376.158 Q1889.69 372.663 1887.77 370.579 Q1885.87 368.496 1882.72 368.496 Q1879.16 368.496 1877.01 370.51 Q1874.88 372.524 1874.55 376.181 L1889.74 376.158 Z" fill="#000000" fill-rule="nonzero" fill-opacity="1"></path><path clip-path="url(#clip340)" d="M1912.77 378.403 Q1907.61 378.403 1905.62 379.584 Q1903.63 380.764 1903.63 383.612 Q1903.63 385.88 1905.11 387.223 Q1906.61 388.542 1909.18 388.542 Q1912.72 388.542 1914.85 386.042 Q1917.01 383.519 1917.01 379.352 L1917.01 378.403 L1912.77 378.403 M1921.27 376.644 L1921.27 391.436 L1917.01 391.436 L1917.01 387.501 Q1915.55 389.862 1913.37 390.996 Q1911.2 392.107 1908.05 392.107 Q1904.07 392.107 1901.71 389.885 Q1899.37 387.639 1899.37 383.889 Q1899.37 379.514 1902.28 377.292 Q1905.22 375.07 1911.03 375.07 L1917.01 375.07 L1917.01 374.653 Q1917.01 371.714 1915.06 370.116 Q1913.14 368.496 1909.65 368.496 Q1907.42 368.496 1905.32 369.028 Q1903.21 369.561 1901.27 370.626 L1901.27 366.69 Q1903.6 365.788 1905.8 365.348 Q1908 364.885 1910.09 364.885 Q1915.71 364.885 1918.49 367.802 Q1921.27 370.718 1921.27 376.644 Z" fill="#000000" fill-rule="nonzero" fill-opacity="1"></path><path clip-path="url(#clip340)" d="M1946.57 366.274 L1946.57 370.302 Q1944.76 369.376 1942.82 368.913 Q1940.87 368.45 1938.79 368.45 Q1935.62 368.45 1934.02 369.422 Q1932.45 370.394 1932.45 372.339 Q1932.45 373.82 1933.58 374.677 Q1934.72 375.51 1938.14 376.274 L1939.6 376.598 Q1944.14 377.57 1946.03 379.352 Q1947.96 381.112 1947.96 384.283 Q1947.96 387.894 1945.09 390.001 Q1942.24 392.107 1937.24 392.107 Q1935.15 392.107 1932.89 391.69 Q1930.64 391.297 1928.14 390.487 L1928.14 386.089 Q1930.5 387.315 1932.79 387.94 Q1935.09 388.542 1937.33 388.542 Q1940.34 388.542 1941.96 387.524 Q1943.58 386.482 1943.58 384.607 Q1943.58 382.871 1942.4 381.945 Q1941.24 381.019 1937.28 380.163 L1935.8 379.815 Q1931.84 378.982 1930.09 377.269 Q1928.33 375.533 1928.33 372.524 Q1928.33 368.866 1930.92 366.876 Q1933.51 364.885 1938.28 364.885 Q1940.64 364.885 1942.72 365.232 Q1944.81 365.579 1946.57 366.274 Z" fill="#000000" fill-rule="nonzero" fill-opacity="1"></path><path clip-path="url(#clip340)" d="M1954.74 365.51 L1959 365.51 L1959 391.436 L1954.74 391.436 L1954.74 365.51 M1954.74 355.417 L1959 355.417 L1959 360.811 L1954.74 360.811 L1954.74 355.417 Z" fill="#000000" fill-rule="nonzero" fill-opacity="1"></path><path clip-path="url(#clip340)" d="M1986.52 378.496 Q1986.52 373.797 1984.58 371.135 Q1982.65 368.45 1979.28 368.45 Q1975.9 368.45 1973.95 371.135 Q1972.03 373.797 1972.03 378.496 Q1972.03 383.195 1973.95 385.88 Q1975.9 388.542 1979.28 388.542 Q1982.65 388.542 1984.58 385.88 Q1986.52 383.195 1986.52 378.496 M1972.03 369.445 Q1973.37 367.13 1975.41 366.019 Q1977.47 364.885 1980.32 364.885 Q1985.04 364.885 1987.98 368.635 Q1990.94 372.385 1990.94 378.496 Q1990.94 384.607 1987.98 388.357 Q1985.04 392.107 1980.32 392.107 Q1977.47 392.107 1975.41 390.996 Q1973.37 389.862 1972.03 387.547 L1972.03 391.436 L1967.75 391.436 L1967.75 355.417 L1972.03 355.417 L1972.03 369.445 Z" fill="#000000" fill-rule="nonzero" fill-opacity="1"></path><path clip-path="url(#clip340)" d="M1998 355.417 L2002.26 355.417 L2002.26 391.436 L1998 391.436 L1998 355.417 Z" fill="#000000" fill-rule="nonzero" fill-opacity="1"></path><path clip-path="url(#clip340)" d="M2033.35 377.408 L2033.35 379.491 L2013.77 379.491 Q2014.04 383.889 2016.4 386.204 Q2018.79 388.496 2023.02 388.496 Q2025.48 388.496 2027.77 387.894 Q2030.08 387.292 2032.35 386.089 L2032.35 390.116 Q2030.06 391.088 2027.65 391.598 Q2025.25 392.107 2022.77 392.107 Q2016.57 392.107 2012.93 388.496 Q2009.32 384.885 2009.32 378.727 Q2009.32 372.362 2012.75 368.635 Q2016.2 364.885 2022.03 364.885 Q2027.26 364.885 2030.29 368.265 Q2033.35 371.621 2033.35 377.408 M2029.09 376.158 Q2029.04 372.663 2027.12 370.579 Q2025.22 368.496 2022.08 368.496 Q2018.51 368.496 2016.36 370.51 Q2014.23 372.524 2013.9 376.181 L2029.09 376.158 Z" fill="#000000" fill-rule="nonzero" fill-opacity="1"></path><path clip-path="url(#clip340)" d="M2071.98 375.232 Q2073.49 375.741 2074.9 377.408 Q2076.33 379.075 2077.77 381.991 L2082.52 391.436 L2077.49 391.436 L2073.07 382.57 Q2071.36 379.098 2069.74 377.964 Q2068.14 376.829 2065.36 376.829 L2060.27 376.829 L2060.27 391.436 L2055.59 391.436 L2055.59 356.876 L2066.15 356.876 Q2072.08 356.876 2074.99 359.353 Q2077.91 361.829 2077.91 366.829 Q2077.91 370.093 2076.38 372.246 Q2074.88 374.399 2071.98 375.232 M2060.27 360.718 L2060.27 372.987 L2066.15 372.987 Q2069.53 372.987 2071.24 371.436 Q2072.98 369.862 2072.98 366.829 Q2072.98 363.797 2071.24 362.269 Q2069.53 360.718 2066.15 360.718 L2060.27 360.718 Z" fill="#000000" fill-rule="nonzero" fill-opacity="1"></path><path clip-path="url(#clip340)" d="M2108.39 377.408 L2108.39 379.491 L2088.81 379.491 Q2089.09 383.889 2091.45 386.204 Q2093.83 388.496 2098.07 388.496 Q2100.52 388.496 2102.82 387.894 Q2105.13 387.292 2107.4 386.089 L2107.4 390.116 Q2105.11 391.088 2102.7 391.598 Q2100.29 392.107 2097.82 392.107 Q2091.61 392.107 2087.98 388.496 Q2084.37 384.885 2084.37 378.727 Q2084.37 372.362 2087.79 368.635 Q2091.24 364.885 2097.08 364.885 Q2102.31 364.885 2105.34 368.265 Q2108.39 371.621 2108.39 377.408 M2104.14 376.158 Q2104.09 372.663 2102.17 370.579 Q2100.27 368.496 2097.12 368.496 Q2093.56 368.496 2091.4 370.51 Q2089.27 372.524 2088.95 376.181 L2104.14 376.158 Z" fill="#000000" fill-rule="nonzero" fill-opacity="1"></path><path clip-path="url(#clip340)" d="M2132.45 378.172 Q2132.45 373.542 2130.52 370.996 Q2128.63 368.45 2125.18 368.45 Q2121.75 368.45 2119.83 370.996 Q2117.93 373.542 2117.93 378.172 Q2117.93 382.778 2119.83 385.325 Q2121.75 387.871 2125.18 387.871 Q2128.63 387.871 2130.52 385.325 Q2132.45 382.778 2132.45 378.172 M2136.7 388.218 Q2136.7 394.838 2133.76 398.056 Q2130.83 401.297 2124.76 401.297 Q2122.52 401.297 2120.52 400.95 Q2118.53 400.625 2116.66 399.931 L2116.66 395.788 Q2118.53 396.806 2120.36 397.292 Q2122.19 397.778 2124.09 397.778 Q2128.28 397.778 2130.36 395.579 Q2132.45 393.403 2132.45 388.982 L2132.45 386.876 Q2131.13 389.167 2129.07 390.301 Q2127.01 391.436 2124.14 391.436 Q2119.37 391.436 2116.45 387.801 Q2113.53 384.167 2113.53 378.172 Q2113.53 372.153 2116.45 368.519 Q2119.37 364.885 2124.14 364.885 Q2127.01 364.885 2129.07 366.019 Q2131.13 367.153 2132.45 369.445 L2132.45 365.51 L2136.7 365.51 L2136.7 388.218 Z" fill="#000000" fill-rule="nonzero" fill-opacity="1"></path><path clip-path="url(#clip340)" d="M2145.48 365.51 L2149.74 365.51 L2149.74 391.436 L2145.48 391.436 L2145.48 365.51 M2145.48 355.417 L2149.74 355.417 L2149.74 360.811 L2145.48 360.811 L2145.48 355.417 Z" fill="#000000" fill-rule="nonzero" fill-opacity="1"></path><path clip-path="url(#clip340)" d="M2168.7 368.496 Q2165.27 368.496 2163.28 371.181 Q2161.29 373.843 2161.29 378.496 Q2161.29 383.149 2163.26 385.834 Q2165.25 388.496 2168.7 388.496 Q2172.1 388.496 2174.09 385.811 Q2176.08 383.126 2176.08 378.496 Q2176.08 373.89 2174.09 371.204 Q2172.1 368.496 2168.7 368.496 M2168.7 364.885 Q2174.25 364.885 2177.42 368.496 Q2180.59 372.107 2180.59 378.496 Q2180.59 384.862 2177.42 388.496 Q2174.25 392.107 2168.7 392.107 Q2163.12 392.107 2159.95 388.496 Q2156.8 384.862 2156.8 378.496 Q2156.8 372.107 2159.95 368.496 Q2163.12 364.885 2168.7 364.885 Z" fill="#000000" fill-rule="nonzero" fill-opacity="1"></path><path clip-path="url(#clip340)" d="M2209.2 375.788 L2209.2 391.436 L2204.95 391.436 L2204.95 375.927 Q2204.95 372.246 2203.51 370.417 Q2202.07 368.589 2199.2 368.589 Q2195.76 368.589 2193.76 370.788 Q2191.77 372.987 2191.77 376.783 L2191.77 391.436 L2187.49 391.436 L2187.49 365.51 L2191.77 365.51 L2191.77 369.538 Q2193.3 367.2 2195.36 366.042 Q2197.45 364.885 2200.15 364.885 Q2204.62 364.885 2206.91 367.663 Q2209.2 370.417 2209.2 375.788 Z" fill="#000000" fill-rule="nonzero" fill-opacity="1"></path><circle clip-path="url(#clip340)" cx="1750.56" cy="425.996" r="21.2677" fill="#ff0000" fill-rule="evenodd" fill-opacity="1" stroke="#000000" stroke-opacity="1" stroke-width="3.15077"></circle>
<path clip-path="url(#clip340)" d="M1863.35 411.887 Q1858.26 411.887 1855.25 415.683 Q1852.26 419.48 1852.26 426.03 Q1852.26 432.558 1855.25 436.354 Q1858.26 440.151 1863.35 440.151 Q1868.44 440.151 1871.41 436.354 Q1874.39 432.558 1874.39 426.03 Q1874.39 419.48 1871.41 415.683 Q1868.44 411.887 1863.35 411.887 M1863.35 408.091 Q1870.62 408.091 1874.97 412.975 Q1879.32 417.836 1879.32 426.03 Q1879.32 434.202 1874.97 439.086 Q1870.62 443.947 1863.35 443.947 Q1856.06 443.947 1851.68 439.086 Q1847.33 434.225 1847.33 426.03 Q1847.33 417.836 1851.68 412.975 Q1856.06 408.091 1863.35 408.091 Z" fill="#000000" fill-rule="nonzero" fill-opacity="1"></path><path clip-path="url(#clip340)" d="M1890.57 439.387 L1890.57 453.137 L1886.29 453.137 L1886.29 417.35 L1890.57 417.35 L1890.57 421.285 Q1891.91 418.97 1893.95 417.859 Q1896.01 416.725 1898.86 416.725 Q1903.58 416.725 1906.52 420.475 Q1909.48 424.225 1909.48 430.336 Q1909.48 436.447 1906.52 440.197 Q1903.58 443.947 1898.86 443.947 Q1896.01 443.947 1893.95 442.836 Q1891.91 441.702 1890.57 439.387 M1905.06 430.336 Q1905.06 425.637 1903.12 422.975 Q1901.2 420.29 1897.82 420.29 Q1894.44 420.29 1892.49 422.975 Q1890.57 425.637 1890.57 430.336 Q1890.57 435.035 1892.49 437.72 Q1894.44 440.382 1897.82 440.382 Q1901.2 440.382 1903.12 437.72 Q1905.06 435.035 1905.06 430.336 Z" fill="#000000" fill-rule="nonzero" fill-opacity="1"></path><path clip-path="url(#clip340)" d="M1920.76 409.989 L1920.76 417.35 L1929.53 417.35 L1929.53 420.66 L1920.76 420.66 L1920.76 434.734 Q1920.76 437.905 1921.61 438.808 Q1922.49 439.711 1925.15 439.711 L1929.53 439.711 L1929.53 443.276 L1925.15 443.276 Q1920.22 443.276 1918.35 441.447 Q1916.47 439.595 1916.47 434.734 L1916.47 420.66 L1913.35 420.66 L1913.35 417.35 L1916.47 417.35 L1916.47 409.989 L1920.76 409.989 Z" fill="#000000" fill-rule="nonzero" fill-opacity="1"></path><path clip-path="url(#clip340)" d="M1935.13 417.35 L1939.39 417.35 L1939.39 443.276 L1935.13 443.276 L1935.13 417.35 M1935.13 407.257 L1939.39 407.257 L1939.39 412.651 L1935.13 412.651 L1935.13 407.257 Z" fill="#000000" fill-rule="nonzero" fill-opacity="1"></path><path clip-path="url(#clip340)" d="M1968.49 422.327 Q1970.09 419.456 1972.31 418.091 Q1974.53 416.725 1977.54 416.725 Q1981.59 416.725 1983.79 419.572 Q1985.99 422.396 1985.99 427.628 L1985.99 443.276 L1981.71 443.276 L1981.71 427.767 Q1981.71 424.04 1980.39 422.234 Q1979.07 420.429 1976.36 420.429 Q1973.05 420.429 1971.13 422.628 Q1969.21 424.827 1969.21 428.623 L1969.21 443.276 L1964.92 443.276 L1964.92 427.767 Q1964.92 424.017 1963.6 422.234 Q1962.28 420.429 1959.53 420.429 Q1956.27 420.429 1954.34 422.651 Q1952.42 424.85 1952.42 428.623 L1952.42 443.276 L1948.14 443.276 L1948.14 417.35 L1952.42 417.35 L1952.42 421.378 Q1953.88 418.993 1955.92 417.859 Q1957.96 416.725 1960.76 416.725 Q1963.58 416.725 1965.55 418.16 Q1967.54 419.595 1968.49 422.327 Z" fill="#000000" fill-rule="nonzero" fill-opacity="1"></path><path clip-path="url(#clip340)" d="M2006.27 430.243 Q2001.1 430.243 1999.11 431.424 Q1997.12 432.604 1997.12 435.452 Q1997.12 437.72 1998.6 439.063 Q2000.11 440.382 2002.68 440.382 Q2006.22 440.382 2008.35 437.882 Q2010.5 435.359 2010.5 431.192 L2010.5 430.243 L2006.27 430.243 M2014.76 428.484 L2014.76 443.276 L2010.5 443.276 L2010.5 439.341 Q2009.04 441.702 2006.87 442.836 Q2004.69 443.947 2001.54 443.947 Q1997.56 443.947 1995.2 441.725 Q1992.86 439.479 1992.86 435.729 Q1992.86 431.354 1995.78 429.132 Q1998.72 426.91 2004.53 426.91 L2010.5 426.91 L2010.5 426.493 Q2010.5 423.554 2008.56 421.956 Q2006.64 420.336 2003.14 420.336 Q2000.92 420.336 1998.81 420.868 Q1996.71 421.401 1994.76 422.466 L1994.76 418.53 Q1997.1 417.628 1999.3 417.188 Q2001.5 416.725 2003.58 416.725 Q2009.21 416.725 2011.98 419.642 Q2014.76 422.558 2014.76 428.484 Z" fill="#000000" fill-rule="nonzero" fill-opacity="1"></path><path clip-path="url(#clip340)" d="M2023.53 407.257 L2027.79 407.257 L2027.79 443.276 L2023.53 443.276 L2023.53 407.257 Z" fill="#000000" fill-rule="nonzero" fill-opacity="1"></path><path clip-path="url(#clip340)" d="M2072.68 409.85 L2072.68 414.41 Q2070.02 413.137 2067.65 412.512 Q2065.29 411.887 2063.09 411.887 Q2059.27 411.887 2057.19 413.368 Q2055.13 414.85 2055.13 417.581 Q2055.13 419.873 2056.5 421.054 Q2057.89 422.211 2061.73 422.929 L2064.55 423.507 Q2069.78 424.503 2072.26 427.026 Q2074.76 429.526 2074.76 433.739 Q2074.76 438.762 2071.38 441.354 Q2068.02 443.947 2061.52 443.947 Q2059.07 443.947 2056.29 443.391 Q2053.53 442.836 2050.57 441.748 L2050.57 436.933 Q2053.42 438.53 2056.15 439.341 Q2058.88 440.151 2061.52 440.151 Q2065.52 440.151 2067.7 438.577 Q2069.88 437.003 2069.88 434.086 Q2069.88 431.54 2068.3 430.104 Q2066.75 428.669 2063.19 427.952 L2060.34 427.396 Q2055.11 426.355 2052.77 424.132 Q2050.43 421.91 2050.43 417.952 Q2050.43 413.368 2053.65 410.73 Q2056.89 408.091 2062.56 408.091 Q2064.99 408.091 2067.52 408.531 Q2070.04 408.97 2072.68 409.85 Z" fill="#000000" fill-rule="nonzero" fill-opacity="1"></path><path clip-path="url(#clip340)" d="M2091.91 420.336 Q2088.49 420.336 2086.5 423.021 Q2084.51 425.683 2084.51 430.336 Q2084.51 434.989 2086.47 437.674 Q2088.46 440.336 2091.91 440.336 Q2095.32 440.336 2097.31 437.651 Q2099.3 434.966 2099.3 430.336 Q2099.3 425.73 2097.31 423.044 Q2095.32 420.336 2091.91 420.336 M2091.91 416.725 Q2097.47 416.725 2100.64 420.336 Q2103.81 423.947 2103.81 430.336 Q2103.81 436.702 2100.64 440.336 Q2097.47 443.947 2091.91 443.947 Q2086.33 443.947 2083.16 440.336 Q2080.02 436.702 2080.02 430.336 Q2080.02 423.947 2083.16 420.336 Q2086.33 416.725 2091.91 416.725 Z" fill="#000000" fill-rule="nonzero" fill-opacity="1"></path><path clip-path="url(#clip340)" d="M2110.87 407.257 L2115.13 407.257 L2115.13 443.276 L2110.87 443.276 L2110.87 407.257 Z" fill="#000000" fill-rule="nonzero" fill-opacity="1"></path><path clip-path="url(#clip340)" d="M2123.6 433.044 L2123.6 417.35 L2127.86 417.35 L2127.86 432.882 Q2127.86 436.563 2129.3 438.415 Q2130.73 440.243 2133.6 440.243 Q2137.05 440.243 2139.04 438.044 Q2141.06 435.845 2141.06 432.049 L2141.06 417.35 L2145.32 417.35 L2145.32 443.276 L2141.06 443.276 L2141.06 439.294 Q2139.51 441.655 2137.45 442.813 Q2135.41 443.947 2132.7 443.947 Q2128.23 443.947 2125.92 441.169 Q2123.6 438.391 2123.6 433.044 M2134.32 416.725 L2134.32 416.725 Z" fill="#000000" fill-rule="nonzero" fill-opacity="1"></path><path clip-path="url(#clip340)" d="M2158.3 409.989 L2158.3 417.35 L2167.07 417.35 L2167.07 420.66 L2158.3 420.66 L2158.3 434.734 Q2158.3 437.905 2159.16 438.808 Q2160.04 439.711 2162.7 439.711 L2167.07 439.711 L2167.07 443.276 L2162.7 443.276 Q2157.77 443.276 2155.89 441.447 Q2154.02 439.595 2154.02 434.734 L2154.02 420.66 L2150.89 420.66 L2150.89 417.35 L2154.02 417.35 L2154.02 409.989 L2158.3 409.989 Z" fill="#000000" fill-rule="nonzero" fill-opacity="1"></path><path clip-path="url(#clip340)" d="M2172.68 417.35 L2176.94 417.35 L2176.94 443.276 L2172.68 443.276 L2172.68 417.35 M2172.68 407.257 L2176.94 407.257 L2176.94 412.651 L2172.68 412.651 L2172.68 407.257 Z" fill="#000000" fill-rule="nonzero" fill-opacity="1"></path><path clip-path="url(#clip340)" d="M2195.89 420.336 Q2192.47 420.336 2190.48 423.021 Q2188.49 425.683 2188.49 430.336 Q2188.49 434.989 2190.45 437.674 Q2192.45 440.336 2195.89 440.336 Q2199.3 440.336 2201.29 437.651 Q2203.28 434.966 2203.28 430.336 Q2203.28 425.73 2201.29 423.044 Q2199.3 420.336 2195.89 420.336 M2195.89 416.725 Q2201.45 416.725 2204.62 420.336 Q2207.79 423.947 2207.79 430.336 Q2207.79 436.702 2204.62 440.336 Q2201.45 443.947 2195.89 443.947 Q2190.32 443.947 2187.14 440.336 Q2184 436.702 2184 430.336 Q2184 423.947 2187.14 420.336 Q2190.32 416.725 2195.89 416.725 Z" fill="#000000" fill-rule="nonzero" fill-opacity="1"></path><path clip-path="url(#clip340)" d="M2236.4 427.628 L2236.4 443.276 L2232.14 443.276 L2232.14 427.767 Q2232.14 424.086 2230.71 422.257 Q2229.27 420.429 2226.4 420.429 Q2222.95 420.429 2220.96 422.628 Q2218.97 424.827 2218.97 428.623 L2218.97 443.276 L2214.69 443.276 L2214.69 417.35 L2218.97 417.35 L2218.97 421.378 Q2220.5 419.04 2222.56 417.882 Q2224.64 416.725 2227.35 416.725 Q2231.82 416.725 2234.11 419.503 Q2236.4 422.257 2236.4 427.628 Z" fill="#000000" fill-rule="nonzero" fill-opacity="1"></path><path clip-path="url(#clip340)" d="M1637.61 884.605 Q1634.51 889.929 1633 895.137 Q1631.5 900.345 1631.5 905.693 Q1631.5 911.04 1633 916.294 Q1634.53 921.526 1637.61 926.827 L1633.91 926.827 Q1630.43 921.387 1628.7 916.132 Q1626.99 910.878 1626.99 905.693 Q1626.99 900.531 1628.7 895.299 Q1630.41 890.068 1633.91 884.605 L1637.61 884.605 Z" fill="#000000" fill-rule="nonzero" fill-opacity="1"></path><path clip-path="url(#clip340)" d="M1659.32 890.091 L1647.52 908.54 L1659.32 908.54 L1659.32 890.091 M1658.1 886.017 L1663.98 886.017 L1663.98 908.54 L1668.91 908.54 L1668.91 912.429 L1663.98 912.429 L1663.98 920.577 L1659.32 920.577 L1659.32 912.429 L1643.72 912.429 L1643.72 907.915 L1658.1 886.017 Z" fill="#000000" fill-rule="nonzero" fill-opacity="1"></path><path clip-path="url(#clip340)" d="M1676.64 914.697 L1681.52 914.697 L1681.52 920.577 L1676.64 920.577 L1676.64 914.697 Z" fill="#000000" fill-rule="nonzero" fill-opacity="1"></path><path clip-path="url(#clip340)" d="M1701.71 889.095 Q1698.1 889.095 1696.27 892.66 Q1694.46 896.202 1694.46 903.331 Q1694.46 910.438 1696.27 914.003 Q1698.1 917.544 1701.71 917.544 Q1705.34 917.544 1707.15 914.003 Q1708.98 910.438 1708.98 903.331 Q1708.98 896.202 1707.15 892.66 Q1705.34 889.095 1701.71 889.095 M1701.71 885.392 Q1707.52 885.392 1710.57 889.998 Q1713.65 894.582 1713.65 903.331 Q1713.65 912.058 1710.57 916.665 Q1707.52 921.248 1701.71 921.248 Q1695.9 921.248 1692.82 916.665 Q1689.76 912.058 1689.76 903.331 Q1689.76 894.582 1692.82 889.998 Q1695.9 885.392 1701.71 885.392 Z" fill="#000000" fill-rule="nonzero" fill-opacity="1"></path><path clip-path="url(#clip340)" d="M1722.36 914.697 L1727.24 914.697 L1727.24 918.679 L1723.44 926.086 L1720.46 926.086 L1722.36 918.679 L1722.36 914.697 Z" fill="#000000" fill-rule="nonzero" fill-opacity="1"></path><path clip-path="url(#clip340)" d="M1756.04 916.642 L1772.36 916.642 L1772.36 920.577 L1750.41 920.577 L1750.41 916.642 Q1753.07 913.887 1757.66 909.257 Q1762.26 904.605 1763.44 903.262 Q1765.69 900.739 1766.57 899.003 Q1767.47 897.244 1767.47 895.554 Q1767.47 892.799 1765.53 891.063 Q1763.61 889.327 1760.5 889.327 Q1758.3 889.327 1755.85 890.091 Q1753.42 890.855 1750.64 892.406 L1750.64 887.683 Q1753.47 886.549 1755.92 885.97 Q1758.37 885.392 1760.41 885.392 Q1765.78 885.392 1768.98 888.077 Q1772.17 890.762 1772.17 895.253 Q1772.17 897.382 1771.36 899.304 Q1770.57 901.202 1768.47 903.794 Q1767.89 904.466 1764.79 907.683 Q1761.68 910.878 1756.04 916.642 Z" fill="#000000" fill-rule="nonzero" fill-opacity="1"></path><path clip-path="url(#clip340)" d="M1782.17 914.697 L1787.05 914.697 L1787.05 920.577 L1782.17 920.577 L1782.17 914.697 Z" fill="#000000" fill-rule="nonzero" fill-opacity="1"></path><path clip-path="url(#clip340)" d="M1807.24 889.095 Q1803.63 889.095 1801.8 892.66 Q1799.99 896.202 1799.99 903.331 Q1799.99 910.438 1801.8 914.003 Q1803.63 917.544 1807.24 917.544 Q1810.87 917.544 1812.68 914.003 Q1814.51 910.438 1814.51 903.331 Q1814.51 896.202 1812.68 892.66 Q1810.87 889.095 1807.24 889.095 M1807.24 885.392 Q1813.05 885.392 1816.11 889.998 Q1819.18 894.582 1819.18 903.331 Q1819.18 912.058 1816.11 916.665 Q1813.05 921.248 1807.24 921.248 Q1801.43 921.248 1798.35 916.665 Q1795.29 912.058 1795.29 903.331 Q1795.29 894.582 1798.35 889.998 Q1801.43 885.392 1807.24 885.392 Z" fill="#000000" fill-rule="nonzero" fill-opacity="1"></path><path clip-path="url(#clip340)" d="M1826.13 884.605 L1829.83 884.605 Q1833.3 890.068 1835.02 895.299 Q1836.75 900.531 1836.75 905.693 Q1836.75 910.878 1835.02 916.132 Q1833.3 921.387 1829.83 926.827 L1826.13 926.827 Q1829.21 921.526 1830.71 916.294 Q1832.24 911.04 1832.24 905.693 Q1832.24 900.345 1830.71 895.137 Q1829.21 889.929 1826.13 884.605 Z" fill="#000000" fill-rule="nonzero" fill-opacity="1"></path></svg>